<svg id="Artwork" xmlns="http://www.w3.org/2000/svg" xmlns:xlink="http://www.w3.org/1999/xlink" viewBox="0 0 669.36 427.8"><defs><style>.cls-1{fill:none;}.cls-2{clip-path:url(#clip-path);}.cls-3{fill:url(#linear-gradient);}.cls-4{clip-path:url(#clip-path-2);}.cls-5{fill:url(#linear-gradient-2);}.cls-6{fill:#425066;}</style><clipPath id="clip-path"><polygon class="cls-1" points="402 112.59 337.47 75.72 337.47 226.84 363.25 211.88 363.25 169.36 382.72 180.63 382.61 151.54 363.25 140.48 363.25 123.59 402.09 146.03 402 112.59"/></clipPath><linearGradient id="linear-gradient" x1="261.18" y1="151.1" x2="419.65" y2="151.1" gradientUnits="userSpaceOnUse"><stop offset="0" stop-color="#ff6f00"/><stop offset="1" stop-color="#ffa800"/></linearGradient><clipPath id="clip-path-2"><polygon class="cls-1" points="267.14 112.59 331.67 75.72 331.67 226.84 305.89 211.88 305.89 123.59 267.05 146.03 267.14 112.59"/></clipPath><linearGradient id="linear-gradient-2" x1="260.11" y1="151.1" x2="418.58" y2="151.1" xlink:href="#linear-gradient"/></defs><title>FullColorPrimary Vertical</title><g class="cls-2"><rect class="cls-3" x="261.18" y="75.17" width="158.47" height="151.86"/></g><g class="cls-4"><rect class="cls-5" x="260.11" y="75.17" width="158.47" height="151.86"/></g><path class="cls-6" d="M137.32,287.6H114v64.23H101.15V287.6H78.07V277.14h59.25Z"/><path class="cls-6" d="M152.77,352.85q-11.85,0-19.21-7.46t-7.36-19.88V324a33.4,33.4,0,0,1,3.2-14.85,24.4,24.4,0,0,1,9-10.18,23.76,23.76,0,0,1,12.92-3.64q11.34,0,17.52,7.23T175,323v5H138.76q.57,6.89,4.6,10.88a13.76,13.76,0,0,0,10.13,4A16.89,16.89,0,0,0,167.44,336l6.72,6.41a22.41,22.41,0,0,1-8.9,7.72A27.84,27.84,0,0,1,152.77,352.85Zm-1.49-47.55a10.49,10.49,0,0,0-8.28,3.59q-3.17,3.58-4,10h23.75V318q-.41-6.25-3.33-9.46A10.41,10.41,0,0,0,151.28,305.3Z"/><path class="cls-6" d="M196.27,296.32l.36,6.41a20,20,0,0,1,16.16-7.43q17.34,0,17.64,19.85v36.68H218v-36c0-3.53-.76-6.13-2.28-7.83s-4-2.54-7.47-2.54q-7.53,0-11.23,6.83v39.5H184.52V296.32Z"/><path class="cls-6" d="M270.88,336.75a5.64,5.64,0,0,0-2.74-5.08q-2.75-1.76-9.11-3.08a46.78,46.78,0,0,1-10.62-3.39q-9.33-4.51-9.33-13.08a14.74,14.74,0,0,1,6-12q6.06-4.83,15.39-4.82,9.94,0,16.08,4.92A15.61,15.61,0,0,1,282.73,313H270.27a7.67,7.67,0,0,0-2.67-6,10.23,10.23,0,0,0-7.08-2.39,11,11,0,0,0-6.69,1.9,6,6,0,0,0-2.6,5.08,5.06,5.06,0,0,0,2.42,4.46q2.4,1.59,9.74,3.21a46.22,46.22,0,0,1,11.52,3.85,16.27,16.27,0,0,1,6.21,5.36,13.64,13.64,0,0,1,2,7.59,14.45,14.45,0,0,1-6.21,12.13q-6.19,4.65-16.26,4.64a28.66,28.66,0,0,1-12.15-2.46,20,20,0,0,1-8.31-6.77,16,16,0,0,1-3-9.29h12.11a8.77,8.77,0,0,0,3.33,6.8,13,13,0,0,0,8.16,2.39q4.92,0,7.49-1.88A5.77,5.77,0,0,0,270.88,336.75Z"/><path class="cls-6" d="M289.56,323.56a32.66,32.66,0,0,1,3.23-14.7,23.54,23.54,0,0,1,9.08-10.05,25.61,25.61,0,0,1,13.44-3.51q11.24,0,18.23,7.23t7.57,19.18l.05,2.93A33.07,33.07,0,0,1,338,339.31a23.39,23.39,0,0,1-9,10,25.78,25.78,0,0,1-13.57,3.54q-11.75,0-18.8-7.82t-7.05-20.85ZM302,324.64q0,8.57,3.54,13.41a11.49,11.49,0,0,0,9.85,4.85,11.37,11.37,0,0,0,9.82-4.92q3.52-4.94,3.52-14.42,0-8.42-3.62-13.34a12.19,12.19,0,0,0-19.52-.07Q302,315,302,324.64Z"/><path class="cls-6" d="M378.66,307.71a31.16,31.16,0,0,0-5.07-.41q-8.58,0-11.55,6.57v38H349.58V296.32h11.9l.31,6.21q4.51-7.23,12.51-7.23a11.83,11.83,0,0,1,4.41.71Z"/><path class="cls-6" d="M430.78,320.18H400.72v31.65h-13V277.14h47.45V287.6H400.72v22.21h30.06Z"/><path class="cls-6" d="M455.41,351.83H442.94V277h12.47Z"/><path class="cls-6" d="M464.54,323.56a32.79,32.79,0,0,1,3.23-14.7,23.6,23.6,0,0,1,9.08-10.05,25.61,25.61,0,0,1,13.44-3.51q11.23,0,18.24,7.23t7.57,19.18l0,2.93A32.93,32.93,0,0,1,513,339.31a23.26,23.26,0,0,1-9,10,25.72,25.72,0,0,1-13.56,3.54q-11.76,0-18.81-7.82t-7-20.85ZM477,324.64q0,8.57,3.54,13.41a12.34,12.34,0,0,0,19.67-.07q3.51-4.94,3.51-14.42,0-8.42-3.61-13.34a11.56,11.56,0,0,0-9.83-4.92,11.43,11.43,0,0,0-9.69,4.85Q477,315,477,324.64Z"/><path class="cls-6" d="M572.4,334.64l8.82-38.32h12.16l-15.13,55.51H568l-11.9-38.12-11.7,38.12H534.13L519,296.32h12.16l9,37.91,11.39-37.91h9.39Z"/></svg>