<?xml version="1.0" encoding="UTF-8" standalone="no"?>
<svg
   xmlns:dc="http://purl.org/dc/elements/1.1/"
   xmlns:cc="http://creativecommons.org/ns#"
   xmlns:rdf="http://www.w3.org/1999/02/22-rdf-syntax-ns#"
   xmlns:svg="http://www.w3.org/2000/svg"
   xmlns="http://www.w3.org/2000/svg"
   xmlns:xlink="http://www.w3.org/1999/xlink"
   xmlns:sodipodi="http://sodipodi.sourceforge.net/DTD/sodipodi-0.dtd"
   xmlns:inkscape="http://www.inkscape.org/namespaces/inkscape"
   preserveAspectRatio="xMinYMin meet"
   width="409.53125"
   height="272.03125"
   viewBox="0 0 378.67424 126.58237"
   version="1.0"
   id="svg2"
   sodipodi:version="0.32"
   inkscape:version="0.48.3.1 r9886"
   sodipodi:docname="2ndOrder.svg"
   inkscape:output_extension="org.inkscape.output.svg.inkscape">
  <sodipodi:namedview
     inkscape:window-height="744"
     inkscape:window-width="1366"
     inkscape:pageshadow="2"
     inkscape:pageopacity="0.0"
     guidetolerance="10.0"
     gridtolerance="10.0"
     objecttolerance="10.0"
     borderopacity="1.0"
     bordercolor="#666666"
     pagecolor="#ffffff"
     id="base"
     inkscape:zoom="1.1708768"
     inkscape:cx="84.693091"
     inkscape:cy="198.15302"
     inkscape:window-x="0"
     inkscape:window-y="24"
     inkscape:current-layer="layer3"
     height="900.45px"
     width="605.63269px"
     showgrid="false"
     inkscape:window-maximized="1"
     fit-margin-top="0"
     fit-margin-left="0"
     fit-margin-right="0"
     fit-margin-bottom="0" />
  <metadata
     id="metadata666">
    <rdf:RDF>
      <cc:Work
         rdf:about="">
        <dc:format>image/svg+xml</dc:format>
        <dc:type
           rdf:resource="http://purl.org/dc/dcmitype/StillImage" />
        <dc:title></dc:title>
      </cc:Work>
    </rdf:RDF>
  </metadata>
  <defs
     id="defs664">
    <inkscape:perspective
       sodipodi:type="inkscape:persp3d"
       inkscape:vp_x="0 : 450.22501 : 1"
       inkscape:vp_y="0 : 1000 : 0"
       inkscape:vp_z="605.63269 : 450.22501 : 1"
       inkscape:persp3d-origin="302.81635 : 300.15 : 1"
       id="perspective5583" />
    <clipPath
       id="ID000000">
      <rect
         x="175.7"
         y="31.5"
         width="228.2"
         height="342.29999"
         id="rect11" />
    </clipPath>
    <defs
       id="defs4237">
      <g
         id="g4239">
        <symbol
           style="overflow:visible"
           overflow="visible"
           id="textext-fb30218b-0">
          <path
             inkscape:connector-curvature="0"
             style="stroke:none"
             d=""
             id="path4242" />
        </symbol>
        <symbol
           style="overflow:visible"
           overflow="visible"
           id="textext-fb30218b-1">
          <path
             inkscape:connector-curvature="0"
             style="stroke:none"
             d="M 3.328125,-3.015625 C 3.390625,-3.265625 3.625,-4.1875 4.3125,-4.1875 c 0.046875,0 0.296875,0 0.5,0.125 C 4.53125,-4 4.34375,-3.765625 4.34375,-3.515625 c 0,0.15625 0.109375,0.34375 0.375,0.34375 0.21875,0 0.53125,-0.171875 0.53125,-0.578125 0,-0.515625 -0.578125,-0.65625 -0.921875,-0.65625 -0.578125,0 -0.921875,0.53125 -1.046875,0.75 -0.25,-0.65625 -0.78125,-0.75 -1.078125,-0.75 -1.03125,0 -1.609375,1.28125 -1.609375,1.53125 0,0.109375 0.109375,0.109375 0.125,0.109375 0.078125,0 0.109375,-0.03125 0.125,-0.109375 0.34375,-1.0625 1,-1.3125 1.34375,-1.3125 0.1875,0 0.53125,0.09375 0.53125,0.671875 0,0.3125 -0.171875,0.96875 -0.53125,2.375 -0.15625,0.609375 -0.515625,1.03125 -0.953125,1.03125 -0.0625,0 -0.28125,0 -0.5,-0.125 0.25,-0.0625 0.46875,-0.265625 0.46875,-0.546875 0,-0.265625 -0.21875,-0.34375 -0.359375,-0.34375 -0.3125,0 -0.546875,0.25 -0.546875,0.578125 0,0.453125 0.484375,0.65625 0.921875,0.65625 0.671875,0 1.03125,-0.703125 1.046875,-0.75 0.125,0.359375 0.484375,0.75 1.078125,0.75 1.03125,0 1.59375,-1.28125 1.59375,-1.53125 0,-0.109375 -0.078125,-0.109375 -0.109375,-0.109375 -0.09375,0 -0.109375,0.046875 -0.140625,0.109375 -0.328125,1.078125 -1,1.3125 -1.3125,1.3125 -0.390625,0 -0.546875,-0.3125 -0.546875,-0.65625 0,-0.21875 0.046875,-0.4375 0.15625,-0.875 z"
             id="path4245" />
        </symbol>
        <symbol
           style="overflow:visible"
           overflow="visible"
           id="textext-fb30218b-2">
          <path
             inkscape:connector-curvature="0"
             style="stroke:none"
             d=""
             id="path4248" />
        </symbol>
        <symbol
           style="overflow:visible"
           overflow="visible"
           id="textext-fb30218b-3">
          <path
             inkscape:connector-curvature="0"
             style="stroke:none"
             d="M 3.59375,-2.21875 C 3.59375,-2.984375 3.5,-3.546875 3.1875,-4.03125 2.96875,-4.34375 2.53125,-4.625 1.984375,-4.625 c -1.625,0 -1.625,1.90625 -1.625,2.40625 0,0.5 0,2.359375 1.625,2.359375 1.609375,0 1.609375,-1.859375 1.609375,-2.359375 z M 1.984375,-0.0625 c -0.328125,0 -0.75,-0.1875 -0.890625,-0.75 C 1,-1.21875 1,-1.796875 1,-2.3125 1,-2.828125 1,-3.359375 1.09375,-3.734375 1.25,-4.28125 1.6875,-4.4375 1.984375,-4.4375 c 0.375,0 0.734375,0.234375 0.859375,0.640625 0.109375,0.375 0.125,0.875 0.125,1.484375 0,0.515625 0,1.03125 -0.09375,1.46875 -0.140625,0.640625 -0.609375,0.78125 -0.890625,0.78125 z"
             id="path4251" />
        </symbol>
      </g>
    </defs>
  </defs>
  <desc
     id="desc4">Matlab Figure Converted by PLOT2SVG written by Juerg Schwizer</desc>
  <g
     inkscape:groupmode="layer"
     id="layer2"
     inkscape:label="rest"
     style="display:inline"
     transform="translate(-322.36751,-418.27203)">
    <polyline
       points="276.756,134.208 276.736,134.276 276.222,136.856 275.937,139.436 275.866,142.016 275.995,144.597 276.310,147.177 276.756,149.512 276.809,149.757 277.567,152.337 278.499,154.917 278.763,155.529 279.738,157.497 280.769,159.313 281.279,160.078 282.776,162.068 283.314,162.658 284.783,164.105 286.242,165.238 286.790,165.624 288.797,166.626 290.803,167.210 292.810,167.340 294.817,166.976 296.824,166.073 297.963,165.238 298.831,164.474 300.299,162.658 300.837,161.826 301.716,160.078 302.693,157.497 302.844,156.928 303.284,154.917 303.619,152.337 303.736,149.757 303.651,147.177 303.375,144.597 302.922,142.016 302.844,141.698 302.217,139.436 301.323,136.856 300.837,135.688 300.163,134.276 298.831,131.856 298.727,131.696 296.835,129.116 296.824,129.102 294.817,127.082 294.127,126.536 292.810,125.593 290.803,124.563 288.797,123.962 288.695,123.955 286.790,123.842 286.089,123.955 284.783,124.201 282.776,125.132 280.943,126.536 280.769,126.696 278.899,129.116 278.763,129.338 277.639,131.696 276.756,134.208 "
       id="polyline47"
       style="fill:none;stroke:#b4b4b4;stroke-width:1pt;stroke-opacity:1;stroke-dasharray:none"
       transform="matrix(0,1.0770386,-1.0770386,0,720.27106,253.23685)" />
    <polyline
       points="262.708,127.420 262.441,129.116 262.144,131.696 261.957,134.276 261.876,136.856 261.896,139.436 262.015,142.016 262.229,144.597 262.536,147.177 262.708,148.293 262.949,149.757 263.468,152.337 264.075,154.917 264.715,157.294 264.774,157.497 265.612,160.078 266.535,162.658 266.722,163.132 267.609,165.238 268.729,167.699 268.787,167.818 270.151,170.398 270.736,171.433 271.679,172.978 272.742,174.618 273.406,175.558 274.749,177.355 275.391,178.139 276.756,179.716 277.714,180.719 278.763,181.760 280.496,183.299 280.769,183.530 282.776,185.015 284.132,185.879 284.783,186.275 286.790,187.285 288.797,188.090 290.058,188.459 290.803,188.667 292.810,189.012 294.817,189.136 296.824,189.033 298.831,188.690 299.624,188.459 300.837,188.076 302.844,187.169 304.851,185.972 304.976,185.879 306.858,184.364 307.955,183.299 308.864,182.327 310.151,180.719 310.871,179.717 311.862,178.139 312.878,176.312 313.250,175.558 314.369,172.978 314.885,171.597 315.288,170.398 316.022,167.818 316.623,165.238 316.892,163.773 317.078,162.658 317.399,160.078 317.610,157.497 317.715,154.917 317.717,152.337 317.620,149.757 317.426,147.177 317.140,144.597 316.892,142.901 316.754,142.016 316.255,139.436 315.667,136.856 314.992,134.276 314.885,133.915 314.182,131.696 313.277,129.116 312.878,128.080 312.241,126.536 311.086,123.955 310.871,123.513 309.759,121.375 308.864,119.767 308.281,118.795 306.858,116.571 306.610,116.215 304.851,113.832 304.691,113.635 302.844,111.475 302.447,111.055 300.837,109.440 299.761,108.474 298.831,107.681 296.824,106.175 296.387,105.894 294.817,104.934 292.810,103.909 291.341,103.314 290.803,103.106 288.797,102.543 286.790,102.194 284.783,102.068 282.776,102.173 280.769,102.520 278.763,103.119 278.303,103.314 276.756,104.026 274.749,105.243 273.884,105.894 272.742,106.835 271.089,108.474 270.736,108.861 269.021,111.055 268.729,111.471 267.404,113.635 266.722,114.894 266.087,116.215 265.005,118.795 264.715,119.597 264.137,121.375 263.433,123.955 262.862,126.536 262.708,127.420 "
       id="polyline53"
       style="fill:none;stroke:#b4b4b4;stroke-width:1pt;stroke-opacity:1;stroke-dasharray:none"
       transform="matrix(0,1.0770386,-1.0770386,0,720.27106,253.23685)" />
    <polyline
       points="248.661,121.519 248.378,123.955 248.151,126.536 247.996,129.116 247.910,131.696 247.894,134.276 247.944,136.856 248.059,139.436 248.239,142.016 248.481,144.597 248.661,146.121 248.791,147.177 249.172,149.757 249.615,152.337 250.117,154.917 250.668,157.446 250.679,157.497 251.329,160.078 252.038,162.658 252.674,164.802 252.810,165.238 253.674,167.818 254.594,170.398 254.681,170.627 255.618,172.978 256.688,175.523 256.704,175.558 257.907,178.139 258.695,179.748 259.194,180.719 260.583,183.299 260.702,183.510 262.107,185.879 262.708,186.851 263.757,188.459 264.715,189.871 265.554,191.039 266.722,192.604 267.526,193.619 268.729,195.083 269.706,196.200 270.736,197.334 272.139,198.780 272.742,199.380 274.749,201.236 274.895,201.360 276.756,202.893 278.143,203.940 278.763,204.394 280.769,205.721 282.116,206.520 282.776,206.900 284.783,207.913 286.790,208.789 287.642,209.100 288.797,209.509 290.803,210.077 292.810,210.502 294.817,210.781 296.824,210.909 298.831,210.882 300.837,210.696 302.844,210.346 304.851,209.828 306.858,209.137 306.942,209.100 308.864,208.229 310.871,207.128 311.814,206.520 312.878,205.794 314.885,204.215 315.194,203.940 316.892,202.332 317.808,201.360 318.898,200.125 319.970,198.780 320.905,197.521 321.800,196.200 322.912,194.427 323.377,193.619 324.749,191.039 324.919,190.691 325.927,188.459 326.926,186.026 326.982,185.879 327.876,183.299 328.674,180.719 328.932,179.777 329.353,178.139 329.932,175.558 330.427,172.978 330.840,170.398 330.939,169.639 331.162,167.818 331.405,165.238 331.576,162.658 331.677,160.078 331.709,157.497 331.673,154.917 331.572,152.337 331.407,149.757 331.178,147.177 330.939,145.053 330.886,144.597 330.518,142.016 330.089,139.436 329.599,136.856 329.051,134.276 328.932,133.774 328.420,131.696 327.725,129.116 326.972,126.536 326.926,126.389 326.123,123.955 325.215,121.375 324.919,120.586 324.215,118.795 323.143,116.215 322.912,115.690 321.965,113.635 320.905,111.444 320.707,111.055 319.331,108.474 318.898,107.700 317.838,105.894 316.892,104.349 316.223,103.314 314.885,101.325 314.465,100.734 312.878,98.590 312.536,98.154 310.871,96.112 310.404,95.574 308.864,93.865 308.025,92.994 306.858,91.824 305.344,90.413 304.851,89.969 302.844,88.302 302.227,87.833 300.837,86.812 298.831,85.471 298.464,85.253 296.824,84.306 294.817,83.284 293.428,82.673 292.810,82.410 290.803,81.697 288.797,81.123 286.790,80.694 284.783,80.413 282.776,80.284 280.769,80.311 278.763,80.499 276.756,80.852 274.749,81.375 272.742,82.073 271.366,82.673 270.736,82.964 268.729,84.076 266.929,85.253 266.722,85.397 264.715,86.993 263.785,87.833 262.708,88.868 261.273,90.413 260.702,91.071 259.192,92.994 258.695,93.675 257.430,95.574 256.688,96.776 255.907,98.154 254.681,100.506 254.571,100.734 253.428,103.314 252.674,105.190 252.411,105.894 251.538,108.474 250.762,111.055 250.668,111.407 250.111,113.635 249.551,116.215 249.074,118.795 248.679,121.375 248.661,121.519 "
       id="polyline59"
       style="fill:none;stroke:#b4b4b4;stroke-width:1pt;stroke-opacity:1;stroke-dasharray:none"
       transform="matrix(0,1.0770386,-1.0770386,0,720.27106,253.23685)" />
    <polyline
       points="234.613,116.258 234.371,118.795 234.178,121.375 234.038,123.955 233.951,126.536 233.916,129.116 233.931,131.696 233.996,134.276 234.109,136.856 234.271,139.436 234.481,142.016 234.613,143.349 234.741,144.597 235.054,147.177 235.414,149.757 235.820,152.337 236.270,154.917 236.620,156.738 236.771,157.497 237.330,160.078 237.933,162.658 238.579,165.238 238.627,165.415 239.293,167.818 240.053,170.398 240.634,172.265 240.863,172.978 241.740,175.558 242.641,178.086 242.660,178.139 243.659,180.719 244.647,183.166 244.703,183.299 245.830,185.879 246.654,187.694 247.014,188.459 248.275,191.039 248.661,191.800 249.618,193.619 250.668,195.550 251.035,196.200 252.542,198.780 252.674,198.999 254.157,201.360 254.681,202.170 255.874,203.940 256.688,205.112 257.708,206.520 258.695,207.844 259.673,209.100 260.702,210.384 261.790,211.681 262.708,212.746 264.080,214.261 264.715,214.944 266.570,216.841 266.722,216.992 268.729,218.883 269.334,219.421 270.736,220.636 272.410,222.001 272.742,222.265 274.749,223.756 275.943,224.581 276.756,225.130 278.763,226.380 280.131,227.161 280.769,227.518 282.776,228.532 284.783,229.445 285.524,229.742 286.790,230.237 288.797,230.918 290.803,231.492 292.810,231.959 294.817,232.315 294.869,232.322 296.824,232.553 298.831,232.678 300.837,232.690 302.844,232.586 304.851,232.364 305.102,232.322 306.858,232.012 308.864,231.531 310.871,230.920 312.878,230.176 313.872,229.742 314.885,229.281 316.892,228.227 318.672,227.161 318.898,227.020 320.905,225.619 322.242,224.581 322.912,224.037 324.919,222.245 325.169,222.001 326.926,220.207 327.634,219.421 328.932,217.908 329.781,216.841 330.939,215.306 331.675,214.261 332.946,212.350 333.363,211.681 334.879,209.100 334.953,208.968 336.227,206.520 336.959,205.018 337.456,203.940 338.565,201.360 338.966,200.357 339.564,198.780 340.469,196.200 340.973,194.639 341.286,193.619 342.013,191.039 342.671,188.459 342.980,187.121 343.253,185.879 343.759,183.299 344.205,180.719 344.590,178.139 344.917,175.558 344.987,174.899 345.179,172.978 345.384,170.398 345.535,167.818 345.634,165.238 345.681,162.658 345.677,160.078 345.623,157.497 345.520,154.917 345.369,152.337 345.170,149.757 344.987,147.836 344.922,147.177 344.619,144.597 344.270,142.016 343.874,139.436 343.434,136.856 342.980,134.444 342.947,134.276 342.398,131.696 341.805,129.116 341.168,126.536 340.973,125.799 340.469,123.955 339.720,121.375 338.966,118.923 338.926,118.795 338.059,116.215 337.149,113.635 336.959,113.124 336.167,111.055 335.134,108.474 334.953,108.040 334.024,105.894 332.946,103.497 332.861,103.314 331.609,100.734 330.939,99.402 330.288,98.154 328.932,95.642 328.894,95.574 327.396,92.994 326.926,92.208 325.807,90.413 324.919,89.031 324.117,87.833 322.912,86.086 322.312,85.253 320.905,83.353 320.379,82.673 318.898,80.814 318.297,80.093 316.892,78.454 316.045,77.513 314.885,76.258 313.595,74.933 312.878,74.214 310.916,72.352 310.871,72.311 308.864,70.563 307.899,69.772 306.858,68.940 304.851,67.439 304.495,67.192 302.844,66.073 300.837,64.815 300.484,64.612 298.831,63.687 296.824,62.665 295.437,62.032 294.817,61.755 292.810,60.966 290.803,60.281 288.797,59.703 287.720,59.452 286.790,59.239 284.783,58.891 282.776,58.653 280.769,58.526 278.763,58.514 276.756,58.619 274.749,58.842 272.742,59.187 271.609,59.452 270.736,59.663 268.729,60.279 266.722,61.028 264.715,61.915 264.485,62.032 262.708,62.973 260.702,64.184 260.068,64.612 258.695,65.580 256.688,67.155 256.645,67.192 254.681,68.962 253.858,69.772 252.674,70.995 251.464,72.352 250.668,73.292 249.377,74.933 248.661,75.893 247.535,77.513 246.654,78.853 245.891,80.093 244.647,82.238 244.410,82.673 243.086,85.253 242.641,86.181 241.891,87.833 240.800,90.413 240.634,90.835 239.829,92.994 238.940,95.574 238.627,96.560 238.147,98.154 237.435,100.734 236.791,103.314 236.620,104.074 236.230,105.894 235.737,108.474 235.305,111.055 234.932,113.635 234.618,116.215 234.613,116.258 "
       id="polyline65"
       style="fill:none;stroke:#b4b4b4;stroke-width:1pt;stroke-opacity:1;stroke-dasharray:none"
       transform="matrix(0,1.0770386,-1.0770386,0,720.27106,253.23685)" />
    <polyline
       points="220.566,111.473 220.386,113.635 220.213,116.215 220.083,118.795 219.995,121.375 219.948,123.955 219.942,126.536 219.976,129.116 220.049,131.696 220.162,134.276 220.313,136.856 220.503,139.436 220.566,140.150 220.735,142.016 221.007,144.597 221.317,147.177 221.663,149.757 222.047,152.337 222.467,154.917 222.573,155.516 222.932,157.497 223.437,160.078 223.978,162.658 224.554,165.238 224.580,165.345 225.182,167.818 225.847,170.398 226.545,172.978 226.586,173.121 227.300,175.558 228.090,178.139 228.593,179.712 228.924,180.719 229.808,183.299 230.600,185.522 230.730,185.879 231.712,188.459 232.607,190.730 232.732,191.039 233.815,193.619 234.613,195.463 234.942,196.200 236.130,198.780 236.620,199.814 237.375,201.360 238.627,203.851 238.673,203.940 240.049,206.520 240.634,207.589 241.487,209.100 242.641,211.092 242.992,211.681 244.574,214.261 244.647,214.377 246.247,216.841 246.654,217.452 248.008,219.421 248.661,220.350 249.863,222.001 250.668,223.081 251.826,224.581 252.674,225.657 253.906,227.161 254.681,228.088 256.118,229.742 256.688,230.384 258.478,232.322 258.695,232.552 260.702,234.592 261.020,234.902 262.708,236.512 263.773,237.482 264.715,238.324 266.722,240.033 266.758,240.062 268.729,241.623 270.086,242.642 270.736,243.121 272.742,244.516 273.824,245.222 274.749,245.816 276.756,247.019 278.159,247.803 278.763,248.134 280.769,249.149 282.776,250.082 283.488,250.383 284.783,250.920 286.790,251.667 288.797,252.331 290.803,252.910 291.022,252.963 292.810,253.391 294.817,253.785 296.824,254.091 298.831,254.309 300.837,254.436 302.844,254.472 304.851,254.414 306.858,254.261 308.864,254.012 310.871,253.665 312.878,253.218 313.813,252.963 314.885,252.662 316.892,251.993 318.898,251.216 320.786,250.383 320.905,250.328 322.912,249.303 324.919,248.160 325.489,247.803 326.926,246.872 328.932,245.448 329.226,245.222 330.939,243.857 332.348,242.642 332.946,242.108 334.953,240.179 335.066,240.062 336.959,238.040 337.450,237.482 338.966,235.685 339.589,234.902 340.973,233.085 341.522,232.322 342.980,230.207 343.283,229.742 344.893,227.161 344.987,227.005 346.359,224.581 346.993,223.404 347.714,222.001 348.970,219.421 349.000,219.357 350.112,216.841 351.007,214.694 351.180,214.261 352.152,211.681 353.014,209.244 353.062,209.100 353.884,206.520 354.650,203.940 355.020,202.595 355.348,201.360 355.981,198.780 356.563,196.200 357.027,193.940 357.091,193.619 357.555,191.039 357.972,188.459 358.342,185.879 358.665,183.299 358.942,180.719 359.034,179.703 359.170,178.139 359.352,175.558 359.492,172.978 359.589,170.398 359.645,167.818 359.660,165.238 359.635,162.658 359.570,160.078 359.466,157.497 359.324,154.917 359.142,152.337 359.034,151.062 358.920,149.757 358.657,147.177 358.355,144.597 358.017,142.016 357.641,139.436 357.230,136.856 357.027,135.691 356.775,134.276 356.278,131.696 355.745,129.116 355.177,126.536 355.020,125.869 354.560,123.955 353.904,121.375 353.213,118.795 353.014,118.089 352.471,116.215 351.689,113.635 351.007,111.482 350.868,111.055 349.991,108.474 349.081,105.894 349.000,105.675 348.109,103.314 347.101,100.734 346.993,100.469 346.029,98.154 344.987,95.730 344.917,95.574 343.737,92.994 342.980,91.386 342.508,90.413 341.219,87.833 340.973,87.354 339.860,85.253 338.966,83.611 338.440,82.673 336.959,80.101 336.955,80.093 335.380,77.513 334.953,76.829 333.728,74.933 332.946,73.750 331.990,72.352 330.939,70.851 330.158,69.772 328.932,68.119 328.221,67.192 326.926,65.543 326.167,64.612 324.919,63.112 323.984,62.032 322.912,60.818 321.655,59.452 320.905,58.653 319.162,56.871 318.898,56.607 316.892,54.684 316.462,54.291 314.885,52.877 313.521,51.711 312.878,51.172 310.871,49.574 310.284,49.131 308.864,48.082 306.858,46.679 306.661,46.551 304.851,45.387 302.844,44.177 302.477,43.971 300.837,43.070 298.831,42.049 297.420,41.391 296.824,41.117 294.817,40.283 292.810,39.531 290.803,38.864 290.619,38.810 288.797,38.295 286.790,37.812 284.783,37.416 282.776,37.108 280.769,36.889 278.763,36.761 276.756,36.725 274.749,36.784 272.742,36.937 270.736,37.188 268.729,37.537 266.722,37.987 264.715,38.538 263.878,38.810 262.708,39.204 260.702,39.985 258.695,40.876 257.664,41.391 256.688,41.894 254.681,43.044 253.215,43.971 252.674,44.324 250.668,45.757 249.644,46.551 248.661,47.342 246.654,49.086 246.606,49.131 244.647,51.028 243.988,51.711 242.641,53.163 241.658,54.291 240.634,55.517 239.567,56.871 238.627,58.117 237.675,59.452 236.620,60.998 235.952,62.032 234.613,64.199 234.371,64.612 232.926,67.192 232.607,67.792 231.601,69.772 230.600,71.851 230.369,72.352 229.244,74.933 228.593,76.513 228.199,77.513 227.240,80.093 226.586,81.967 226.350,82.673 225.541,85.253 224.788,87.833 224.580,88.601 224.107,90.413 223.485,92.994 222.915,95.574 222.573,97.273 222.402,98.154 221.948,100.734 221.542,103.314 221.182,105.894 220.869,108.474 220.602,111.055 220.566,111.473 "
       id="polyline71"
       style="fill:none;stroke:#b4b4b4;stroke-width:1pt;stroke-opacity:1;stroke-dasharray:none"
       transform="matrix(0,1.0770386,-1.0770386,0,720.27106,253.23685)" />
    <polyline
       points="206.518,107.052 206.411,108.474 206.252,111.055 206.128,113.635 206.039,116.215 205.985,118.795 205.965,121.375 205.978,123.955 206.024,126.536 206.104,129.116 206.216,131.696 206.360,134.276 206.518,136.593 206.537,136.856 206.750,139.436 206.994,142.016 207.271,144.597 207.578,147.177 207.916,149.757 208.285,152.337 208.525,153.886 208.688,154.917 209.128,157.497 209.597,160.078 210.097,162.658 210.532,164.779 210.628,165.238 211.200,167.818 211.802,170.398 212.432,172.978 212.539,173.393 213.106,175.558 213.811,178.139 214.545,180.719 214.546,180.720 215.327,183.299 216.138,185.879 216.552,187.152 216.988,188.459 217.877,191.039 218.559,192.955 218.801,193.619 219.771,196.200 220.566,198.251 220.775,198.780 221.829,201.360 222.573,203.131 222.920,203.940 224.060,206.520 224.580,207.665 225.246,209.100 226.474,211.681 226.586,211.910 227.763,214.261 228.593,215.881 229.097,216.841 230.483,219.421 230.600,219.634 231.935,222.001 232.607,223.166 233.443,224.581 234.613,226.519 235.012,227.161 236.620,229.702 236.646,229.742 238.360,232.322 238.627,232.717 240.149,234.902 240.634,235.584 242.020,237.482 242.641,238.315 243.980,240.062 244.647,240.916 246.037,242.642 246.654,243.395 248.200,245.222 248.661,245.757 250.480,247.803 250.668,248.010 252.674,250.153 252.897,250.383 254.681,252.191 255.471,252.963 256.688,254.133 258.211,255.543 258.695,255.984 260.702,257.740 261.158,258.123 262.708,259.404 264.350,260.703 264.715,260.988 266.722,262.480 267.854,263.284 268.729,263.894 270.736,265.225 271.752,265.864 272.742,266.477 274.749,267.649 276.194,268.444 276.756,268.748 278.763,269.764 280.769,270.711 281.485,271.024 282.776,271.579 284.783,272.371 286.790,273.095 288.358,273.604 288.797,273.744 290.803,274.314 292.810,274.812 294.817,275.239 296.824,275.592 298.831,275.872 300.837,276.076 302.528,276.184 302.844,276.204 304.851,276.255 306.858,276.228 307.711,276.184 308.864,276.123 310.871,275.937 312.878,275.669 314.885,275.319 316.892,274.885 318.898,274.366 320.905,273.760 321.360,273.604 322.912,273.056 324.919,272.257 326.926,271.367 327.626,271.024 328.932,270.368 330.939,269.264 332.309,268.444 332.946,268.052 334.953,266.718 336.146,265.864 336.959,265.265 338.966,263.681 339.440,263.284 340.973,261.954 342.330,260.703 342.980,260.085 344.925,258.123 344.987,258.060 346.993,255.853 347.261,255.543 349.000,253.459 349.394,252.963 351.007,250.860 351.356,250.383 353.014,248.032 353.168,247.803 354.844,245.222 355.020,244.940 356.396,242.642 357.027,241.545 357.846,240.062 359.034,237.816 359.204,237.482 360.462,234.902 361.041,233.662 361.642,232.322 362.749,229.742 363.048,229.010 363.777,227.161 364.744,224.581 365.054,223.710 365.642,222.001 366.482,219.421 367.061,217.538 367.268,216.841 367.992,214.261 368.671,211.681 369.068,210.068 369.299,209.100 369.873,206.520 370.404,203.940 370.895,201.360 371.075,200.329 371.337,198.780 371.735,196.200 372.094,193.619 372.415,191.039 372.697,188.459 372.942,185.879 373.082,184.154 373.149,183.299 373.315,180.719 373.447,178.139 373.544,175.558 373.606,172.978 373.634,170.398 373.628,167.818 373.589,165.238 373.517,162.658 373.412,160.078 373.275,157.497 373.106,154.917 373.082,154.610 372.900,152.337 372.663,149.757 372.394,147.177 372.093,144.597 371.761,142.016 371.399,139.436 371.075,137.304 371.005,136.856 370.573,134.276 370.110,131.696 369.617,129.116 369.094,126.536 369.068,126.413 368.529,123.955 367.934,121.375 367.310,118.795 367.061,117.814 366.647,116.215 365.948,113.635 365.220,111.055 365.054,110.490 364.449,108.474 363.645,105.894 363.048,104.045 362.806,103.314 361.923,100.734 361.041,98.237 361.011,98.154 360.047,95.574 359.054,92.994 359.034,92.942 358.007,90.413 357.027,88.063 356.929,87.833 355.795,85.253 355.020,83.534 354.623,82.673 353.401,80.093 353.014,79.296 352.126,77.513 351.007,75.315 350.807,74.933 349.427,72.352 349.000,71.571 347.991,69.772 346.993,68.033 346.499,67.192 344.987,64.676 344.947,64.612 343.320,62.032 342.980,61.503 341.624,59.452 340.973,58.487 339.853,56.871 338.966,55.617 338.002,54.291 336.959,52.886 336.063,51.711 334.953,50.285 334.028,49.131 332.946,47.807 331.888,46.551 330.939,45.445 329.633,43.971 328.932,43.194 327.251,41.391 326.926,41.048 324.919,39.005 324.720,38.810 322.912,37.067 322.012,36.230 320.905,35.219 319.120,33.650 318.898,33.458 316.892,31.795 315.979,31.070 314.885,30.215 312.878,28.716 312.560,28.490 310.871,27.308 308.864,25.971 308.768,25.910 306.858,24.725 304.851,23.547 304.456,23.330 302.844,22.455 300.837,21.435 299.390,20.749 298.831,20.488 296.824,19.623 294.817,18.827 292.999,18.169 292.810,18.102 290.803,17.460 288.797,16.887 286.790,16.387 284.783,15.958 282.776,15.603 282.674,15.589 280.769,15.328 278.763,15.127 276.756,15.000 274.749,14.950 272.742,14.976 270.736,15.080 268.729,15.264 266.722,15.527 266.360,15.589 264.715,15.878 262.708,16.314 260.702,16.835 258.695,17.444 256.688,18.140 256.612,18.169 254.681,18.941 252.674,19.837 250.822,20.749 250.668,20.828 248.661,21.937 246.654,23.146 246.372,23.330 244.647,24.483 242.668,25.910 242.641,25.930 240.634,27.522 239.491,28.490 238.627,29.244 236.661,31.070 236.620,31.109 234.613,33.145 234.142,33.650 232.607,35.351 231.853,36.230 230.600,37.744 229.759,38.810 228.593,40.344 227.834,41.391 226.586,43.174 226.053,43.971 224.580,46.260 224.400,46.551 222.869,49.131 222.573,49.651 221.446,51.711 220.566,53.390 220.111,54.291 218.866,56.871 218.559,57.535 217.707,59.452 216.613,62.032 216.552,62.182 215.604,64.612 214.648,67.192 214.546,67.483 213.767,69.772 212.938,72.352 212.539,73.666 212.167,74.933 211.453,77.513 210.784,80.093 210.532,81.133 210.170,82.673 209.606,85.253 209.083,87.833 208.602,90.413 208.525,90.861 208.171,92.994 207.782,95.574 207.431,98.154 207.119,100.734 206.845,103.314 206.608,105.894 206.518,107.052 "
       id="polyline77"
       style="fill:none;stroke:#b4b4b4;stroke-width:1pt;stroke-opacity:1;stroke-dasharray:none"
       transform="matrix(0,1.0770386,-1.0770386,0,720.27106,253.23685)" />
    <polyline
       points="192.471,102.916 192.443,103.314 192.294,105.894 192.174,108.474 192.085,111.055 192.025,113.635 191.994,116.215 191.993,118.795 192.020,121.375 192.075,123.955 192.159,126.536 192.270,129.116 192.410,131.696 192.471,132.645 192.578,134.276 192.776,136.856 193.001,139.436 193.254,142.016 193.533,144.597 193.839,147.177 194.171,149.757 194.478,151.961 194.531,152.337 194.923,154.917 195.342,157.497 195.787,160.078 196.257,162.658 196.485,163.842 196.758,165.238 197.290,167.818 197.847,170.398 198.429,172.978 198.491,173.242 199.048,175.558 199.693,178.139 200.364,180.719 200.498,181.217 201.071,183.299 201.805,185.879 202.505,188.256 202.566,188.459 203.367,191.039 204.192,193.619 204.512,194.588 205.053,196.200 205.946,198.780 206.518,200.387 206.871,201.360 207.834,203.940 208.525,205.747 208.827,206.520 209.860,209.100 210.532,210.737 210.927,211.681 212.033,214.261 212.539,215.413 213.178,216.841 214.359,219.421 214.546,219.819 215.588,222.001 216.552,223.977 216.853,224.581 218.166,227.161 218.559,227.919 219.526,229.742 220.566,231.666 220.928,232.322 222.381,234.902 222.573,235.235 223.891,237.482 224.580,238.633 225.453,240.062 226.586,241.884 227.069,242.642 228.593,244.996 228.743,245.222 230.484,247.803 230.600,247.971 232.296,250.383 232.607,250.818 234.178,252.963 234.613,253.548 236.136,255.543 236.620,256.167 238.177,258.123 238.627,258.680 240.306,260.703 240.634,261.092 242.532,263.284 242.641,263.407 244.647,265.625 244.870,265.864 246.654,267.750 247.330,268.444 248.661,269.790 249.918,271.024 250.668,271.748 252.649,273.604 252.674,273.628 254.681,275.418 255.569,276.184 256.688,277.135 258.673,278.764 258.695,278.782 260.702,280.345 262.035,281.345 262.708,281.842 264.715,283.266 265.685,283.925 266.722,284.620 268.729,285.906 269.709,286.505 270.736,287.124 272.742,288.274 274.234,289.085 274.749,289.361 276.756,290.378 278.763,291.335 279.501,291.665 280.769,292.225 282.776,293.049 284.783,293.815 286.010,294.245 286.790,294.515 288.797,295.149 290.803,295.722 292.810,296.234 294.817,296.683 295.555,296.826 296.824,297.067 298.831,297.385 300.837,297.640 302.844,297.832 304.851,297.959 306.858,298.020 308.864,298.016 310.871,297.945 312.878,297.806 314.885,297.599 316.892,297.323 318.898,296.977 319.628,296.826 320.905,296.555 322.912,296.057 324.919,295.485 326.926,294.838 328.574,294.245 328.932,294.113 330.939,293.299 332.946,292.405 334.471,291.665 334.953,291.426 336.959,290.350 338.966,289.189 339.134,289.085 340.973,287.920 342.980,286.560 343.057,286.505 344.987,285.082 346.465,283.925 346.993,283.500 349.000,281.797 349.506,281.345 351.007,279.966 352.251,278.764 353.014,278.007 354.762,276.184 355.020,275.907 357.027,273.654 357.070,273.604 359.034,271.232 359.199,271.024 361.041,268.633 361.180,268.444 363.030,265.864 363.048,265.839 364.755,263.284 365.054,262.821 366.374,260.703 367.061,259.562 367.897,258.123 369.068,256.036 369.335,255.543 370.685,252.963 371.075,252.190 371.956,250.383 373.082,247.984 373.164,247.803 374.292,245.222 375.088,243.326 375.366,242.642 376.374,240.062 377.095,238.133 377.331,237.482 378.227,234.902 379.080,232.322 379.102,232.254 379.873,229.742 380.625,227.161 381.109,225.410 381.331,224.581 381.989,222.001 382.608,219.421 383.115,217.175 383.189,216.841 383.722,214.261 384.219,211.681 384.682,209.100 385.110,206.520 385.122,206.440 385.495,203.940 385.847,201.360 386.165,198.780 386.452,196.200 386.706,193.619 386.928,191.039 387.119,188.459 387.129,188.300 387.276,185.879 387.402,183.299 387.498,180.719 387.564,178.139 387.601,175.558 387.610,172.978 387.589,170.398 387.540,167.818 387.462,165.238 387.357,162.658 387.224,160.078 387.129,158.558 387.062,157.497 386.870,154.917 386.651,152.337 386.405,149.757 386.131,147.177 385.831,144.597 385.505,142.016 385.152,139.436 385.122,139.234 384.766,136.856 384.353,134.276 383.914,131.696 383.450,129.116 383.115,127.356 382.957,126.536 382.431,123.955 381.879,121.375 381.302,118.795 381.109,117.966 380.692,116.215 380.052,113.635 379.387,111.055 379.102,109.988 378.689,108.474 377.960,105.894 377.206,103.314 377.095,102.947 376.413,100.734 375.593,98.154 375.088,96.612 374.742,95.574 373.854,92.994 373.082,90.809 372.939,90.413 371.982,87.833 371.075,85.448 370.999,85.253 369.971,82.673 369.068,80.459 368.916,80.093 367.815,77.513 367.061,75.786 366.681,74.933 365.506,72.352 365.054,71.384 364.288,69.772 363.048,67.217 363.035,67.192 361.728,64.612 361.041,63.282 360.381,62.032 359.034,59.529 358.991,59.452 357.544,56.871 357.027,55.968 356.047,54.291 355.020,52.566 354.500,51.711 353.014,49.311 352.899,49.131 351.234,46.551 351.007,46.205 349.504,43.971 349.000,43.233 347.710,41.391 346.993,40.385 345.845,38.810 344.987,37.653 343.904,36.230 342.980,35.034 341.882,33.650 340.973,32.522 339.772,31.070 338.966,30.111 337.567,28.490 336.959,27.797 335.258,25.910 334.953,25.576 332.946,23.446 332.833,23.330 330.939,21.408 330.270,20.749 328.932,19.453 327.566,18.169 326.926,17.576 324.919,15.778 324.700,15.589 322.912,14.065 321.629,13.009 320.905,12.422 318.898,10.853 318.334,10.429 316.892,9.360 314.885,7.931 314.764,7.849 312.878,6.581 310.871,5.290 310.836,5.268 308.864,4.078 306.858,2.923 306.427,2.688 304.851,1.841 302.844,0.821 301.354,0.108 300.837,-0.136 298.831,-1.023 296.824,-1.851 295.200,-2.472 294.817,-2.617 292.810,-3.313 290.803,-3.948 288.797,-4.524 286.790,-5.037 286.724,-5.052 284.783,-5.482 282.776,-5.864 280.769,-6.183 278.763,-6.439 276.756,-6.632 274.749,-6.759 272.742,-6.821 270.736,-6.817 268.729,-6.745 266.722,-6.606 264.715,-6.398 262.708,-6.121 260.702,-5.773 258.695,-5.355 257.456,-5.052 256.688,-4.860 254.681,-4.286 252.674,-3.637 250.668,-2.911 249.568,-2.472 248.661,-2.102 246.654,-1.204 244.647,-0.225 244.014,0.108 242.641,0.849 240.634,2.015 239.552,2.688 238.627,3.278 236.620,4.644 235.758,5.268 234.613,6.118 232.607,7.698 232.425,7.849 230.600,9.406 229.463,10.429 228.593,11.233 226.767,13.009 226.586,13.189 224.580,15.293 224.310,15.589 222.573,17.551 222.049,18.169 220.566,19.972 219.953,20.749 218.559,22.572 218.003,23.330 216.552,25.366 216.180,25.910 214.546,28.375 214.472,28.490 212.877,31.070 212.539,31.635 211.377,33.650 210.532,35.167 209.960,36.230 208.623,38.810 208.525,39.005 207.371,41.391 206.518,43.222 206.181,43.971 205.063,46.551 204.512,47.876 204.006,49.131 203.008,51.711 202.505,53.070 202.066,54.291 201.180,56.871 200.498,58.953 200.340,59.452 199.557,62.032 198.814,64.612 198.491,65.792 198.119,67.192 197.471,69.772 196.859,72.352 196.485,74.034 196.290,74.933 195.764,77.513 195.275,80.093 194.820,82.673 194.478,84.772 194.401,85.253 194.024,87.833 193.680,90.413 193.368,92.994 193.089,95.574 192.842,98.154 192.627,100.734 192.471,102.916 "
       id="polyline83"
       style="fill:none;stroke:#b4b4b4;stroke-width:1pt;stroke-opacity:1;stroke-dasharray:none"
       transform="matrix(0,1.0770386,-1.0770386,0,720.27106,253.23685)" />
    <polyline
       points="178.423,99.160 178.337,100.734 178.221,103.314 178.131,105.894 178.067,108.474 178.028,111.055 178.015,113.635 178.028,116.215 178.065,118.795 178.127,121.375 178.214,123.955 178.325,126.536 178.423,128.405 178.461,129.116 178.624,131.696 178.810,134.276 179.021,136.856 179.255,139.436 179.514,142.016 179.795,144.597 180.100,147.177 180.428,149.757 180.430,149.776 180.785,152.337 181.165,154.917 181.568,157.497 181.994,160.078 182.437,162.629 182.442,162.658 182.921,165.238 183.423,167.818 183.947,170.398 184.444,172.744 184.494,172.978 185.073,175.558 185.674,178.139 186.296,180.719 186.451,181.335 186.950,183.299 187.628,185.879 188.328,188.459 188.457,188.920 189.061,191.039 189.818,193.619 190.464,195.760 190.599,196.200 191.414,198.780 192.250,201.360 192.471,202.022 193.120,203.940 194.016,206.520 194.478,207.817 194.942,209.100 195.898,211.681 196.485,213.226 196.884,214.261 197.902,216.841 198.491,218.303 198.950,219.421 200.031,222.001 200.498,223.092 201.147,224.581 202.293,227.161 202.505,227.629 203.480,229.742 204.512,231.937 204.696,232.322 205.955,234.902 206.518,236.037 207.250,237.482 208.525,239.959 208.579,240.062 209.958,242.642 210.532,243.700 211.375,245.222 212.539,247.290 212.833,247.803 214.338,250.383 214.546,250.734 215.894,252.963 216.552,254.036 217.497,255.543 218.559,257.214 219.150,258.123 220.566,260.272 220.856,260.703 222.573,263.218 222.619,263.284 224.445,265.864 224.580,266.051 226.335,268.444 226.586,268.781 228.293,271.024 228.593,271.414 230.321,273.604 230.600,273.952 232.427,276.184 232.607,276.401 234.613,278.764 234.614,278.764 236.620,281.039 236.897,281.345 238.627,283.233 239.277,283.925 240.634,285.349 241.763,286.505 242.641,287.391 244.363,289.085 244.647,289.361 246.654,291.255 247.101,291.665 248.661,293.078 249.988,294.245 250.668,294.835 252.674,296.526 253.042,296.826 254.681,298.146 256.296,299.406 256.688,299.708 258.695,301.201 259.788,301.986 260.702,302.634 262.708,304.006 263.560,304.566 264.715,305.317 266.722,306.569 267.687,307.146 268.729,307.762 270.736,308.895 272.276,309.726 272.742,309.975 274.749,310.991 276.756,311.956 277.526,312.306 278.763,312.862 280.769,313.711 282.776,314.508 283.799,314.887 284.783,315.247 286.790,315.929 288.797,316.557 290.803,317.133 292.088,317.467 292.810,317.652 294.817,318.113 296.824,318.519 298.831,318.871 300.837,319.168 302.844,319.409 304.851,319.593 306.858,319.721 308.864,319.792 310.871,319.804 312.878,319.758 314.885,319.652 316.892,319.487 318.898,319.261 320.905,318.974 322.912,318.626 324.919,318.215 326.926,317.741 327.949,317.467 328.932,317.198 330.939,316.586 332.946,315.908 334.953,315.163 335.636,314.887 336.959,314.341 338.966,313.444 340.973,312.478 341.305,312.306 342.980,311.425 344.987,310.296 345.938,309.726 346.993,309.081 349.000,307.779 349.924,307.146 351.007,306.387 353.014,304.903 353.448,304.566 355.020,303.316 356.612,301.986 357.027,301.631 359.034,299.835 359.493,299.406 361.041,297.922 362.137,296.826 363.048,295.892 364.588,294.245 365.054,293.735 366.870,291.665 367.061,291.442 369.001,289.085 369.068,289.002 370.997,286.505 371.075,286.402 372.874,283.925 373.082,283.630 374.642,281.345 375.088,280.672 376.312,278.764 377.095,277.509 377.895,276.184 379.102,274.124 379.397,273.604 380.819,271.024 381.109,270.482 382.166,268.444 383.115,266.551 383.450,265.864 384.668,263.284 385.122,262.288 385.825,260.703 386.929,258.123 387.129,257.640 387.973,255.543 388.972,252.963 389.136,252.523 389.914,250.383 390.815,247.803 391.143,246.826 391.667,245.222 392.476,242.642 393.149,240.395 393.247,240.062 393.969,237.482 394.658,234.902 395.156,232.941 395.310,232.322 395.919,229.742 396.495,227.161 397.040,224.581 397.163,223.967 397.546,222.001 398.018,219.421 398.460,216.841 398.873,214.261 399.170,212.257 399.253,211.681 399.599,209.100 399.917,206.520 400.206,203.940 400.467,201.360 400.700,198.780 400.906,196.200 401.084,193.619 401.177,192.040 401.234,191.039 401.356,188.459 401.451,185.879 401.521,183.299 401.565,180.719 401.584,178.139 401.577,175.558 401.545,172.978 401.489,170.398 401.407,167.818 401.301,165.238 401.177,162.758 401.171,162.658 401.014,160.078 400.833,157.497 400.628,154.917 400.399,152.337 400.146,149.757 399.870,147.177 399.570,144.597 399.247,142.016 399.170,141.440 398.897,139.436 398.521,136.856 398.123,134.276 397.703,131.696 397.259,129.116 397.163,128.582 396.787,126.536 396.290,123.955 395.771,121.375 395.230,118.795 395.156,118.458 394.658,116.215 394.062,113.635 393.444,111.055 393.149,109.868 392.798,108.474 392.124,105.894 391.429,103.314 391.143,102.285 390.704,100.734 389.952,98.154 389.178,95.574 389.136,95.436 388.369,92.994 387.537,90.413 387.129,89.180 386.676,87.833 385.785,85.253 385.122,83.381 384.868,82.673 383.916,80.093 383.115,77.970 382.940,77.513 381.926,74.933 381.109,72.894 380.888,72.352 379.811,69.772 379.102,68.108 378.705,67.192 377.564,64.612 377.095,63.574 376.387,62.032 375.179,59.452 375.088,59.261 373.927,56.871 373.082,55.163 372.643,54.291 371.319,51.711 371.075,51.244 369.951,49.131 369.068,47.500 368.545,46.551 367.098,43.971 367.061,43.906 365.599,41.391 365.054,40.469 364.055,38.810 363.048,37.164 362.465,36.230 361.041,33.984 360.825,33.650 359.130,31.070 359.034,30.925 357.376,28.490 357.027,27.985 355.563,25.910 355.020,25.152 353.687,23.330 353.014,22.422 351.746,20.749 351.007,19.789 349.733,18.169 349.000,17.250 347.645,15.589 346.993,14.802 345.475,13.009 344.987,12.440 343.219,10.429 342.980,10.161 340.973,7.964 340.865,7.849 338.966,5.849 338.400,5.268 336.959,3.809 335.822,2.688 334.953,1.842 333.122,0.108 332.946,-0.057 330.939,-1.879 330.267,-2.472 328.932,-3.634 327.254,-5.052 326.926,-5.326 324.919,-6.947 324.042,-7.632 322.912,-8.505 320.905,-10.003 320.615,-10.212 318.898,-11.433 316.917,-12.793 316.892,-12.810 314.885,-14.116 312.878,-15.373 312.878,-15.373 310.871,-16.560 308.864,-17.698 308.392,-17.953 306.858,-18.772 304.851,-19.792 303.314,-20.533 302.844,-20.757 300.837,-21.660 298.831,-22.512 297.321,-23.113 296.824,-23.309 294.817,-24.045 292.810,-24.729 290.803,-25.360 289.642,-25.693 288.797,-25.934 286.790,-26.449 284.783,-26.911 282.776,-27.319 280.769,-27.672 278.763,-27.970 276.756,-28.212 276.088,-28.273 274.749,-28.395 272.742,-28.522 270.736,-28.591 268.729,-28.604 266.722,-28.558 264.715,-28.454 262.708,-28.290 262.555,-28.273 260.702,-28.064 258.695,-27.776 256.688,-27.426 254.681,-27.014 252.674,-26.538 250.668,-25.998 249.654,-25.693 248.661,-25.389 246.654,-24.708 244.647,-23.960 242.641,-23.144 242.571,-23.113 240.634,-22.245 238.627,-21.275 237.197,-20.533 236.620,-20.227 234.613,-19.094 232.718,-17.953 232.607,-17.884 230.600,-16.578 228.852,-15.373 228.593,-15.190 226.586,-13.701 225.425,-12.793 224.580,-12.117 222.573,-10.432 222.323,-10.212 220.566,-8.632 219.503,-7.632 218.559,-6.723 216.899,-5.052 216.552,-4.695 214.546,-2.539 214.486,-2.472 212.539,-0.241 212.246,0.108 210.532,2.202 210.148,2.688 208.525,4.801 208.179,5.268 206.518,7.569 206.324,7.849 204.574,10.429 204.512,10.524 202.926,13.009 202.505,13.689 201.365,15.589 200.498,17.079 199.883,18.169 198.491,20.713 198.472,20.749 197.143,23.330 196.485,24.651 195.875,25.910 194.667,28.490 194.478,28.909 193.526,31.070 192.471,33.555 192.432,33.650 191.402,36.230 190.464,38.673 190.413,38.810 189.483,41.391 188.590,43.971 188.457,44.370 187.750,46.551 186.950,49.131 186.451,50.810 186.190,51.711 185.475,54.291 184.794,56.871 184.444,58.263 184.152,59.452 183.550,62.032 182.981,64.612 182.443,67.192 182.437,67.221 181.946,69.772 181.481,72.352 181.045,74.933 180.640,77.513 180.430,78.950 180.267,80.093 179.928,82.673 179.616,85.253 179.334,87.833 179.079,90.413 178.852,92.994 178.652,95.574 178.480,98.154 178.423,99.160 "
       id="polyline89"
       style="fill:none;stroke:#b4b4b4;stroke-width:1pt;stroke-opacity:1;stroke-dasharray:none"
       transform="matrix(0,1.0770386,-1.0770386,0,720.27106,253.23685)" />
    <polyline
       points="164.376,95.679 164.267,98.154 164.177,100.734 164.110,103.314 164.065,105.894 164.044,108.474 164.045,111.055 164.068,113.635 164.113,116.215 164.180,118.795 164.270,121.375 164.376,123.850 164.381,123.955 164.515,126.536 164.672,129.116 164.849,131.696 165.049,134.276 165.269,136.856 165.511,139.436 165.773,142.016 166.057,144.597 166.360,147.177 166.383,147.354 166.690,149.757 167.040,152.337 167.411,154.917 167.802,157.497 168.213,160.078 168.390,161.132 168.648,162.658 169.107,165.238 169.586,167.818 170.084,170.398 170.396,171.952 170.605,172.978 171.152,175.558 171.718,178.139 172.304,180.719 172.403,181.140 172.918,183.299 173.553,185.879 174.207,188.459 174.410,189.235 174.888,191.039 175.593,193.619 176.316,196.200 176.417,196.549 177.069,198.780 177.844,201.360 178.423,203.245 178.640,203.940 179.466,206.520 180.312,209.100 180.430,209.454 181.188,211.681 182.086,214.261 182.437,215.247 183.013,216.841 183.964,219.421 184.444,220.695 184.943,222.001 185.950,224.581 186.451,225.841 186.984,227.161 188.046,229.742 188.457,230.721 189.139,232.322 190.259,234.902 190.464,235.367 191.414,237.482 192.471,239.799 192.593,240.062 193.811,242.642 194.478,244.032 195.058,245.222 196.337,247.803 196.485,248.095 197.656,250.383 198.491,251.989 199.006,252.963 200.391,255.543 200.498,255.739 201.821,258.123 202.505,259.340 203.285,260.703 204.512,262.816 204.788,263.284 206.334,265.864 206.518,266.166 207.928,268.444 208.525,269.397 209.564,271.024 210.532,272.519 211.247,273.604 212.539,275.538 212.978,276.184 214.546,278.458 214.761,278.764 216.552,281.282 216.597,281.345 218.493,283.925 218.559,284.013 220.450,286.505 220.566,286.656 222.469,289.085 222.573,289.216 224.556,291.665 224.580,291.694 226.586,294.093 226.717,294.245 228.593,296.414 228.957,296.826 230.600,298.663 231.279,299.406 232.607,300.840 233.691,301.986 234.613,302.949 236.198,304.566 236.620,304.992 238.627,306.969 238.811,307.146 240.634,308.877 241.550,309.726 242.641,310.725 244.412,312.306 244.647,312.514 246.654,314.238 247.430,314.887 248.661,315.904 250.605,317.467 250.668,317.517 252.674,319.064 253.987,320.047 254.681,320.561 256.688,322.001 257.591,322.627 258.695,323.385 260.702,324.718 261.466,325.207 262.708,325.995 264.715,327.221 265.679,327.787 266.722,328.394 268.729,329.515 270.321,330.367 270.736,330.587 272.742,331.604 274.749,332.575 275.558,332.948 276.756,333.493 278.763,334.361 280.769,335.183 281.664,335.528 282.776,335.952 284.783,336.671 286.790,337.343 288.797,337.969 289.282,338.108 290.803,338.540 292.810,339.063 294.817,339.538 296.824,339.965 298.831,340.343 300.837,340.672 300.951,340.688 302.844,340.948 304.851,341.175 306.858,341.352 308.864,341.479 310.871,341.555 312.878,341.580 314.885,341.554 316.892,341.476 318.898,341.345 320.905,341.161 322.912,340.923 324.535,340.688 324.919,340.631 326.926,340.281 328.932,339.875 330.939,339.412 332.946,338.893 334.953,338.316 335.611,338.108 336.959,337.675 338.966,336.972 340.973,336.208 342.632,335.528 342.980,335.382 344.987,334.484 346.993,333.524 348.123,332.948 349.000,332.493 351.007,331.388 352.757,330.367 353.014,330.215 355.020,328.958 356.795,327.787 357.027,327.631 359.034,326.215 360.395,325.207 361.041,324.720 363.048,323.135 363.664,322.627 365.054,321.458 366.662,320.047 367.061,319.689 369.068,317.818 369.431,317.467 371.075,315.839 372.002,314.887 373.082,313.753 374.409,312.306 375.088,311.550 376.670,309.726 377.095,309.225 378.798,307.146 379.102,306.767 380.807,304.566 381.109,304.168 382.708,301.986 383.115,301.417 384.511,299.406 385.122,298.502 386.223,296.826 387.129,295.411 387.854,294.245 389.136,292.130 389.410,291.665 390.891,289.085 391.143,288.634 392.300,286.505 393.149,284.898 393.650,283.925 394.941,281.345 395.156,280.902 396.169,278.764 397.163,276.600 397.349,276.184 398.472,273.604 399.170,271.947 399.549,271.024 400.577,268.444 401.177,266.887 401.561,265.864 402.500,263.284 403.183,261.337 403.401,260.703 404.255,258.123 405.077,255.543 405.190,255.176 405.855,252.963 406.599,250.383 407.197,248.224 407.311,247.803 407.981,245.222 408.623,242.642 409.204,240.193 409.234,240.062 409.807,237.482 410.351,234.902 410.867,232.322 411.210,230.512 411.353,229.742 411.807,227.161 412.233,224.581 412.633,222.001 413.007,219.421 413.217,217.863 413.352,216.841 413.669,214.261 413.960,211.681 414.226,209.100 414.468,206.520 414.685,203.940 414.878,201.360 415.046,198.780 415.190,196.200 415.224,195.482 415.310,193.619 415.405,191.039 415.477,188.459 415.527,185.879 415.553,183.299 415.558,180.719 415.539,178.139 415.499,175.558 415.436,172.978 415.352,170.398 415.246,167.818 415.224,167.375 415.117,165.238 414.965,162.658 414.792,160.078 414.597,157.497 414.382,154.917 414.145,152.337 413.887,149.757 413.608,147.177 413.309,144.597 413.217,143.858 412.985,142.016 412.640,139.436 412.273,136.856 411.887,134.276 411.480,131.696 411.210,130.067 411.051,129.116 410.597,126.536 410.123,123.955 409.629,121.375 409.204,119.242 409.113,118.795 408.571,116.215 408.009,113.635 407.428,111.055 407.197,110.065 406.821,108.474 406.190,105.894 405.540,103.314 405.190,101.966 404.866,100.734 404.166,98.154 403.446,95.574 403.183,94.655 402.700,92.994 401.930,90.413 401.177,87.949 401.141,87.833 400.319,85.253 399.478,82.673 399.170,81.750 398.609,80.093 397.715,77.513 397.163,75.953 396.796,74.933 395.849,72.352 395.156,70.504 394.878,69.772 393.876,67.192 393.149,65.358 392.849,64.612 391.791,62.032 391.143,60.479 390.707,59.452 389.592,56.871 389.136,55.836 388.446,54.291 387.272,51.711 387.129,51.402 386.061,49.131 385.122,47.167 384.823,46.551 383.549,43.971 383.115,43.108 382.239,41.391 381.109,39.209 380.899,38.810 379.518,36.230 379.102,35.465 378.099,33.650 377.095,31.860 376.645,31.070 375.152,28.490 375.088,28.382 373.611,25.910 373.082,25.036 372.029,23.330 371.075,21.803 370.404,20.749 369.068,18.679 368.733,18.169 367.061,15.658 367.014,15.589 365.241,13.009 365.054,12.742 363.413,10.429 363.048,9.920 361.530,7.849 361.041,7.190 359.587,5.268 359.034,4.547 357.582,2.688 357.027,1.987 355.510,0.108 355.020,-0.491 353.367,-2.472 353.014,-2.891 351.150,-5.052 351.007,-5.216 349.000,-7.466 348.848,-7.632 346.993,-9.642 346.454,-10.212 344.987,-11.749 343.967,-12.793 342.980,-13.791 341.378,-15.373 340.973,-15.768 338.966,-17.679 338.672,-17.953 336.959,-19.525 335.833,-20.533 334.953,-21.312 332.946,-23.041 332.860,-23.113 330.939,-24.704 329.711,-25.693 328.932,-26.314 326.926,-27.866 326.383,-28.273 324.919,-29.360 322.912,-30.804 322.840,-30.854 320.905,-32.185 319.029,-33.434 318.898,-33.520 316.892,-34.794 314.901,-36.014 314.885,-36.024 312.878,-37.193 310.871,-38.317 310.354,-38.594 308.864,-39.385 306.858,-40.405 305.271,-41.174 304.851,-41.376 302.844,-42.292 300.837,-43.162 299.394,-43.754 298.831,-43.983 296.824,-44.751 294.817,-45.472 292.810,-46.146 292.205,-46.335 290.803,-46.767 288.797,-47.339 286.790,-47.863 284.783,-48.339 282.776,-48.767 281.996,-48.915 280.769,-49.144 278.763,-49.469 276.756,-49.746 274.749,-49.974 272.742,-50.151 270.736,-50.278 268.729,-50.355 266.722,-50.380 264.715,-50.354 262.708,-50.275 260.702,-50.144 258.695,-49.959 256.688,-49.721 254.681,-49.429 252.674,-49.082 251.837,-48.915 250.668,-48.677 248.661,-48.213 246.654,-47.692 244.647,-47.113 242.641,-46.476 242.230,-46.335 240.634,-45.773 238.627,-45.007 236.620,-44.181 235.655,-43.754 234.613,-43.286 232.607,-42.322 230.600,-41.294 230.378,-41.174 228.593,-40.188 226.586,-39.013 225.908,-38.594 224.580,-37.759 222.573,-36.429 221.975,-36.014 220.566,-35.015 218.559,-33.522 218.445,-33.434 216.552,-31.934 215.249,-30.854 214.546,-30.259 212.539,-28.490 212.303,-28.273 210.532,-26.616 209.585,-25.693 208.525,-24.639 207.048,-23.113 206.518,-22.554 204.672,-20.533 204.512,-20.354 202.505,-18.028 202.442,-17.953 200.498,-15.568 200.344,-15.373 198.491,-12.969 198.359,-12.793 196.485,-10.221 196.479,-10.212 194.698,-7.632 194.478,-7.305 193.006,-5.052 192.471,-4.212 191.395,-2.472 190.464,-0.928 189.857,0.108 188.457,2.563 188.388,2.688 186.994,5.268 186.451,6.302 185.660,7.849 184.444,10.296 184.379,10.429 183.165,13.009 182.437,14.603 181.998,15.589 180.884,18.169 180.430,19.253 179.819,20.749 178.800,23.330 178.423,24.313 177.827,25.910 176.896,28.490 176.417,29.866 176.007,31.070 175.159,33.650 174.410,36.021 174.345,36.230 173.577,38.810 172.839,41.391 172.403,42.981 172.138,43.971 171.473,46.551 170.839,49.131 170.396,51.015 170.236,51.711 169.670,54.291 169.132,56.871 168.622,59.452 168.390,60.691 168.144,62.032 167.696,64.612 167.276,67.192 166.882,69.772 166.514,72.352 166.383,73.337 166.175,74.933 165.864,77.513 165.579,80.093 165.318,82.673 165.082,85.253 164.870,87.833 164.683,90.413 164.520,92.994 164.381,95.574 164.376,95.679 "
       id="polyline95"
       style="fill:none;stroke:#b4b4b4;stroke-width:1pt;stroke-opacity:1;stroke-dasharray:none"
       transform="matrix(0,1.0770386,-1.0770386,0,720.27106,253.23685)" />
    <polyline
       points="211.508,-54.075 210.532,-53.336 208.525,-51.754 208.209,-51.495 206.518,-50.084 205.169,-48.915 204.512,-48.334 202.505,-46.496 202.335,-46.335 200.498,-44.559 199.694,-43.754 198.491,-42.528 197.208,-41.174 196.485,-40.396 194.862,-38.594 194.478,-38.159 192.644,-36.014 192.471,-35.808 190.542,-33.434 190.464,-33.336 188.545,-30.854 188.457,-30.737 186.646,-28.273 186.451,-28.002 184.836,-25.693 184.444,-25.121 183.107,-23.113 182.437,-22.084 181.454,-20.533 180.430,-18.880 179.871,-17.953 178.423,-15.498 178.352,-15.373 176.903,-12.793 176.417,-11.905 175.512,-10.212 174.410,-8.098 174.173,-7.632 172.893,-5.052 172.403,-4.039 171.663,-2.472 170.478,0.108 170.396,0.290 169.347,2.688 168.390,4.940 168.253,5.268 167.210,7.849 166.383,9.956 166.201,10.429 165.239,13.009 164.376,15.398 164.308,15.589 163.423,18.169 162.567,20.749 162.369,21.365 161.751,23.330 160.967,25.910 160.362,27.972 160.214,28.490 159.498,31.070 158.809,33.650 158.356,35.417 158.151,36.230 157.527,38.810 156.928,41.391 156.355,43.971 156.349,44.001 155.817,46.551 155.304,49.131 154.815,51.711 154.351,54.291 154.342,54.344 153.918,56.871 153.509,59.452 153.124,62.032 152.762,64.612 152.424,67.192 152.335,67.915 152.112,69.772 151.824,72.352 151.558,74.933 151.315,77.513 151.094,80.093 150.894,82.673 150.717,85.253 150.561,87.833 150.427,90.413 150.329,92.654 150.314,92.994 150.223,95.574 150.154,98.154 150.104,100.734 150.076,103.314 150.067,105.894 150.079,108.474 150.111,111.055 150.163,113.635 150.234,116.215 150.325,118.795 150.329,118.870 150.438,121.375 150.570,123.955 150.721,126.536 150.892,129.116 151.082,131.696 151.291,134.276 151.520,136.856 151.767,139.436 152.033,142.016 152.318,144.597 152.335,144.746 152.625,147.177 152.951,149.757 153.296,152.337 153.659,154.917 154.041,157.497 154.342,159.441 154.442,160.078 154.866,162.658 155.308,165.238 155.768,167.818 156.246,170.398 156.349,170.933 156.747,172.978 157.268,175.558 157.807,178.139 158.356,180.681 158.364,180.719 158.947,183.299 159.547,185.879 160.165,188.459 160.362,189.262 160.806,191.039 161.469,193.619 162.148,196.200 162.369,197.016 162.853,198.780 163.577,201.360 164.320,203.940 164.376,204.131 165.090,206.520 165.878,209.100 166.383,210.717 166.688,211.681 167.523,214.261 168.375,216.841 168.390,216.885 169.257,219.421 170.156,222.001 170.396,222.676 171.083,224.581 172.031,227.161 172.403,228.155 173.005,229.742 174.002,232.322 174.410,233.358 175.026,234.902 176.073,237.482 176.417,238.315 177.148,240.062 178.246,242.642 178.423,243.052 179.376,245.222 180.430,247.587 180.528,247.803 181.714,250.383 182.437,251.933 182.924,252.963 184.164,255.543 184.444,256.117 185.437,258.123 186.451,260.143 186.736,260.703 188.069,263.284 188.457,264.024 189.436,265.864 190.464,267.770 190.833,268.444 192.265,271.024 192.471,271.390 193.736,273.604 194.478,274.886 195.240,276.184 196.485,278.275 196.781,278.764 198.361,281.345 198.491,281.555 199.985,283.925 200.498,284.730 201.649,286.505 202.505,287.809 203.356,289.085 204.512,290.797 205.108,291.665 206.518,293.696 206.906,294.245 208.525,296.511 208.754,296.826 210.532,299.243 210.654,299.406 212.539,301.895 212.609,301.986 214.546,304.471 214.621,304.566 216.552,306.972 216.694,307.146 218.559,309.402 218.832,309.726 220.566,311.762 221.039,312.306 222.573,314.055 223.317,314.887 224.580,316.282 225.672,317.467 226.586,318.447 228.109,320.047 228.593,320.550 230.600,322.594 230.633,322.627 232.607,324.573 233.264,325.207 234.613,326.495 235.997,327.787 236.620,328.363 238.627,330.176 238.844,330.367 240.634,331.929 241.829,332.948 242.641,333.632 244.647,335.283 244.953,335.528 246.654,336.878 248.246,338.108 248.661,338.426 250.668,339.919 251.730,340.688 252.674,341.365 254.681,342.762 255.432,343.268 256.688,344.108 258.695,345.409 259.396,345.848 260.702,346.659 262.708,347.864 263.682,348.429 264.715,349.022 266.722,350.132 268.366,351.009 268.729,351.200 270.736,352.217 272.742,353.193 273.594,353.589 274.749,354.121 276.756,355.004 278.763,355.845 279.576,356.169 280.769,356.639 282.776,357.388 284.783,358.095 286.758,358.749 286.790,358.759 288.797,359.374 290.803,359.947 292.810,360.476 294.817,360.963 296.478,361.329 296.824,361.405 298.831,361.800 300.837,362.151 302.844,362.458 304.851,362.720 306.858,362.938 308.864,363.111 310.871,363.239 312.878,363.320 314.885,363.356 316.892,363.345 318.898,363.287 320.905,363.182 322.912,363.029 324.919,362.828 326.926,362.579 328.932,362.280 330.939,361.933 332.946,361.535 333.871,361.329 334.953,361.085 336.959,360.580 338.966,360.024 340.973,359.415 342.980,358.755 342.995,358.749 344.987,358.031 346.993,357.254 349.000,356.421 349.571,356.169 351.007,355.525 353.014,354.569 354.955,353.589 355.020,353.555 357.027,352.470 359.034,351.325 359.563,351.009 361.041,350.109 363.048,348.827 363.644,348.429 365.054,347.470 367.061,346.044 367.325,345.848 369.068,344.535 370.681,343.268 371.075,342.954 373.082,341.286 373.774,340.688 375.088,339.533 376.650,338.108 377.095,337.694 379.102,335.762 379.337,335.528 381.109,333.729 381.853,332.948 383.115,331.596 384.226,330.367 385.122,329.356 386.470,327.787 387.129,327.005 388.597,325.207 389.136,324.533 390.616,322.627 391.143,321.934 392.536,320.047 393.149,319.199 394.367,317.467 395.156,316.319 396.115,314.887 397.163,313.284 397.786,312.306 399.170,310.083 399.386,309.726 400.915,307.146 401.177,306.695 402.378,304.566 403.183,303.104 403.784,301.986 405.136,299.406 405.190,299.300 406.426,296.826 407.197,295.239 407.669,294.245 408.862,291.665 409.204,290.906 410.005,289.085 411.109,286.505 411.210,286.261 412.161,283.925 413.180,281.345 413.217,281.248 414.150,278.764 415.088,276.184 415.224,275.800 415.983,273.604 416.845,271.024 417.231,269.832 417.671,268.444 418.461,265.864 419.223,263.284 419.238,263.234 419.945,260.703 420.640,258.123 421.244,255.789 421.307,255.543 421.937,252.963 422.541,250.383 423.120,247.803 423.251,247.190 423.666,245.222 424.184,242.642 424.678,240.062 425.148,237.482 425.258,236.845 425.588,234.902 426.002,232.322 426.392,229.742 426.759,227.161 427.103,224.581 427.265,223.281 427.421,222.001 427.714,219.421 427.985,216.841 428.233,214.261 428.459,211.681 428.663,209.100 428.845,206.520 429.006,203.940 429.145,201.360 429.263,198.780 429.271,198.555 429.358,196.200 429.433,193.619 429.486,191.039 429.520,188.459 429.533,185.879 429.525,183.299 429.498,180.719 429.451,178.139 429.383,175.558 429.297,172.978 429.271,172.369 429.189,170.398 429.061,167.818 428.914,165.238 428.748,162.658 428.562,160.078 428.357,157.497 428.133,154.917 427.890,152.337 427.628,149.757 427.347,147.177 427.265,146.466 427.045,144.597 426.723,142.016 426.382,139.436 426.023,136.856 425.645,134.276 425.258,131.749 425.250,131.696 424.830,129.116 424.392,126.536 423.936,123.955 423.462,121.375 423.251,120.271 422.966,118.795 422.449,116.215 421.914,113.635 421.361,111.055 421.244,110.526 420.784,108.474 420.188,105.894 419.574,103.314 419.238,101.940 418.938,100.734 418.280,98.154 417.604,95.574 417.231,94.185 416.906,92.994 416.185,90.413 415.447,87.833 415.224,87.074 414.683,85.253 413.899,82.673 413.217,80.479 413.096,80.093 412.264,77.513 411.416,74.933 411.210,74.320 410.541,72.352 409.645,69.772 409.204,68.526 408.725,67.192 407.781,64.612 407.197,63.045 406.814,62.032 405.821,59.452 405.190,57.842 404.805,56.871 403.761,54.291 403.183,52.886 402.693,51.711 401.599,49.131 401.177,48.151 400.477,46.551 399.331,43.971 399.170,43.614 398.151,41.391 397.163,39.264 396.949,38.810 395.713,36.230 395.156,35.085 394.449,33.650 393.158,31.070 393.149,31.053 391.828,28.490 391.143,27.177 390.470,25.910 389.136,23.427 389.083,23.330 387.655,20.749 387.129,19.812 386.193,18.169 385.122,16.313 384.698,15.589 383.167,13.009 383.115,12.923 381.592,10.429 381.109,9.648 379.978,7.849 379.102,6.471 378.324,5.268 377.095,3.390 376.628,2.688 375.088,0.401 374.888,0.108 373.101,-2.472 373.082,-2.500 371.262,-5.052 371.075,-5.311 369.372,-7.632 369.068,-8.041 367.428,-10.212 367.061,-10.693 365.429,-12.793 365.054,-13.269 363.370,-15.373 363.048,-15.771 361.249,-17.953 361.041,-18.202 359.061,-20.533 359.034,-20.565 357.027,-22.857 356.798,-23.113 355.020,-25.083 354.459,-25.693 353.014,-27.247 352.039,-28.273 351.007,-29.349 349.532,-30.854 349.000,-31.391 346.993,-33.375 346.933,-33.434 344.987,-35.296 344.219,-36.014 342.980,-37.162 341.398,-38.594 340.973,-38.975 338.966,-40.731 338.447,-41.174 336.959,-42.431 335.355,-43.754 334.953,-44.083 332.946,-45.679 332.099,-46.335 330.939,-47.224 328.932,-48.722 328.666,-48.915 326.926,-50.164 325.019,-51.495 324.919,-51.564 322.912,-52.908 321.115,-54.075 "
       id="polyline101"
       style="fill:none;stroke:#b4b4b4;stroke-width:1pt;stroke-opacity:1;stroke-dasharray:none"
       transform="matrix(0,1.0770386,-1.0770386,0,720.27106,253.23685)" />
    <polyline
       points="182.846,-54.075 182.437,-53.584 180.743,-51.495 180.430,-51.101 178.737,-48.915 178.423,-48.502 176.819,-46.335 176.417,-45.780 174.984,-43.754 174.410,-42.927 173.224,-41.174 172.403,-39.935 171.536,-38.594 170.396,-36.795 169.913,-36.014 168.390,-33.497 168.352,-33.434 166.857,-30.854 166.383,-30.017 165.417,-28.273 164.376,-26.352 164.027,-25.693 162.691,-23.113 162.369,-22.478 161.406,-20.533 160.362,-18.375 160.162,-17.953 158.969,-15.373 158.356,-14.012 157.817,-12.793 156.705,-10.212 156.349,-9.364 155.636,-7.632 154.602,-5.052 154.342,-4.386 153.609,-2.472 152.649,0.108 152.335,0.975 151.727,2.688 150.837,5.268 150.329,6.786 149.979,7.849 149.156,10.429 148.359,13.009 148.322,13.133 147.599,15.589 146.865,18.169 146.315,20.170 146.158,20.749 145.485,23.330 144.835,25.910 144.308,28.081 144.211,28.490 143.618,31.070 143.048,33.650 142.502,36.230 142.301,37.217 141.983,38.810 141.490,41.391 141.019,43.971 140.570,46.551 140.295,48.212 140.145,49.131 139.746,51.711 139.368,54.291 139.011,56.871 138.675,59.452 138.360,62.032 138.288,62.667 138.069,64.612 137.800,67.192 137.551,69.772 137.322,72.352 137.112,74.933 136.923,77.513 136.753,80.093 136.603,82.673 136.473,85.253 136.362,87.833 136.281,90.098 136.270,90.413 136.198,92.994 136.145,95.574 136.111,98.154 136.095,100.734 136.097,103.314 136.118,105.894 136.157,108.474 136.213,111.055 136.281,113.382 136.288,113.635 136.382,116.215 136.494,118.795 136.624,121.375 136.772,123.955 136.937,126.536 137.120,129.116 137.320,131.696 137.537,134.276 137.772,136.856 138.024,139.436 138.288,141.968 138.293,142.016 138.583,144.597 138.889,147.177 139.213,149.757 139.553,152.337 139.910,154.917 140.284,157.497 140.295,157.569 140.679,160.078 141.091,162.658 141.520,165.238 141.965,167.818 142.301,169.700 142.428,170.398 142.912,172.978 143.412,175.558 143.928,178.139 144.308,179.978 144.463,180.719 145.019,183.299 145.591,185.879 146.179,188.459 146.315,189.039 146.789,191.039 147.418,193.619 148.062,196.200 148.322,197.215 148.727,198.780 149.412,201.360 150.113,203.940 150.329,204.717 150.836,206.520 151.578,209.100 152.335,211.681 152.335,211.681 153.119,214.261 153.919,216.841 154.342,218.180 154.739,219.421 155.581,222.001 156.349,224.310 156.440,224.581 157.326,227.161 158.226,229.742 158.356,230.105 159.154,232.322 160.099,234.902 160.362,235.610 161.069,237.482 162.058,240.062 162.369,240.860 163.073,242.642 164.108,245.222 164.376,245.881 165.169,247.803 166.250,250.383 166.383,250.695 167.360,252.963 168.390,255.319 168.489,255.543 169.649,258.123 170.396,259.764 170.830,260.703 172.038,263.284 172.403,264.052 173.275,265.864 174.410,268.192 174.534,268.444 175.826,271.024 176.417,272.188 177.145,273.604 178.423,276.061 178.489,276.184 179.868,278.764 180.430,279.802 181.277,281.345 182.437,283.434 182.713,283.925 184.184,286.505 184.444,286.954 185.691,289.085 186.451,290.369 187.229,291.665 188.457,293.688 188.801,294.245 190.409,296.826 190.464,296.913 192.059,299.406 192.471,300.043 193.747,301.986 194.478,303.087 195.474,304.566 196.485,306.050 197.242,307.146 198.491,308.933 199.054,309.726 200.498,311.740 200.911,312.306 202.505,314.471 202.815,314.887 204.512,317.131 204.770,317.467 206.518,319.720 206.776,320.047 208.525,322.242 208.837,322.627 210.532,324.697 210.956,325.207 212.539,327.089 213.136,327.787 214.546,329.419 215.380,330.367 216.552,331.688 217.691,332.948 218.559,333.899 220.073,335.528 220.566,336.053 222.531,338.108 222.573,338.151 224.580,340.190 225.079,340.688 226.586,342.176 227.715,343.268 228.593,344.111 230.442,345.848 230.600,345.995 232.607,347.824 233.284,348.429 234.613,349.604 236.236,351.009 236.620,351.338 238.627,353.020 239.322,353.589 240.634,354.654 242.544,356.169 242.641,356.245 244.647,357.783 245.939,358.749 246.654,359.279 248.661,360.729 249.515,361.329 250.668,362.133 252.674,363.495 253.303,363.909 254.681,364.810 256.688,366.085 257.345,366.490 258.695,367.314 260.702,368.502 261.693,369.070 262.708,369.647 264.715,370.749 266.413,371.650 266.722,371.812 268.729,372.829 270.736,373.809 271.633,374.230 272.742,374.746 274.749,375.641 276.756,376.498 277.520,376.810 278.763,377.313 280.769,378.086 282.776,378.821 284.416,379.390 284.783,379.517 286.790,380.168 288.797,380.781 290.803,381.355 292.810,381.891 293.134,381.970 294.817,382.382 296.824,382.834 298.831,383.246 300.837,383.619 302.844,383.951 304.851,384.243 306.858,384.495 307.388,384.551 308.864,384.704 310.871,384.872 312.878,384.999 314.885,385.084 316.892,385.128 318.898,385.129 320.905,385.089 322.912,385.006 324.919,384.880 326.926,384.711 328.437,384.551 328.932,384.497 330.939,384.238 332.946,383.934 334.953,383.584 336.959,383.190 338.966,382.749 340.973,382.262 342.074,381.970 342.980,381.727 344.987,381.140 346.993,380.505 349.000,379.823 350.188,379.390 351.007,379.088 353.014,378.298 355.020,377.459 356.484,376.810 357.027,376.566 359.034,375.614 361.041,374.609 361.763,374.230 363.048,373.545 365.054,372.421 366.371,371.650 367.061,371.239 369.068,369.992 370.490,369.070 371.075,368.684 373.082,367.308 374.228,366.490 375.088,365.866 377.095,364.354 377.664,363.909 379.102,362.768 380.849,361.329 381.109,361.112 383.115,359.374 383.814,358.749 385.122,357.557 386.597,356.169 387.129,355.660 389.136,353.676 389.222,353.589 391.143,351.597 391.694,351.009 393.149,349.426 394.040,348.429 395.156,347.156 396.271,345.848 397.163,344.782 398.396,343.268 399.170,342.299 400.423,340.688 401.177,339.700 402.360,338.108 403.183,336.978 404.214,335.528 405.190,334.126 405.991,332.948 407.197,331.136 407.696,330.367 409.204,327.998 409.334,327.787 410.905,325.207 411.210,324.694 412.414,322.627 413.217,321.216 413.868,320.047 415.224,317.556 415.271,317.467 416.615,314.887 417.231,313.676 417.913,312.306 419.167,309.726 419.238,309.578 420.368,307.146 421.244,305.214 421.532,304.566 422.650,301.986 423.251,300.563 423.730,299.406 424.771,296.826 425.258,295.585 425.773,294.245 426.740,291.665 427.265,290.224 427.672,289.085 428.568,286.505 429.271,284.417 429.434,283.925 430.263,281.345 431.066,278.764 431.278,278.061 431.834,276.184 432.574,273.604 433.285,271.037 433.289,271.024 433.968,268.444 434.623,265.864 435.254,263.284 435.292,263.123 435.852,260.703 436.427,258.123 436.979,255.543 437.299,253.983 437.504,252.963 438.003,250.383 438.479,247.803 438.932,245.222 439.305,242.995 439.363,242.642 439.768,240.062 440.150,237.482 440.512,234.902 440.852,232.322 441.171,229.742 441.312,228.527 441.468,227.161 441.742,224.581 441.996,222.001 442.229,219.421 442.443,216.841 442.637,214.261 442.811,211.681 442.965,209.100 443.100,206.520 443.215,203.940 443.311,201.360 443.319,201.108 443.388,198.780 443.445,196.200 443.483,193.619 443.504,191.039 443.505,188.459 443.489,185.879 443.454,183.299 443.401,180.719 443.330,178.139 443.319,177.823 443.240,175.558 443.132,172.978 443.006,170.398 442.863,167.818 442.701,165.238 442.522,162.658 442.326,160.078 442.112,157.497 441.882,154.917 441.633,152.337 441.368,149.757 441.312,149.244 441.083,147.177 440.780,144.597 440.461,142.016 440.124,139.436 439.771,136.856 439.401,134.276 439.305,133.641 439.010,131.696 438.602,129.116 438.177,126.536 437.736,123.955 437.299,121.492 437.278,121.375 436.797,118.795 436.301,116.215 435.788,113.635 435.292,111.216 435.258,111.055 434.706,108.474 434.138,105.894 433.553,103.314 433.285,102.164 432.948,100.734 432.323,98.154 431.683,95.574 431.278,93.985 431.023,92.994 430.342,90.413 429.645,87.833 429.271,86.484 428.927,85.253 428.189,82.673 427.435,80.093 427.265,79.525 426.656,77.513 425.860,74.933 425.258,73.018 425.046,72.352 424.207,69.772 423.353,67.192 423.251,66.890 422.472,64.612 421.575,62.032 421.244,61.098 420.654,59.452 419.713,56.871 419.238,55.592 418.749,54.291 417.763,51.711 417.231,50.341 416.755,49.131 415.724,46.551 415.224,45.321 414.669,43.971 413.592,41.391 413.217,40.508 412.488,38.810 411.364,36.230 411.210,35.882 410.210,33.650 409.204,31.434 409.036,31.070 407.831,28.490 407.197,27.149 406.602,25.910 405.349,23.330 405.190,23.008 404.062,20.749 403.183,19.011 402.752,18.169 401.412,15.589 401.177,15.141 400.039,13.009 399.170,11.398 398.640,10.429 397.211,7.849 397.163,7.764 395.744,5.268 395.156,4.247 394.246,2.688 393.149,0.830 392.717,0.108 391.154,-2.472 391.143,-2.491 389.550,-5.052 389.136,-5.710 387.909,-7.632 387.129,-8.841 386.231,-10.212 385.122,-11.888 384.514,-12.793 383.115,-14.852 382.756,-15.373 381.109,-17.736 380.955,-17.953 379.109,-20.533 379.102,-20.543 377.214,-23.113 377.095,-23.273 375.270,-25.693 375.088,-25.931 373.275,-28.273 373.082,-28.521 371.227,-30.854 371.075,-31.043 369.122,-33.434 369.068,-33.500 367.061,-35.891 366.957,-36.014 365.054,-38.220 364.726,-38.594 363.048,-40.489 362.429,-41.174 361.041,-42.699 360.061,-43.754 359.034,-44.851 357.619,-46.335 357.027,-46.949 355.097,-48.915 355.020,-48.992 353.014,-50.977 352.480,-51.495 351.007,-52.910 349.770,-54.075 "
       id="polyline107"
       style="fill:none;stroke:#b4b4b4;stroke-width:1pt;stroke-opacity:1;stroke-dasharray:none"
       transform="matrix(0,1.0770386,-1.0770386,0,720.27106,253.23685)" />
  </g>
  <g
     inkscape:groupmode="layer"
     id="layer3"
     inkscape:label="all"
     style="display:inline"
     transform="translate(-322.36751,-418.27203)">
    <polyline
       points="230.285,332.702 230.278,332.560 230.257,332.419 230.221,332.281 230.172,332.147 230.110,332.019 230.036,331.897 229.950,331.783 229.852,331.679 229.745,331.585 229.629,331.502 229.506,331.431 229.376,331.373 229.240,331.328 229.101,331.297 228.960,331.280 228.817,331.277 228.675,331.288 228.535,331.313 228.398,331.353 228.265,331.405 228.139,331.471 228.019,331.549 227.909,331.639 227.807,331.739 227.716,331.849 227.637,331.967 227.569,332.093 227.515,332.225 227.474,332.361 227.447,332.501 227.434,332.643 227.435,332.786 227.450,332.927 227.480,333.067 227.523,333.203 227.580,333.333 227.649,333.458 227.731,333.575 227.823,333.683 227.927,333.782 228.039,333.869 228.160,333.945 228.287,334.009 228.420,334.060 228.558,334.096 228.699,334.120 228.841,334.128 228.984,334.123 229.125,334.104 229.263,334.070 229.398,334.023 229.527,333.962 229.649,333.889 229.764,333.804 229.870,333.709 229.965,333.603 230.049,333.488 230.122,333.365 230.182,333.236 230.228,333.101 230.261,332.962 230.280,332.821 "
       id="polyline179"
       style="fill:#dd0f23;fill-opacity:1;stroke:none"
       transform="matrix(0,1.0770386,-1.0770386,0,720.27106,253.23685)" />
    <polyline
       points="228.859,332.702 330.734,230.827 "
       id="polyline183"
       style="fill:none;stroke:#dd0f23;stroke-width:2pt;stroke-dasharray:none"
       transform="matrix(0,1.0770386,-1.0770386,0,720.27106,253.23685)" />
    <polyline
       points="332.160,230.827 332.153,230.685 332.132,230.544 332.096,230.406 332.047,230.272 331.985,230.144 331.911,230.022 331.825,229.908 331.727,229.804 331.620,229.710 331.504,229.627 331.381,229.556 331.251,229.498 331.115,229.453 330.976,229.422 330.835,229.405 330.692,229.402 330.550,229.413 330.410,229.438 330.273,229.478 330.140,229.530 330.014,229.596 329.894,229.674 329.784,229.764 329.682,229.864 329.591,229.974 329.512,230.092 329.444,230.218 329.390,230.350 329.349,230.486 329.322,230.626 329.309,230.768 329.310,230.911 329.325,231.052 329.355,231.192 329.398,231.328 329.455,231.458 329.524,231.583 329.606,231.700 329.698,231.808 329.802,231.907 329.914,231.994 330.035,232.070 330.162,232.134 330.295,232.185 330.433,232.221 330.574,232.245 330.716,232.253 330.859,232.248 331.000,232.229 331.138,232.195 331.273,232.148 331.402,232.087 331.524,232.014 331.639,231.929 331.745,231.834 331.840,231.728 331.924,231.613 331.997,231.490 332.057,231.361 332.103,231.226 332.136,231.087 332.155,230.946 "
       id="polyline189"
       style="fill:#dd0f23;fill-opacity:1;stroke:none"
       transform="matrix(0,1.0770386,-1.0770386,0,720.27106,253.23685)" />
    <polyline
       points="330.734,230.827 290.870,146.670 "
       id="polyline193"
       style="fill:none;stroke:#dd0f23;stroke-width:2pt;stroke-dasharray:none"
       transform="matrix(0,1.0770386,-1.0770386,0,720.27106,253.23685)" />
    <polyline
       points="229.215,331.633 229.208,331.490 229.187,331.349 229.152,331.211 229.103,331.077 229.041,330.949 228.966,330.827 228.880,330.714 228.783,330.609 228.676,330.515 228.560,330.432 228.436,330.362 228.306,330.303 228.171,330.258 228.032,330.227 227.890,330.210 227.747,330.207 227.605,330.218 227.465,330.244 227.328,330.283 227.196,330.336 227.069,330.401 226.950,330.479 226.839,330.569 226.737,330.669 226.646,330.779 226.567,330.897 226.500,331.023 226.445,331.155 226.404,331.291 226.377,331.431 226.364,331.573 226.365,331.716 226.381,331.858 226.410,331.997 226.454,332.133 226.510,332.264 226.580,332.388 226.661,332.505 226.754,332.614 226.857,332.712 226.969,332.800 227.090,332.876 227.217,332.939 227.351,332.990 227.488,333.027 227.629,333.050 227.771,333.059 227.914,333.053 228.055,333.034 228.194,333.000 228.328,332.953 228.457,332.893 228.580,332.820 228.694,332.735 228.800,332.639 228.895,332.533 228.980,332.418 229.052,332.295 229.112,332.166 229.159,332.031 229.192,331.892 229.210,331.751 "
       id="polyline199"
       style="fill:#00c745;fill-opacity:1;stroke:none"
       transform="matrix(0,1.0770386,-1.0770386,0,720.27106,253.23685)" />
    <polyline
       points="227.789,331.633 329.664,229.758 "
       id="polyline203"
       style="fill:none;stroke:#00c745;stroke-width:2pt;stroke-dasharray:none"
       transform="matrix(0,1.0770386,-1.0770386,0,720.27106,253.23685)" />
    <polyline
       points="331.090,229.758 331.083,229.615 331.062,229.474 331.027,229.336 330.978,229.202 330.916,229.074 330.841,228.952 330.755,228.839 330.658,228.734 330.551,228.640 330.435,228.557 330.311,228.487 330.181,228.428 330.046,228.383 329.907,228.352 329.765,228.335 329.622,228.332 329.480,228.343 329.340,228.369 329.203,228.408 329.071,228.461 328.944,228.526 328.825,228.604 328.714,228.694 328.612,228.794 328.521,228.904 328.442,229.022 328.375,229.148 328.320,229.280 328.279,229.416 328.252,229.556 328.239,229.698 328.240,229.841 328.256,229.983 328.285,230.122 328.329,230.258 328.385,230.389 328.455,230.513 328.536,230.630 328.629,230.739 328.732,230.837 328.844,230.925 328.965,231.001 329.092,231.064 329.226,231.115 329.363,231.152 329.504,231.175 329.646,231.184 329.789,231.178 329.930,231.159 330.069,231.125 330.203,231.078 330.332,231.018 330.455,230.945 330.569,230.860 330.675,230.764 330.770,230.658 330.855,230.543 330.927,230.420 330.987,230.291 331.034,230.156 331.067,230.017 331.085,229.876 "
       id="polyline209"
       style="fill:#00c745;fill-opacity:1;stroke:none"
       transform="matrix(0,1.0770386,-1.0770386,0,720.27106,253.23685)" />
    <polyline
       points="329.664,229.758 278.727,178.820 "
       id="polyline213"
       style="fill:none;stroke:#00c745;stroke-width:2pt;stroke-dasharray:none"
       transform="matrix(0,1.0770386,-1.0770386,0,720.27106,253.23685)" />
    <polyline
       points="280.153,178.820 280.146,178.678 280.124,178.537 280.089,178.399 280.040,178.265 279.978,178.136 279.904,178.015 279.817,177.901 279.720,177.797 279.613,177.703 279.497,177.620 279.374,177.549 279.243,177.491 279.108,177.446 278.969,177.415 278.828,177.397 278.685,177.394 278.543,177.406 278.403,177.431 278.266,177.470 278.133,177.523 278.007,177.589 277.887,177.667 277.776,177.757 277.675,177.857 277.584,177.967 277.504,178.085 277.437,178.211 277.383,178.342 277.342,178.479 277.315,178.619 277.302,178.761 277.303,178.903 277.318,179.045 277.348,179.185 277.391,179.320 277.448,179.451 277.517,179.576 277.599,179.693 277.691,179.801 277.794,179.899 277.907,179.987 278.027,180.063 278.155,180.127 278.288,180.177 278.426,180.214 278.567,180.237 278.709,180.246 278.851,180.241 278.993,180.221 279.131,180.188 279.266,180.141 279.395,180.080 279.517,180.007 279.632,179.922 279.737,179.826 279.833,179.720 279.917,179.606 279.990,179.483 280.049,179.353 280.096,179.219 280.129,179.080 280.148,178.939 "
       id="polyline219"
       style="fill:#00c745;fill-opacity:1;stroke:none"
       transform="matrix(0,1.0770386,-1.0770386,0,720.27106,253.23685)" />
    <polyline
       points="278.727,178.820 296.919,160.628 "
       id="polyline223"
       style="fill:none;stroke:#00c745;stroke-width:2pt;stroke-dasharray:none"
       transform="matrix(0,1.0770386,-1.0770386,0,720.27106,253.23685)" />
    <polyline
       points="298.345,160.628 298.338,160.486 298.316,160.345 298.281,160.207 298.232,160.073 298.170,159.944 298.096,159.823 298.009,159.709 297.912,159.605 297.805,159.511 297.689,159.428 297.566,159.357 297.435,159.299 297.300,159.254 297.161,159.223 297.019,159.205 296.877,159.203 296.735,159.214 296.595,159.239 296.458,159.278 296.325,159.331 296.199,159.397 296.079,159.475 295.968,159.565 295.867,159.665 295.776,159.775 295.696,159.893 295.629,160.019 295.575,160.150 295.534,160.287 295.507,160.427 295.494,160.569 295.495,160.711 295.510,160.853 295.540,160.993 295.583,161.128 295.640,161.259 295.709,161.384 295.790,161.501 295.883,161.609 295.986,161.708 296.099,161.795 296.219,161.871 296.347,161.935 296.480,161.985 296.618,162.022 296.759,162.045 296.901,162.054 297.043,162.049 297.185,162.029 297.323,161.996 297.458,161.949 297.587,161.888 297.709,161.815 297.824,161.730 297.929,161.634 298.025,161.528 298.109,161.414 298.182,161.291 298.241,161.161 298.288,161.027 298.321,160.888 298.340,160.747 "
       id="polyline229"
       style="fill:#00c745;fill-opacity:1;stroke:none"
       transform="matrix(0,1.0770386,-1.0770386,0,720.27106,253.23685)" />
    <polyline
       points="296.919,160.628 287.823,151.532 "
       id="polyline233"
       style="fill:none;stroke:#00c745;stroke-width:2pt;stroke-dasharray:none"
       transform="matrix(0,1.0770386,-1.0770386,0,720.27106,253.23685)" />
    <polyline
       points="289.249,151.532 289.242,151.390 289.220,151.249 289.185,151.111 289.136,150.977 289.074,150.848 289.000,150.727 288.913,150.613 288.816,150.509 288.709,150.415 288.593,150.332 288.470,150.261 288.339,150.203 288.204,150.158 288.065,150.127 287.924,150.109 287.781,150.107 287.639,150.118 287.499,150.143 287.362,150.183 287.229,150.235 287.103,150.301 286.983,150.379 286.872,150.469 286.771,150.569 286.680,150.679 286.600,150.797 286.533,150.923 286.479,151.054 286.438,151.191 286.411,151.331 286.398,151.473 286.399,151.615 286.414,151.757 286.444,151.897 286.487,152.032 286.544,152.163 286.613,152.288 286.694,152.405 286.787,152.513 286.890,152.612 287.003,152.699 287.123,152.775 287.251,152.839 287.384,152.889 287.522,152.926 287.663,152.949 287.805,152.958 287.947,152.953 288.089,152.933 288.227,152.900 288.362,152.853 288.491,152.792 288.613,152.719 288.728,152.634 288.833,152.538 288.929,152.433 289.013,152.318 289.086,152.195 289.145,152.065 289.192,151.931 289.225,151.792 289.244,151.651 "
       id="polyline239"
       style="fill:#00c745;fill-opacity:1;stroke:none"
       transform="matrix(0,1.0770386,-1.0770386,0,720.27106,253.23685)" />
    <polyline
       points="287.823,151.532 291.071,148.284 "
       id="polyline243"
       style="fill:none;stroke:#00c745;stroke-width:2pt;stroke-dasharray:none"
       transform="matrix(0,1.0770386,-1.0770386,0,720.27106,253.23685)" />
    <polyline
       points="292.497,148.284 292.490,148.141 292.469,148.000 292.434,147.862 292.385,147.728 292.323,147.600 292.248,147.478 292.162,147.365 292.065,147.260 291.958,147.166 291.842,147.083 291.718,147.013 291.588,146.954 291.453,146.909 291.314,146.878 291.172,146.861 291.030,146.858 290.887,146.869 290.747,146.895 290.610,146.934 290.478,146.987 290.351,147.052 290.232,147.130 290.121,147.220 290.019,147.320 289.929,147.430 289.849,147.548 289.782,147.674 289.727,147.806 289.686,147.942 289.659,148.082 289.646,148.224 289.647,148.367 289.663,148.509 289.692,148.648 289.736,148.784 289.792,148.915 289.862,149.039 289.943,149.156 290.036,149.265 290.139,149.363 290.251,149.451 290.372,149.527 290.500,149.590 290.633,149.641 290.771,149.678 290.911,149.701 291.054,149.710 291.196,149.704 291.337,149.685 291.476,149.651 291.610,149.604 291.739,149.544 291.862,149.471 291.976,149.386 292.082,149.290 292.177,149.184 292.262,149.069 292.334,148.946 292.394,148.817 292.441,148.682 292.474,148.543 292.492,148.402 "
       id="polyline249"
       style="fill:#00c745;fill-opacity:1;stroke:none"
       transform="matrix(0,1.0770386,-1.0770386,0,720.27106,253.23685)" />
    <polyline
       points="291.071,148.284 289.447,146.659 "
       id="polyline253"
       style="fill:none;stroke:#00c745;stroke-width:2pt;stroke-dasharray:none"
       transform="matrix(0,1.0770386,-1.0770386,0,720.27106,253.23685)" />
    <polyline
       points="290.873,146.659 290.866,146.517 290.845,146.376 290.809,146.238 290.761,146.104 290.699,145.976 290.624,145.854 290.538,145.740 290.441,145.636 290.333,145.542 290.218,145.459 290.094,145.388 289.964,145.330 289.828,145.285 289.689,145.254 289.548,145.237 289.405,145.234 289.263,145.245 289.123,145.270 288.986,145.310 288.853,145.362 288.727,145.428 288.608,145.506 288.497,145.596 288.395,145.696 288.304,145.806 288.225,145.924 288.157,146.050 288.103,146.182 288.062,146.318 288.035,146.458 288.022,146.600 288.023,146.743 288.039,146.884 288.068,147.024 288.111,147.160 288.168,147.290 288.237,147.415 288.319,147.532 288.412,147.640 288.515,147.739 288.627,147.826 288.748,147.902 288.875,147.966 289.009,148.017 289.146,148.054 289.287,148.077 289.429,148.085 289.572,148.080 289.713,148.061 289.851,148.027 289.986,147.980 290.115,147.919 290.238,147.846 290.352,147.761 290.458,147.666 290.553,147.560 290.637,147.445 290.710,147.322 290.770,147.193 290.816,147.058 290.849,146.919 290.868,146.778 "
       id="polyline259"
       style="fill:#00c745;fill-opacity:1;stroke:none"
       transform="matrix(0,1.0770386,-1.0770386,0,720.27106,253.23685)" />
    <polyline
       points="289.447,146.659 290.027,146.079 "
       id="polyline263"
       style="fill:none;stroke:#00c745;stroke-width:2pt;stroke-dasharray:none"
       transform="matrix(0,1.0770386,-1.0770386,0,720.27106,253.23685)" />
    <polyline
       points="230.463,332.167 230.453,331.954 230.421,331.742 230.368,331.535 230.294,331.334 230.201,331.142 230.090,330.959 229.960,330.789 229.814,330.633 229.654,330.492 229.480,330.367 229.294,330.261 229.099,330.173 228.896,330.106 228.688,330.059 228.475,330.033 228.262,330.029 228.048,330.046 227.838,330.084 227.632,330.143 227.434,330.222 227.244,330.321 227.065,330.438 226.899,330.572 226.746,330.722 226.610,330.887 226.491,331.065 226.390,331.253 226.308,331.451 226.247,331.656 226.206,331.866 226.186,332.078 226.188,332.292 226.211,332.505 226.256,332.714 226.321,332.918 226.405,333.114 226.510,333.301 226.632,333.476 226.771,333.639 226.926,333.787 227.094,333.918 227.275,334.032 227.467,334.127 227.666,334.203 227.873,334.259 228.084,334.293 228.297,334.307 228.511,334.299 228.723,334.269 228.931,334.219 229.133,334.148 229.326,334.057 229.510,333.948 229.682,333.821 229.840,333.677 229.983,333.518 230.110,333.346 230.218,333.161 230.308,332.967 230.378,332.765 230.428,332.557 230.456,332.345 "
       id="polyline657"
       style="fill:#0080cc;fill-opacity:1;stroke:none"
       transform="matrix(0,1.0770386,-1.0770386,0,720.27106,253.23685)" />
    <use
       style="fill:#000000;fill-opacity:1"
       height="419"
       width="560"
       xlink:href="#textext-fb30218b-1"
       x="223.43201"
       y="134.765"
       id="use4256"
       transform="matrix(2,0,0,2,-96.051876,220.58266)" />
    <use
       style="fill:#000000;fill-opacity:1"
       height="419"
       width="560"
       xlink:href="#textext-fb30218b-3"
       x="229.12601"
       y="136.259"
       id="use4260"
       transform="matrix(2,0,0,2,-96.051876,220.58266)" />
    <text
       xml:space="preserve"
       style="font-size:12.94513988px;font-style:normal;font-weight:normal;text-align:start;line-height:125%;letter-spacing:0px;word-spacing:0px;text-anchor:start;fill:#b40000;fill-opacity:1;stroke:none;font-family:Sans;-inkscape-font-specification:Sans"
       x="502.39798"
       y="605.0882"
       id="text4594"
       sodipodi:linespacing="125%"><tspan
         sodipodi:role="line"
         id="tspan4596"
         x="502.39798"
         y="605.0882">Conjugate Gradient</tspan></text>
    <text
       xml:space="preserve"
       style="font-size:12.94513988px;font-style:normal;font-weight:normal;text-align:start;line-height:125%;letter-spacing:0px;word-spacing:0px;text-anchor:start;fill:#0e7800;fill-opacity:1;stroke:none;font-family:Sans;-inkscape-font-specification:Sans"
       x="340.88858"
       y="581.48859"
       id="text4598"
       sodipodi:linespacing="125%"><tspan
         sodipodi:role="line"
         id="tspan4600"
         x="340.88858"
         y="581.48859">Plain Gradient</tspan></text>
    <text
       xml:space="preserve"
       style="font-size:12.94513988px;font-style:normal;font-weight:normal;text-align:start;line-height:125%;letter-spacing:0px;word-spacing:0px;text-anchor:start;fill:#0000c8;fill-opacity:1;stroke:none;font-family:Sans;-inkscape-font-specification:Sans"
       x="460.31436"
       y="528.3031"
       id="text4602"
       sodipodi:linespacing="125%"><tspan
         sodipodi:role="line"
         id="tspan4604"
         x="460.31436"
         y="528.3031">2nd Order</tspan></text>
    <path
       style="fill:none;stroke:#0000c8;stroke-width:3;stroke-linecap:butt;stroke-linejoin:miter;stroke-miterlimit:4;stroke-opacity:1;stroke-dasharray:none;display:inline"
       d="M 391.98388,539.48526 609.30869,611.392"
       id="path5800"
       inkscape:connector-curvature="0"
       sodipodi:nodetypes="cc"
       transform="scale(0.92465286,0.92465286)" />
  </g>
</svg>
