<?xml version="1.0" encoding="UTF-8" standalone="no"?>
<!-- Created with Inkscape (http://www.inkscape.org/) -->

<svg
   xmlns:ns0="http://www.iki.fi/pav/software/textext/"
   xmlns:dc="http://purl.org/dc/elements/1.1/"
   xmlns:cc="http://creativecommons.org/ns#"
   xmlns:rdf="http://www.w3.org/1999/02/22-rdf-syntax-ns#"
   xmlns:svg="http://www.w3.org/2000/svg"
   xmlns="http://www.w3.org/2000/svg"
   xmlns:xlink="http://www.w3.org/1999/xlink"
   xmlns:sodipodi="http://sodipodi.sourceforge.net/DTD/sodipodi-0.dtd"
   xmlns:inkscape="http://www.inkscape.org/namespaces/inkscape"
   width="744.09448819"
   height="1052.3622047"
   id="svg2"
   version="1.1"
   inkscape:version="0.48.3.1 r9886"
   sodipodi:docname="KKT.svg">
  <sodipodi:namedview
     id="base"
     pagecolor="#ffffff"
     bordercolor="#666666"
     borderopacity="1.0"
     inkscape:pageopacity="0.0"
     inkscape:pageshadow="2"
     inkscape:zoom="2.1485121"
     inkscape:cx="452.2125"
     inkscape:cy="433.52473"
     inkscape:document-units="px"
     inkscape:current-layer="layer1"
     showgrid="true"
     inkscape:window-width="1366"
     inkscape:window-height="744"
     inkscape:window-x="0"
     inkscape:window-y="24"
     inkscape:window-maximized="1"
     inkscape:snap-grids="true">
    <inkscape:grid
       type="xygrid"
       id="grid2985"
       units="mm"
       empspacing="5"
       dotted="false"
       visible="true"
       enabled="true"
       snapvisiblegridlinesonly="true" />
  </sodipodi:namedview>
  <defs
     id="defs4">
    <inkscape:path-effect
       effect="spiro"
       id="path-effect6296"
       is_visible="true" />
    <inkscape:path-effect
       effect="spiro"
       id="path-effect6292"
       is_visible="true" />
    <marker
       inkscape:stockid="Arrow2Mend"
       orient="auto"
       refY="0.0"
       refX="0.0"
       id="Arrow2Mend"
       style="overflow:visible;">
      <path
         id="path3792"
         style="fill-rule:evenodd;stroke-width:0.62500000;stroke-linejoin:round;"
         d="M 8.7185878,4.0337352 L -2.2072895,0.016013256 L 8.7185884,-4.0017078 C 6.9730900,-1.6296469 6.9831476,1.6157441 8.7185878,4.0337352 z "
         transform="scale(0.6) rotate(180) translate(0,0)" />
    </marker>
    <marker
       inkscape:stockid="Arrow2Mend"
       orient="auto"
       refY="0"
       refX="0"
       id="Arrow2Mend-2"
       style="overflow:visible">
      <path
         inkscape:connector-curvature="0"
         id="path3792-9"
         style="fill-rule:evenodd;stroke-width:0.625;stroke-linejoin:round"
         d="M 8.7185878,4.0337352 -2.2072895,0.01601326 8.7185884,-4.0017078 c -1.7454984,2.3720609 -1.7354408,5.6174519 -6e-7,8.035443 z"
         transform="scale(-0.6,-0.6)" />
    </marker>
    <marker
       inkscape:stockid="Arrow2Mend"
       orient="auto"
       refY="0"
       refX="0"
       id="Arrow2Mend-4"
       style="overflow:visible">
      <path
         inkscape:connector-curvature="0"
         id="path3792-5"
         style="fill-rule:evenodd;stroke-width:0.625;stroke-linejoin:round"
         d="M 8.7185878,4.0337352 -2.2072895,0.01601326 8.7185884,-4.0017078 c -1.7454984,2.3720609 -1.7354408,5.6174519 -6e-7,8.035443 z"
         transform="scale(-0.6,-0.6)" />
    </marker>
    <marker
       inkscape:stockid="Arrow2Mend"
       orient="auto"
       refY="0"
       refX="0"
       id="Arrow2Mend-8"
       style="overflow:visible">
      <path
         inkscape:connector-curvature="0"
         id="path3792-7"
         style="fill-rule:evenodd;stroke-width:0.625;stroke-linejoin:round"
         d="M 8.7185878,4.0337352 -2.2072895,0.01601326 8.7185884,-4.0017078 c -1.7454984,2.3720609 -1.7354408,5.6174519 -6e-7,8.035443 z"
         transform="scale(-0.6,-0.6)" />
    </marker>
    <marker
       inkscape:stockid="Arrow2Mend"
       orient="auto"
       refY="0"
       refX="0"
       id="Arrow2Mend-6"
       style="overflow:visible">
      <path
         inkscape:connector-curvature="0"
         id="path3792-3"
         style="fill-rule:evenodd;stroke-width:0.625;stroke-linejoin:round"
         d="M 8.7185878,4.0337352 -2.2072895,0.01601326 8.7185884,-4.0017078 c -1.7454984,2.3720609 -1.7354408,5.6174519 -6e-7,8.035443 z"
         transform="scale(-0.6,-0.6)" />
    </marker>
    <marker
       inkscape:stockid="Arrow2Mend"
       orient="auto"
       refY="0"
       refX="0"
       id="Arrow2Mend-28"
       style="overflow:visible">
      <path
         inkscape:connector-curvature="0"
         id="path3792-98"
         style="fill-rule:evenodd;stroke-width:0.625;stroke-linejoin:round"
         d="M 8.7185878,4.0337352 -2.2072895,0.01601326 8.7185884,-4.0017078 c -1.7454984,2.3720609 -1.7354408,5.6174519 -6e-7,8.035443 z"
         transform="scale(-0.6,-0.6)" />
    </marker>
    <marker
       inkscape:stockid="Arrow2MendK"
       orient="auto"
       refY="0.0"
       refX="0.0"
       id="Arrow2MendK"
       style="overflow:visible;">
      <path
         id="path6323"
         style="stroke-linejoin:round;stroke:#ff8834;stroke-width:0.62500000;fill:#ff8834;fill-rule:evenodd"
         d="M 8.7185878,4.0337352 L -2.2072895,0.016013256 L 8.7185884,-4.0017078 C 6.9730900,-1.6296469 6.9831476,1.6157441 8.7185878,4.0337352 z "
         transform="scale(0.6) rotate(180) translate(0,0)" />
    </marker>
    <marker
       inkscape:stockid="Arrow2MendKQ"
       orient="auto"
       refY="0.0"
       refX="0.0"
       id="Arrow2MendKQ"
       style="overflow:visible;">
      <path
         id="path6550"
         style="stroke-linejoin:round;stroke:#ff0db2;stroke-width:0.62500000;fill:#ff0db2;fill-rule:evenodd"
         d="M 8.7185878,4.0337352 L -2.2072895,0.016013256 L 8.7185884,-4.0017078 C 6.9730900,-1.6296469 6.9831476,1.6157441 8.7185878,4.0337352 z "
         transform="scale(0.6) rotate(180) translate(0,0)" />
    </marker>
    <marker
       inkscape:stockid="Arrow2MendKe"
       orient="auto"
       refY="0.0"
       refX="0.0"
       id="Arrow2MendKe"
       style="overflow:visible;">
      <path
         id="path9046"
         style="stroke-linejoin:round;fill-rule:evenodd;stroke:#ff3434;stroke-width:0.62500000;fill:#ff3434"
         d="M 8.7185878,4.0337352 L -2.2072895,0.016013256 L 8.7185884,-4.0017078 C 6.9730900,-1.6296469 6.9831476,1.6157441 8.7185878,4.0337352 z "
         transform="scale(0.6) rotate(180) translate(0,0)" />
    </marker>
    <marker
       inkscape:stockid="Arrow2MendKQ2"
       orient="auto"
       refY="0.0"
       refX="0.0"
       id="Arrow2MendKQ2"
       style="overflow:visible;">
      <path
         id="path9343"
         style="stroke-linejoin:round;fill-rule:evenodd;stroke:#290dff;stroke-width:0.62500000;fill:#290dff"
         d="M 8.7185878,4.0337352 L -2.2072895,0.016013256 L 8.7185884,-4.0017078 C 6.9730900,-1.6296469 6.9831476,1.6157441 8.7185878,4.0337352 z "
         transform="scale(0.6) rotate(180) translate(0,0)" />
    </marker>
    <marker
       inkscape:stockid="Arrow2MendKe0"
       orient="auto"
       refY="0.0"
       refX="0.0"
       id="Arrow2MendKe0"
       style="overflow:visible;">
      <path
         id="path9644"
         style="stroke-linejoin:round;stroke:#ff0000;stroke-width:0.62500000;fill:#ff0000;fill-rule:evenodd"
         d="M 8.7185878,4.0337352 L -2.2072895,0.016013256 L 8.7185884,-4.0017078 C 6.9730900,-1.6296469 6.9831476,1.6157441 8.7185878,4.0337352 z "
         transform="scale(0.6) rotate(180) translate(0,0)" />
    </marker>
    <marker
       inkscape:stockid="Arrow2MendKQ2D"
       orient="auto"
       refY="0.0"
       refX="0.0"
       id="Arrow2MendKQ2D"
       style="overflow:visible;">
      <path
         id="path9949"
         style="stroke-linejoin:round;stroke:#0000ff;stroke-width:0.62500000;fill:#0000ff;fill-rule:evenodd"
         d="M 8.7185878,4.0337352 L -2.2072895,0.016013256 L 8.7185884,-4.0017078 C 6.9730900,-1.6296469 6.9831476,1.6157441 8.7185878,4.0337352 z "
         transform="scale(0.6) rotate(180) translate(0,0)" />
    </marker>
    <defs
       id="defs5672">
      <g
         id="g5674">
        <symbol
           style="overflow:visible"
           overflow="visible"
           id="textext-dcb33c4c-0">
          <path
             inkscape:connector-curvature="0"
             style="stroke:none"
             d=""
             id="path5677" />
        </symbol>
        <symbol
           style="overflow:visible"
           overflow="visible"
           id="textext-dcb33c4c-1">
          <path
             inkscape:connector-curvature="0"
             style="stroke:none"
             d="m 6.5625,-2.296875 c 0.171875,0 0.359375,0 0.359375,-0.203125 0,-0.1875 -0.1875,-0.1875 -0.359375,-0.1875 l -5.390625,0 c -0.171875,0 -0.34375,0 -0.34375,0.1875 0,0.203125 0.171875,0.203125 0.34375,0.203125 z"
             id="path5680" />
        </symbol>
        <symbol
           style="overflow:visible"
           overflow="visible"
           id="textext-dcb33c4c-2">
          <path
             inkscape:connector-curvature="0"
             style="stroke:none"
             d="M 7.78125,-6.59375 C 7.796875,-6.625 7.828125,-6.6875 7.828125,-6.734375 7.828125,-6.796875 7.8125,-6.8125 7.59375,-6.8125 l -6.890625,0 c -0.21875,0 -0.234375,0.015625 -0.234375,0.078125 0,0.046875 0.03125,0.109375 0.046875,0.140625 L 3.875,0.140625 c 0.078125,0.125 0.109375,0.1875 0.265625,0.1875 0.171875,0 0.203125,-0.0625 0.28125,-0.1875 z m -6.078125,0.5 5.46875,0 -2.71875,5.484375 z"
             id="path5683" />
        </symbol>
        <symbol
           style="overflow:visible"
           overflow="visible"
           id="textext-dcb33c4c-3">
          <path
             inkscape:connector-curvature="0"
             style="stroke:none"
             d=""
             id="path5686" />
        </symbol>
        <symbol
           style="overflow:visible"
           overflow="visible"
           id="textext-dcb33c4c-4">
          <path
             inkscape:connector-curvature="0"
             style="stroke:none"
             d="m 3.5625,-2.90625 c 0.40625,1.046875 0.890625,2.5625 1.046875,2.796875 0.15625,0.21875 0.25,0.21875 0.53125,0.21875 l 0.21875,0 c 0.09375,-0.015625 0.109375,-0.0625 0.109375,-0.09375 0,-0.03125 -0.03125,-0.0625 -0.0625,-0.09375 C 5.3125,-0.1875 5.25,-0.34375 5.1875,-0.53125 L 3.15625,-6.203125 c -0.21875,-0.578125 -0.75,-0.71875 -1.21875,-0.71875 -0.046875,0 -0.1875,0 -0.1875,0.109375 0,0.078125 0.078125,0.109375 0.09375,0.109375 C 2.171875,-6.65625 2.25,-6.59375 2.5,-5.90625 l 0.953125,2.703125 -2.75,2.734375 c -0.109375,0.125 -0.171875,0.171875 -0.171875,0.3125 0,0.171875 0.140625,0.28125 0.296875,0.28125 0.15625,0 0.25,-0.109375 0.328125,-0.203125 z"
             id="path5689" />
        </symbol>
        <symbol
           style="overflow:visible"
           overflow="visible"
           id="textext-dcb33c4c-5">
          <path
             inkscape:connector-curvature="0"
             style="stroke:none"
             d="M 4.6875,-3.765625 C 4.703125,-3.8125 4.71875,-3.875 4.71875,-3.9375 c 0,-0.171875 -0.109375,-0.265625 -0.28125,-0.265625 -0.09375,0 -0.375,0.0625 -0.40625,0.421875 -0.1875,-0.359375 -0.53125,-0.625 -0.9375,-0.625 -1.125,0 -2.359375,1.390625 -2.359375,2.828125 0,0.984375 0.59375,1.578125 1.3125,1.578125 0.59375,0 1.0625,-0.46875 1.15625,-0.578125 L 3.21875,-0.5625 C 3.015625,0.3125 2.890625,0.734375 2.890625,0.75 2.84375,0.84375 2.515625,1.828125 1.453125,1.828125 1.265625,1.828125 0.9375,1.8125 0.65625,1.71875 0.953125,1.640625 1.0625,1.375 1.0625,1.203125 c 0,-0.15625 -0.109375,-0.34375 -0.375,-0.34375 -0.21875,0 -0.53125,0.171875 -0.53125,0.578125 0,0.40625 0.359375,0.609375 1.3125,0.609375 1.25,0 1.96875,-0.78125 2.125,-1.375 z M 3.40625,-1.28125 C 3.34375,-1.015625 3.109375,-0.765625 2.890625,-0.578125 2.6875,-0.40625 2.375,-0.21875 2.078125,-0.21875 c -0.5,0 -0.640625,-0.515625 -0.640625,-0.921875 0,-0.46875 0.28125,-1.65625 0.5625,-2.15625 C 2.265625,-3.78125 2.6875,-4.1875 3.109375,-4.1875 c 0.65625,0 0.796875,0.8125 0.796875,0.859375 0,0.046875 -0.015625,0.109375 -0.03125,0.140625 z"
             id="path5692" />
        </symbol>
        <symbol
           style="overflow:visible"
           overflow="visible"
           id="textext-dcb33c4c-6">
          <path
             inkscape:connector-curvature="0"
             style="stroke:none"
             d=""
             id="path5695" />
        </symbol>
        <symbol
           style="overflow:visible"
           overflow="visible"
           id="textext-dcb33c4c-7">
          <path
             inkscape:connector-curvature="0"
             style="stroke:none"
             d="m 2.328125,-4.4375 c 0,-0.1875 0,-0.1875 -0.203125,-0.1875 -0.453125,0.4375 -1.078125,0.4375 -1.359375,0.4375 l 0,0.25 c 0.15625,0 0.625,0 1,-0.1875 l 0,3.546875 c 0,0.234375 0,0.328125 -0.6875,0.328125 l -0.265625,0 0,0.25 c 0.125,0 0.984375,-0.03125 1.234375,-0.03125 0.21875,0 1.09375,0.03125 1.25,0.03125 l 0,-0.25 -0.265625,0 c -0.703125,0 -0.703125,-0.09375 -0.703125,-0.328125 z"
             id="path5698" />
        </symbol>
      </g>
    </defs>
    <defs
       id="defs5907">
      <g
         id="g5909">
        <symbol
           style="overflow:visible"
           id="textext-a2b24763-0"
           overflow="visible">
          <path
             inkscape:connector-curvature="0"
             id="path5912"
             d=""
             style="stroke:none" />
        </symbol>
        <symbol
           style="overflow:visible"
           id="textext-a2b24763-1"
           overflow="visible">
          <path
             inkscape:connector-curvature="0"
             id="path5915"
             d="m 6.5625,-2.296875 c 0.171875,0 0.359375,0 0.359375,-0.203125 0,-0.1875 -0.1875,-0.1875 -0.359375,-0.1875 l -5.390625,0 c -0.171875,0 -0.34375,0 -0.34375,0.1875 0,0.203125 0.171875,0.203125 0.34375,0.203125 z"
             style="stroke:none" />
        </symbol>
        <symbol
           style="overflow:visible"
           id="textext-a2b24763-2"
           overflow="visible">
          <path
             inkscape:connector-curvature="0"
             id="path5918"
             d="M 7.78125,-6.59375 C 7.796875,-6.625 7.828125,-6.6875 7.828125,-6.734375 7.828125,-6.796875 7.8125,-6.8125 7.59375,-6.8125 l -6.890625,0 c -0.21875,0 -0.234375,0.015625 -0.234375,0.078125 0,0.046875 0.03125,0.109375 0.046875,0.140625 L 3.875,0.140625 c 0.078125,0.125 0.109375,0.1875 0.265625,0.1875 0.171875,0 0.203125,-0.0625 0.28125,-0.1875 z m -6.078125,0.5 5.46875,0 -2.71875,5.484375 z"
             style="stroke:none" />
        </symbol>
        <symbol
           style="overflow:visible"
           id="textext-a2b24763-3"
           overflow="visible">
          <path
             inkscape:connector-curvature="0"
             id="path5921"
             d=""
             style="stroke:none" />
        </symbol>
        <symbol
           style="overflow:visible"
           id="textext-a2b24763-4"
           overflow="visible">
          <path
             inkscape:connector-curvature="0"
             id="path5924"
             d="m 3.5625,-2.90625 c 0.40625,1.046875 0.890625,2.5625 1.046875,2.796875 0.15625,0.21875 0.25,0.21875 0.53125,0.21875 l 0.21875,0 c 0.09375,-0.015625 0.109375,-0.0625 0.109375,-0.09375 0,-0.03125 -0.03125,-0.0625 -0.0625,-0.09375 C 5.3125,-0.1875 5.25,-0.34375 5.1875,-0.53125 L 3.15625,-6.203125 c -0.21875,-0.578125 -0.75,-0.71875 -1.21875,-0.71875 -0.046875,0 -0.1875,0 -0.1875,0.109375 0,0.078125 0.078125,0.109375 0.09375,0.109375 C 2.171875,-6.65625 2.25,-6.59375 2.5,-5.90625 l 0.953125,2.703125 -2.75,2.734375 c -0.109375,0.125 -0.171875,0.171875 -0.171875,0.3125 0,0.171875 0.140625,0.28125 0.296875,0.28125 0.15625,0 0.25,-0.109375 0.328125,-0.203125 z"
             style="stroke:none" />
        </symbol>
        <symbol
           style="overflow:visible"
           id="textext-a2b24763-5"
           overflow="visible">
          <path
             inkscape:connector-curvature="0"
             id="path5927"
             d="M 4.6875,-3.765625 C 4.703125,-3.8125 4.71875,-3.875 4.71875,-3.9375 c 0,-0.171875 -0.109375,-0.265625 -0.28125,-0.265625 -0.09375,0 -0.375,0.0625 -0.40625,0.421875 -0.1875,-0.359375 -0.53125,-0.625 -0.9375,-0.625 -1.125,0 -2.359375,1.390625 -2.359375,2.828125 0,0.984375 0.59375,1.578125 1.3125,1.578125 0.59375,0 1.0625,-0.46875 1.15625,-0.578125 L 3.21875,-0.5625 C 3.015625,0.3125 2.890625,0.734375 2.890625,0.75 2.84375,0.84375 2.515625,1.828125 1.453125,1.828125 1.265625,1.828125 0.9375,1.8125 0.65625,1.71875 0.953125,1.640625 1.0625,1.375 1.0625,1.203125 c 0,-0.15625 -0.109375,-0.34375 -0.375,-0.34375 -0.21875,0 -0.53125,0.171875 -0.53125,0.578125 0,0.40625 0.359375,0.609375 1.3125,0.609375 1.25,0 1.96875,-0.78125 2.125,-1.375 z M 3.40625,-1.28125 C 3.34375,-1.015625 3.109375,-0.765625 2.890625,-0.578125 2.6875,-0.40625 2.375,-0.21875 2.078125,-0.21875 c -0.5,0 -0.640625,-0.515625 -0.640625,-0.921875 0,-0.46875 0.28125,-1.65625 0.5625,-2.15625 C 2.265625,-3.78125 2.6875,-4.1875 3.109375,-4.1875 c 0.65625,0 0.796875,0.8125 0.796875,0.859375 0,0.046875 -0.015625,0.109375 -0.03125,0.140625 z"
             style="stroke:none" />
        </symbol>
        <symbol
           style="overflow:visible"
           id="textext-a2b24763-6"
           overflow="visible">
          <path
             inkscape:connector-curvature="0"
             id="path5930"
             d=""
             style="stroke:none" />
        </symbol>
        <symbol
           style="overflow:visible"
           id="textext-a2b24763-7"
           overflow="visible">
          <path
             inkscape:connector-curvature="0"
             id="path5933"
             d="m 3.515625,-1.265625 -0.234375,0 c -0.015625,0.15625 -0.09375,0.5625 -0.1875,0.625 -0.046875,0.046875 -0.578125,0.046875 -0.6875,0.046875 l -1.28125,0 c 0.734375,-0.640625 0.984375,-0.84375 1.390625,-1.171875 0.515625,-0.40625 1,-0.84375 1,-1.5 0,-0.84375 -0.734375,-1.359375 -1.625,-1.359375 -0.859375,0 -1.453125,0.609375 -1.453125,1.25 0,0.34375 0.296875,0.390625 0.375,0.390625 0.15625,0 0.359375,-0.125 0.359375,-0.375 0,-0.125 -0.046875,-0.375 -0.40625,-0.375 C 0.984375,-4.21875 1.453125,-4.375 1.78125,-4.375 c 0.703125,0 1.0625,0.546875 1.0625,1.109375 0,0.609375 -0.4375,1.078125 -0.65625,1.328125 L 0.515625,-0.265625 C 0.4375,-0.203125 0.4375,-0.1875 0.4375,0 l 2.875,0 z"
             style="stroke:none" />
        </symbol>
      </g>
    </defs>
    <defs
       id="defs8837">
      <g
         id="g8839">
        <symbol
           style="overflow:visible"
           overflow="visible"
           id="textext-62ca078a-0">
          <path
             inkscape:connector-curvature="0"
             style="stroke:none"
             d=""
             id="path8842" />
        </symbol>
        <symbol
           style="overflow:visible"
           overflow="visible"
           id="textext-62ca078a-1">
          <path
             inkscape:connector-curvature="0"
             style="stroke:none"
             d="m 3.5625,-2.90625 c 0.40625,1.046875 0.890625,2.5625 1.046875,2.796875 0.15625,0.21875 0.25,0.21875 0.53125,0.21875 l 0.21875,0 c 0.09375,-0.015625 0.109375,-0.0625 0.109375,-0.09375 0,-0.03125 -0.03125,-0.0625 -0.0625,-0.09375 C 5.3125,-0.1875 5.25,-0.34375 5.1875,-0.53125 L 3.15625,-6.203125 c -0.21875,-0.578125 -0.75,-0.71875 -1.21875,-0.71875 -0.046875,0 -0.1875,0 -0.1875,0.109375 0,0.078125 0.078125,0.109375 0.09375,0.109375 C 2.171875,-6.65625 2.25,-6.59375 2.5,-5.90625 l 0.953125,2.703125 -2.75,2.734375 c -0.109375,0.125 -0.171875,0.171875 -0.171875,0.3125 0,0.171875 0.140625,0.28125 0.296875,0.28125 0.15625,0 0.25,-0.109375 0.328125,-0.203125 z"
             id="path8845" />
        </symbol>
        <symbol
           style="overflow:visible"
           overflow="visible"
           id="textext-62ca078a-2">
          <path
             inkscape:connector-curvature="0"
             style="stroke:none"
             d=""
             id="path8848" />
        </symbol>
        <symbol
           style="overflow:visible"
           overflow="visible"
           id="textext-62ca078a-3">
          <path
             inkscape:connector-curvature="0"
             style="stroke:none"
             d="m 1.90625,-2.328125 c 0.546875,0 0.9375,0.375 0.9375,1.125 0,0.859375 -0.515625,1.125 -0.90625,1.125 -0.28125,0 -0.90625,-0.078125 -1.1875,-0.5 0.328125,0 0.40625,-0.234375 0.40625,-0.390625 0,-0.21875 -0.171875,-0.375 -0.390625,-0.375 -0.1875,0 -0.390625,0.125 -0.390625,0.40625 0,0.65625 0.71875,1.078125 1.5625,1.078125 0.96875,0 1.640625,-0.65625 1.640625,-1.34375 0,-0.546875 -0.4375,-1.09375 -1.203125,-1.25 0.71875,-0.265625 0.984375,-0.78125 0.984375,-1.21875 0,-0.546875 -0.625,-0.953125 -1.40625,-0.953125 -0.765625,0 -1.359375,0.375 -1.359375,0.9375 0,0.234375 0.15625,0.359375 0.359375,0.359375 0.21875,0 0.359375,-0.15625 0.359375,-0.34375 0,-0.203125 -0.140625,-0.359375 -0.359375,-0.375 0.25,-0.296875 0.71875,-0.375 0.984375,-0.375 0.3125,0 0.75,0.15625 0.75,0.75 0,0.296875 -0.09375,0.625 -0.28125,0.828125 -0.21875,0.265625 -0.421875,0.28125 -0.765625,0.3125 -0.171875,0.015625 -0.1875,0.015625 -0.21875,0.015625 -0.015625,0 -0.078125,0.015625 -0.078125,0.09375 0,0.09375 0.0625,0.09375 0.1875,0.09375 z"
             id="path8851" />
        </symbol>
        <symbol
           style="overflow:visible"
           overflow="visible"
           id="textext-62ca078a-4">
          <path
             inkscape:connector-curvature="0"
             style="stroke:none"
             d=""
             id="path8854" />
        </symbol>
        <symbol
           style="overflow:visible"
           overflow="visible"
           id="textext-62ca078a-5">
          <path
             inkscape:connector-curvature="0"
             style="stroke:none"
             d="m 6.84375,-3.265625 c 0.15625,0 0.34375,0 0.34375,-0.1875 C 7.1875,-3.65625 7,-3.65625 6.859375,-3.65625 l -5.96875,0 c -0.140625,0 -0.328125,0 -0.328125,0.203125 0,0.1875 0.1875,0.1875 0.328125,0.1875 z m 0.015625,1.9375 c 0.140625,0 0.328125,0 0.328125,-0.203125 0,-0.1875 -0.1875,-0.1875 -0.34375,-0.1875 l -5.953125,0 c -0.140625,0 -0.328125,0 -0.328125,0.1875 0,0.203125 0.1875,0.203125 0.328125,0.203125 z"
             id="path8857" />
        </symbol>
        <symbol
           style="overflow:visible"
           overflow="visible"
           id="textext-62ca078a-6">
          <path
             inkscape:connector-curvature="0"
             style="stroke:none"
             d="m 4.578125,-3.1875 c 0,-0.796875 -0.046875,-1.59375 -0.390625,-2.328125 -0.453125,-0.96875 -1.28125,-1.125 -1.6875,-1.125 -0.609375,0 -1.328125,0.265625 -1.75,1.1875 -0.3125,0.6875 -0.359375,1.46875 -0.359375,2.265625 0,0.75 0.03125,1.640625 0.453125,2.40625 0.421875,0.796875 1.15625,1 1.640625,1 0.53125,0 1.296875,-0.203125 1.734375,-1.15625 0.3125,-0.6875 0.359375,-1.46875 0.359375,-2.25 z M 2.484375,0 C 2.09375,0 1.5,-0.25 1.328125,-1.203125 1.21875,-1.796875 1.21875,-2.71875 1.21875,-3.3125 c 0,-0.640625 0,-1.296875 0.078125,-1.828125 0.1875,-1.1875 0.9375,-1.28125 1.1875,-1.28125 0.328125,0 0.984375,0.1875 1.171875,1.171875 0.109375,0.5625 0.109375,1.3125 0.109375,1.9375 0,0.75 0,1.421875 -0.109375,2.0625 C 3.5,-0.296875 2.9375,0 2.484375,0 z"
             id="path8860" />
        </symbol>
      </g>
    </defs>
  </defs>
  <metadata
     id="metadata7">
    <rdf:RDF>
      <cc:Work
         rdf:about="">
        <dc:format>image/svg+xml</dc:format>
        <dc:type
           rdf:resource="http://purl.org/dc/dcmitype/StillImage" />
        <dc:title></dc:title>
      </cc:Work>
    </rdf:RDF>
  </metadata>
  <g
     inkscape:label="Layer 1"
     inkscape:groupmode="layer"
     id="layer1">
    <path
       style="opacity:0.6;fill:#ff9191;fill-opacity:1;stroke:none"
       d="m 531.49606,715.74801 c 0,0 -53.1496,-88.58267 -88.58267,-106.2992 -45.43792,-22.71896 -88.58268,-88.58269 -88.58268,-88.58269 l 194.88189,0 0,194.88189 z"
       id="path6302-9"
       inkscape:connector-curvature="0"
       sodipodi:nodetypes="cscccc" />
    <path
       sodipodi:nodetypes="csccccc"
       inkscape:connector-curvature="0"
       id="path6527-9"
       d="m 336.61417,698.03147 c 0,0 70.86614,-17.71653 106.29922,-88.58267 35.43308,-70.86614 35.43307,-88.58268 35.43307,-88.58268 l 70.86614,0 0,194.88189 -212.59843,0 z"
       style="opacity:0.6;fill:#9e91ff;fill-opacity:1;stroke:none" />
    <path
       style="fill:none;stroke:#ff0000;stroke-width:1px;stroke-linecap:butt;stroke-linejoin:miter;stroke-opacity:1"
       d="m 354.33071,520.86612 c 0,0 43.14476,65.86372 88.58268,88.58268 35.43307,17.71653 88.58267,106.29921 88.58267,106.29921"
       id="path6302"
       inkscape:connector-curvature="0"
       sodipodi:nodetypes="csc" />
    <path
       sodipodi:nodetypes="csc"
       inkscape:connector-curvature="0"
       id="path6527"
       d="m 478.34646,520.86612 c 0,0 1e-5,17.71654 -35.43307,88.58268 -35.43308,70.86614 -106.29922,88.58267 -106.29922,88.58267"
       style="fill:none;stroke:#0000ff;stroke-width:1px;stroke-linecap:butt;stroke-linejoin:miter;stroke-opacity:1" />
    <path
       style="fill:none;stroke:#000000;stroke-width:3;stroke-linecap:butt;stroke-linejoin:miter;stroke-opacity:1;marker-end:url(#Arrow2Mend);stroke-miterlimit:4;stroke-dasharray:none"
       d="m 442.91339,609.4488 88.58267,0"
       id="path4205"
       inkscape:connector-curvature="0" />
    <path
       style="stroke-linejoin:miter;marker-end:url(#Arrow2MendKe0);stroke-opacity:1;stroke:#ff0000;stroke-linecap:butt;stroke-miterlimit:4;stroke-dasharray:none;stroke-width:3;fill:none"
       d="m 442.91339,609.4488 -17.71654,35.43307"
       id="path4205-3"
       inkscape:connector-curvature="0"
       sodipodi:nodetypes="cc" />
    <path
       style="stroke-linejoin:miter;marker-end:url(#Arrow2MendKQ2D);stroke-opacity:1;stroke:#0000ff;stroke-linecap:butt;stroke-miterlimit:4;stroke-dasharray:none;stroke-width:3;fill:none"
       d="M 442.91339,609.4488 372.04724,574.01573"
       id="path4205-3-4"
       inkscape:connector-curvature="0"
       sodipodi:nodetypes="cc" />
    <path
       style="fill:none;stroke:#000000;stroke-width:1;stroke-linecap:butt;stroke-linejoin:miter;stroke-opacity:1;marker-end:none;stroke-miterlimit:4;stroke-dasharray:6, 6;stroke-dashoffset:0"
       d="M 425.19685,644.88187 354.33071,609.4488"
       id="path4205-3-4-8"
       inkscape:connector-curvature="0"
       sodipodi:nodetypes="cc" />
    <path
       style="fill:none;stroke:#000000;stroke-width:1;stroke-linecap:butt;stroke-linejoin:miter;stroke-miterlimit:4;stroke-opacity:1;stroke-dasharray:6, 6;stroke-dashoffset:0;marker-end:none"
       d="m 442.91339,609.4488 -88.58268,0"
       id="path4205-3-4-8-1"
       inkscape:connector-curvature="0"
       sodipodi:nodetypes="cc" />
    <path
       style="fill:none;stroke:#000000;stroke-width:1;stroke-linecap:butt;stroke-linejoin:miter;stroke-miterlimit:4;stroke-opacity:1;stroke-dasharray:6, 6;stroke-dashoffset:0;marker-end:none"
       d="M 372.04724,574.01573 354.33071,609.4488"
       id="path4205-3-4-8-1-5"
       inkscape:connector-curvature="0"
       sodipodi:nodetypes="cc" />
    <g
       id="g5701"
       style="fill:#000093;fill-opacity:1"
       transform="matrix(2,0,0,2,-59.733153,313.09516)">
      <use
         id="use5703"
         y="134.765"
         x="223.43201"
         xlink:href="#textext-dcb33c4c-1"
         width="744.09448"
         height="1052.3622"
         style="fill:#000093;fill-opacity:1" />
    </g>
    <g
       id="g5705"
       style="fill:#000093;fill-opacity:1"
       transform="matrix(2,0,0,2,-59.733153,313.09516)">
      <use
         id="use5707"
         y="134.765"
         x="231.181"
         xlink:href="#textext-dcb33c4c-4"
         width="744.09448"
         height="1052.3622"
         style="fill:#000093;fill-opacity:1" />
    </g>
    <g
       id="g5709"
       style="fill:#000093;fill-opacity:1"
       transform="matrix(2,0,0,2,-59.733153,313.09516)">
      <use
         id="use5711"
         y="136.259"
         x="236.992"
         xlink:href="#textext-dcb33c4c-7"
         width="744.09448"
         height="1052.3622"
         style="fill:#000093;fill-opacity:1" />
    </g>
    <g
       id="g5713"
       style="fill:#000093;fill-opacity:1"
       transform="matrix(2,0,0,2,-59.733153,313.09516)">
      <use
         id="use5715"
         y="134.765"
         x="239.80099"
         xlink:href="#textext-dcb33c4c-2"
         width="744.09448"
         height="1052.3622"
         style="fill:#000093;fill-opacity:1" />
    </g>
    <g
       id="g5717"
       style="fill:#000093;fill-opacity:1"
       transform="matrix(2,0,0,2,-59.733153,313.09516)">
      <use
         id="use5719"
         y="134.765"
         x="246.44299"
         xlink:href="#textext-dcb33c4c-5"
         width="744.09448"
         height="1052.3622"
         style="fill:#000093;fill-opacity:1" />
    </g>
    <g
       id="g5721"
       style="fill:#000093;fill-opacity:1"
       transform="matrix(2,0,0,2,-59.733153,313.09516)">
      <use
         id="use5723"
         y="136.259"
         x="251.19501"
         xlink:href="#textext-dcb33c4c-7"
         width="744.09448"
         height="1052.3622"
         style="fill:#000093;fill-opacity:1" />
    </g>
    <g
       style="fill:#ac0000;fill-opacity:1"
       id="g5936"
       transform="matrix(2,0,0,2,-12.63788,367.23506)">
      <use
         xlink:href="#textext-a2b24763-1"
         x="223.43201"
         y="134.765"
         id="use5938"
         width="744.09448"
         height="1052.3622"
         style="fill:#ac0000;fill-opacity:1" />
    </g>
    <g
       style="fill:#ac0000;fill-opacity:1"
       id="g5940"
       transform="matrix(2,0,0,2,-12.63788,367.23506)">
      <use
         xlink:href="#textext-a2b24763-4"
         x="231.181"
         y="134.765"
         id="use5942"
         width="744.09448"
         height="1052.3622"
         style="fill:#ac0000;fill-opacity:1" />
    </g>
    <g
       style="fill:#ac0000;fill-opacity:1"
       id="g5944"
       transform="matrix(2,0,0,2,-12.63788,367.23506)">
      <use
         xlink:href="#textext-a2b24763-7"
         x="236.992"
         y="136.259"
         id="use5946"
         width="744.09448"
         height="1052.3622"
         style="fill:#ac0000;fill-opacity:1" />
    </g>
    <g
       style="fill:#ac0000;fill-opacity:1"
       id="g5948"
       transform="matrix(2,0,0,2,-12.63788,367.23506)">
      <use
         xlink:href="#textext-a2b24763-2"
         x="239.80099"
         y="134.765"
         id="use5950"
         width="744.09448"
         height="1052.3622"
         style="fill:#ac0000;fill-opacity:1" />
    </g>
    <g
       style="fill:#ac0000;fill-opacity:1"
       id="g5952"
       transform="matrix(2,0,0,2,-12.63788,367.23506)">
      <use
         xlink:href="#textext-a2b24763-5"
         x="246.44299"
         y="134.765"
         id="use5954"
         width="744.09448"
         height="1052.3622"
         style="fill:#ac0000;fill-opacity:1" />
    </g>
    <g
       style="fill:#ac0000;fill-opacity:1"
       id="g5956"
       transform="matrix(2,0,0,2,-12.63788,367.23506)">
      <use
         xlink:href="#textext-a2b24763-7"
         x="251.19501"
         y="136.259"
         id="use5958"
         width="744.09448"
         height="1052.3622"
         style="fill:#ac0000;fill-opacity:1" />
    </g>
    <g
       id="g6153"
       transform="matrix(2,0,0,2,29.618486,334.55533)"
       ns0:preamble="/home/mtoussai/.config/inkscape/extensions/textext_preamble.tex"
       ns0:text="$-\\nabla\\! f$">
      <defs
         id="defs6155">
        <g
           id="g6157">
          <symbol
             id="textext-dd08546a-0"
             overflow="visible"
             style="overflow:visible">
            <path
               id="path6160"
               d=""
               style="stroke:none"
               inkscape:connector-curvature="0" />
          </symbol>
          <symbol
             id="textext-dd08546a-1"
             overflow="visible"
             style="overflow:visible">
            <path
               id="path6163"
               d="m 6.5625,-2.296875 c 0.171875,0 0.359375,0 0.359375,-0.203125 0,-0.1875 -0.1875,-0.1875 -0.359375,-0.1875 l -5.390625,0 c -0.171875,0 -0.34375,0 -0.34375,0.1875 0,0.203125 0.171875,0.203125 0.34375,0.203125 z"
               style="stroke:none"
               inkscape:connector-curvature="0" />
          </symbol>
          <symbol
             id="textext-dd08546a-2"
             overflow="visible"
             style="overflow:visible">
            <path
               id="path6166"
               d="M 7.78125,-6.59375 C 7.796875,-6.625 7.828125,-6.6875 7.828125,-6.734375 7.828125,-6.796875 7.8125,-6.8125 7.59375,-6.8125 l -6.890625,0 c -0.21875,0 -0.234375,0.015625 -0.234375,0.078125 0,0.046875 0.03125,0.109375 0.046875,0.140625 L 3.875,0.140625 c 0.078125,0.125 0.109375,0.1875 0.265625,0.1875 0.171875,0 0.203125,-0.0625 0.28125,-0.1875 z m -6.078125,0.5 5.46875,0 -2.71875,5.484375 z"
               style="stroke:none"
               inkscape:connector-curvature="0" />
          </symbol>
          <symbol
             id="textext-dd08546a-3"
             overflow="visible"
             style="overflow:visible">
            <path
               id="path6169"
               d=""
               style="stroke:none"
               inkscape:connector-curvature="0" />
          </symbol>
          <symbol
             id="textext-dd08546a-4"
             overflow="visible"
             style="overflow:visible">
            <path
               id="path6172"
               d="m 3.65625,-3.984375 0.859375,0 c 0.203125,0 0.296875,0 0.296875,-0.203125 0,-0.109375 -0.09375,-0.109375 -0.265625,-0.109375 l -0.828125,0 0.203125,-1.140625 c 0.046875,-0.203125 0.1875,-0.90625 0.25,-1.03125 0.078125,-0.1875 0.25,-0.34375 0.46875,-0.34375 0.03125,0 0.296875,0 0.484375,0.1875 -0.4375,0.03125 -0.546875,0.390625 -0.546875,0.53125 0,0.234375 0.1875,0.359375 0.375,0.359375 C 5.21875,-5.734375 5.5,-5.96875 5.5,-6.34375 c 0,-0.453125 -0.453125,-0.6875 -0.859375,-0.6875 -0.34375,0 -0.96875,0.1875 -1.265625,1.171875 -0.0625,0.203125 -0.09375,0.3125 -0.328125,1.5625 l -0.6875,0 c -0.203125,0 -0.3125,0 -0.3125,0.1875 0,0.125 0.09375,0.125 0.28125,0.125 l 0.65625,0 -0.734375,3.9375 c -0.1875,0.96875 -0.359375,1.875 -0.875,1.875 -0.046875,0 -0.28125,0 -0.484375,-0.1875 C 1.359375,1.609375 1.453125,1.25 1.453125,1.109375 1.453125,0.875 1.265625,0.75 1.078125,0.75 0.8125,0.75 0.53125,0.984375 0.53125,1.359375 c 0,0.4375 0.4375,0.6875 0.84375,0.6875 0.546875,0 0.953125,-0.59375 1.125,-0.96875 0.328125,-0.625 0.546875,-1.828125 0.5625,-1.90625 z"
               style="stroke:none"
               inkscape:connector-curvature="0" />
          </symbol>
        </g>
      </defs>
      <g
         id="textext-dd08546a-5">
        <g
           id="g6175"
           style="fill:#000000;fill-opacity:1">
          <use
             id="use6177"
             y="134.765"
             x="223.43201"
             xlink:href="#textext-dd08546a-1"
             width="744.09448"
             height="1052.3622" />
          <use
             id="use6179"
             y="134.765"
             x="231.18091"
             xlink:href="#textext-dd08546a-2"
             width="744.09448"
             height="1052.3622" />
        </g>
        <g
           id="g6181"
           style="fill:#000000;fill-opacity:1">
          <use
             id="use6183"
             y="134.765"
             x="237.823"
             xlink:href="#textext-dd08546a-4"
             width="744.09448"
             height="1052.3622" />
        </g>
      </g>
    </g>
    <path
       sodipodi:type="arc"
       style="fill:#000000;fill-opacity:1;stroke:none"
       id="path8317"
       sodipodi:cx="442.91339"
       sodipodi:cy="609.44879"
       sodipodi:rx="3.5189152"
       sodipodi:ry="3.5189152"
       d="m 446.43231,609.44879 a 3.5189152,3.5189152 0 1 1 -7.03783,0 3.5189152,3.5189152 0 1 1 7.03783,0 z" />
    <rect
       style="fill:#fff888;fill-opacity:1;stroke:none"
       id="rect8321"
       width="35.433418"
       height="194.88187"
       x="301.18109"
       y="520.86615"
       ry="0" />
    <path
       style="fill:none;stroke:#dbce00;stroke-width:1;stroke-linecap:butt;stroke-linejoin:miter;stroke-miterlimit:4;stroke-opacity:1;stroke-dasharray:none"
       d="m 336.61417,520.86612 0,194.88189"
       id="path8319"
       inkscape:connector-curvature="0"
       sodipodi:nodetypes="cc" />
    <g
       id="g8863"
       style="fill:#5b5500;fill-opacity:1"
       transform="matrix(2,0,0,2,-165.13501,385.82273)">
      <use
         id="use8865"
         y="134.765"
         x="223.43201"
         xlink:href="#textext-62ca078a-1"
         width="744.09448"
         height="1052.3622"
         style="fill:#5b5500;fill-opacity:1" />
    </g>
    <g
       id="g8867"
       style="fill:#5b5500;fill-opacity:1"
       transform="matrix(2,0,0,2,-165.13501,385.82273)">
      <use
         id="use8869"
         y="136.259"
         x="229.244"
         xlink:href="#textext-62ca078a-3"
         width="744.09448"
         height="1052.3622"
         style="fill:#5b5500;fill-opacity:1" />
    </g>
    <g
       id="g8871"
       style="fill:#5b5500;fill-opacity:1"
       transform="matrix(2,0,0,2,-165.13501,385.82273)">
      <use
         id="use8873"
         y="134.765"
         x="234.82001"
         xlink:href="#textext-62ca078a-5"
         width="744.09448"
         height="1052.3622"
         style="fill:#5b5500;fill-opacity:1" />
    </g>
    <g
       id="g8875"
       style="fill:#5b5500;fill-opacity:1"
       transform="matrix(2,0,0,2,-165.13501,385.82273)">
      <use
         id="use8877"
         y="134.765"
         x="243.67476"
         xlink:href="#textext-62ca078a-6"
         width="744.09448"
         height="1052.3622"
         style="fill:#5b5500;fill-opacity:1" />
    </g>
  </g>
</svg>
