<?xml version="1.0" encoding="UTF-8" standalone="no"?>
<!-- Created with Inkscape (http://www.inkscape.org/) -->

<svg
   xmlns:dc="http://purl.org/dc/elements/1.1/"
   xmlns:cc="http://creativecommons.org/ns#"
   xmlns:rdf="http://www.w3.org/1999/02/22-rdf-syntax-ns#"
   xmlns:svg="http://www.w3.org/2000/svg"
   xmlns="http://www.w3.org/2000/svg"
   xmlns:xlink="http://www.w3.org/1999/xlink"
   xmlns:sodipodi="http://sodipodi.sourceforge.net/DTD/sodipodi-0.dtd"
   xmlns:inkscape="http://www.inkscape.org/namespaces/inkscape"
   width="744.09448"
   height="524.40942"
   id="svg2"
   version="1.1"
   inkscape:version="0.48.2 r9819"
   sodipodi:docname="inferenceAndOptimization.pdf">
  <sodipodi:namedview
     id="base"
     pagecolor="#ffffff"
     bordercolor="#666666"
     borderopacity="1.0"
     inkscape:pageopacity="0.0"
     inkscape:pageshadow="2"
     inkscape:zoom="2.8"
     inkscape:cx="287.07368"
     inkscape:cy="281.95799"
     inkscape:document-units="mm"
     inkscape:current-layer="layer1"
     showgrid="true"
     units="mm"
     inkscape:window-width="1920"
     inkscape:window-height="1056"
     inkscape:window-x="0"
     inkscape:window-y="24"
     inkscape:window-maximized="1"
     inkscape:snap-grids="true">
    <inkscape:grid
       dotted="false"
       spacingy="5mm"
       spacingx="5mm"
       units="mm"
       snapvisiblegridlinesonly="true"
       enabled="true"
       visible="true"
       empspacing="5"
       id="grid2985"
       type="xygrid" />
  </sodipodi:namedview>
  <defs
     id="defs4">
    <linearGradient
       id="linearGradient4611">
      <stop
         id="stop4613"
         offset="0"
         style="stop-color:#ffc0c0;stop-opacity:1;" />
      <stop
         id="stop4615"
         offset="1"
         style="stop-color:#da0000;stop-opacity:0;" />
    </linearGradient>
    <marker
       style="overflow:visible;"
       id="Arrow2Mend"
       refX="0.0"
       refY="0.0"
       orient="auto"
       inkscape:stockid="Arrow2Mend">
      <path
         transform="scale(0.6) rotate(180) translate(0,0)"
         d="M 8.7185878,4.0337352 L -2.2072895,0.016013256 L 8.7185884,-4.0017078 C 6.9730900,-1.6296469 6.9831476,1.6157441 8.7185878,4.0337352 z "
         style="font-size:12.0;fill-rule:evenodd;stroke-width:0.62500000;stroke-linejoin:round;"
         id="path3993" />
    </marker>
    <marker
       style="overflow:visible"
       id="Arrow2Mstart"
       refX="0.0"
       refY="0.0"
       orient="auto"
       inkscape:stockid="Arrow2Mstart">
      <path
         transform="scale(0.6) translate(0,0)"
         d="M 8.7185878,4.0337352 L -2.2072895,0.016013256 L 8.7185884,-4.0017078 C 6.9730900,-1.6296469 6.9831476,1.6157441 8.7185878,4.0337352 z "
         style="font-size:12.0;fill-rule:evenodd;stroke-width:0.62500000;stroke-linejoin:round"
         id="path3990" />
    </marker>
    <linearGradient
       gradientUnits="userSpaceOnUse"
       y2="311.811"
       x2="425.19684"
       y1="170.07872"
       x1="425.19684"
       id="linearGradient4617"
       xlink:href="#linearGradient4611"
       inkscape:collect="always" />
  </defs>
  <metadata
     id="metadata7">
    <rdf:RDF>
      <cc:Work
         rdf:about="">
        <dc:format>image/svg+xml</dc:format>
        <dc:type
           rdf:resource="http://purl.org/dc/dcmitype/StillImage" />
        <dc:title></dc:title>
      </cc:Work>
    </rdf:RDF>
  </metadata>
  <g
     transform="translate(0,-527.9527)"
     id="layer1"
     inkscape:groupmode="layer"
     inkscape:label="Layer 1">
    <path
       sodipodi:nodetypes="ccc"
       transform="translate(0,527.9527)"
       inkscape:connector-curvature="0"
       id="path3193"
       d="m 124.01575,134.64564 0,230.31496 407.48031,0"
       style="fill:none;stroke:#000000;stroke-width:1.25;stroke-linecap:butt;stroke-linejoin:miter;stroke-miterlimit:4;stroke-opacity:1;stroke-dasharray:none;marker-start:url(#Arrow2Mstart);marker-end:url(#Arrow2Mend)" />
    <path
       sodipodi:nodetypes="cassc"
       transform="translate(0,527.9527)"
       inkscape:connector-curvature="0"
       id="path4593"
       d="m 141.73228,258.66139 c 0,0 31.86301,-34.92653 53.14961,-35.43307 34.42501,-0.81918 54.91641,45.91535 88.58268,53.14961 86.00266,18.48039 129.2854,-137.28152 159.44882,-106.29921 31.30828,32.15826 70.86614,177.16535 70.86614,177.16535"
       style="fill:none;stroke:#000000;stroke-width:1px;stroke-linecap:butt;stroke-linejoin:miter;stroke-opacity:1" />
    <path
       transform="matrix(0.26569678,0,0,0.26569678,321.35303,656.20129)"
       d="m 433.86052,142.06668 c 0,3.6263 -2.9397,6.56599 -6.56599,6.56599 -3.6263,0 -6.566,-2.93969 -6.566,-6.56599 0,-3.6263 2.9397,-6.56599 6.566,-6.56599 3.62629,0 6.56599,2.93969 6.56599,6.56599 z"
       sodipodi:ry="6.5659914"
       sodipodi:rx="6.5659914"
       sodipodi:cy="142.06668"
       sodipodi:cx="427.29453"
       id="path4597"
       style="fill:#da0000;fill-opacity:1;stroke:none"
       sodipodi:type="arc" />
    <path
       transform="translate(0,527.9527)"
       inkscape:connector-curvature="0"
       id="path4601"
       d="m 142.35371,320.42423 0,-61.4068 4.58301,-4.59934 c 13.6908,-13.73956 27.71536,-24.08722 38.27413,-28.23957 12.29113,-4.83363 25.21514,-1.68009 40.53572,9.89093 3.59092,2.71209 8.06439,6.57922 16.84738,14.5639 10.00567,9.09622 14.11408,12.57352 18.78182,15.89664 12.36012,8.79962 21.6285,11.83785 36.15651,11.85233 11.98513,0.012 20.88381,-2.23156 32.5222,-8.19943 10.29366,-5.27834 19.6595,-12.44823 30.7083,-23.50835 9.77409,-9.78411 17.20202,-18.74597 33.91183,-40.91494 17.0443,-22.61275 23.0972,-29.74127 29.24104,-34.43729 4.3786,-3.34677 8.61157,-5.08308 9.71122,-3.98343 0.6783,0.6783 1.69543,0.72307 2.66538,0.11732 0.60845,-0.37998 1.00612,-0.2936 2.67774,0.5816 2.26864,1.18779 4.91104,3.91673 8.63827,8.92119 16.51542,22.17489 39.28412,80.25962 61.91234,157.94323 l 3.5474,12.17832 0,17.37525 0,17.37524 -185.35715,0 -185.35714,0 0,-61.4068 z"
       style="fill:url(#linearGradient4617);fill-opacity:1;stroke:none" />
    <g
       transform="matrix(0.49182633,0,0,0.49182633,303.86345,798.5634)"
       id="g3656">
      <g
         style="font-style:normal;font-variant:normal;font-weight:normal;font-stretch:normal;letter-spacing:normal;word-spacing:normal;text-anchor:start;fill:none;stroke:#000000;stroke-linecap:butt;stroke-linejoin:miter;stroke-miterlimit:10.43299961;stroke-opacity:1;stroke-dasharray:none;stroke-dashoffset:0"
         word-spacing="normal"
         letter-spacing="normal"
         font-size-adjust="none"
         font-stretch="normal"
         font-weight="normal"
         font-variant="normal"
         font-style="normal"
         stroke-miterlimit="10.433"
         xml:space="preserve"
         transform="matrix(0.74915631,0,0,-0.74915631,-131.10235,558.07086)"
         id="g3658"><path
           style="fill:#000000;stroke-width:0"
           inkscape:connector-curvature="0"
           id="path3660"
           d="M 477.74,428.32 H 474 l -3.93,-10.36 c -1.05,-2.75 -2.6,-6.78 -2.99,-9.12 h -0.04 c -0.32,1.8 -1.6,5.23 -2.1,6.58 l -4.84,12.9 h -3.88 l 8.57,-22.12 h 4.39 z" /><path
           style="fill:#000000;stroke-width:0"
           inkscape:connector-curvature="0"
           id="path3662"
           d="m 498.31,420.59 -0.01,0.47 -0.03,0.47 -0.05,0.45 -0.07,0.44 -0.09,0.43 -0.11,0.42 -0.13,0.41 -0.15,0.4 -0.16,0.38 -0.18,0.38 -0.2,0.36 -0.21,0.34 -0.23,0.34 -0.24,0.31 -0.26,0.31 -0.27,0.29 -0.28,0.27 -0.3,0.26 -0.31,0.25 -0.32,0.23 -0.34,0.21 -0.34,0.19 -0.36,0.18 -0.36,0.16 -0.37,0.15 -0.39,0.12 -0.39,0.11 -0.4,0.09 -0.41,0.07 -0.41,0.05 -0.42,0.03 -0.43,0.01 c -3.23,0 -5.48,-0.8 -7.81,-2.14 l 0.3,-3.3 c 2.58,1.84 5.08,2.5 7.51,2.5 2.35,0 4.35,-2 4.35,-5.69 v -2.14 c -7.49,-0.09 -13.82,-2.19 -13.82,-6.58 0,-2.14 1.35,-6.17 5.69,-6.17 0.69,0 5.38,0.1 8.27,2.35 l -1.85,1.64 c -1.43,-0.89 -3.34,-0.96 -3.89,-0.96 -2.39,0 -4.62,1.16 -4.62,3.25 0,3.49 8.06,3.83 10.22,3.94 v -3.09 c 0,-0.96 0,-2.19 -1.71,-3.14 l 1.85,-1.64 v -1.8 h 3.73 z" /><path
           style="fill:#000000;stroke-width:0"
           inkscape:connector-curvature="0"
           id="path3664"
           d="m 508.7,416.86 0.01,0.46 0.03,0.45 0.06,0.45 0.07,0.44 0.09,0.42 0.11,0.42 0.12,0.4 0.15,0.4 0.16,0.38 0.18,0.38 0.2,0.36 0.21,0.35 0.23,0.33 0.25,0.32 0.26,0.31 0.27,0.3 0.29,0.28 0.31,0.26 0.31,0.25 0.33,0.24 0.35,0.22 0.35,0.2 0.37,0.18 0.38,0.17 0.38,0.16 0.4,0.13 0.41,0.12 0.42,0.09 0.43,0.08 0.44,0.06 0.45,0.04 0.45,0.02 v 3.34 c -4.44,-0.05 -7.17,-2.5 -8.72,-4.78 v 4.53 h -3.5 V 406.2 h 3.75 z" /><polygon
           style="fill:#000000;stroke-width:0"
           id="polygon3666"
           points="521.6,440.07 521.6,435.64 526.04,435.64 526.04,440.07 " /><polygon
           style="fill:#000000;stroke-width:0"
           id="polygon3668"
           points="521.95,428.32 521.95,406.2 525.68,406.2 525.68,428.32 " /><path
           style="fill:#000000;stroke-width:0"
           inkscape:connector-curvature="0"
           id="path3670"
           d="m 549.67,420.59 -0.01,0.47 -0.03,0.47 -0.06,0.45 -0.07,0.44 -0.09,0.43 -0.11,0.42 -0.13,0.41 -0.14,0.4 -0.17,0.38 -0.18,0.38 -0.19,0.36 -0.22,0.34 -0.22,0.34 -0.25,0.31 -0.25,0.31 -0.27,0.29 -0.29,0.27 -0.3,0.26 -0.31,0.25 -0.32,0.23 -0.33,0.21 -0.35,0.19 -0.35,0.18 -0.37,0.16 -0.37,0.15 -0.38,0.12 -0.39,0.11 -0.4,0.09 -0.41,0.07 -0.41,0.05 -0.42,0.03 -0.43,0.01 c -3.23,0 -5.48,-0.8 -7.81,-2.14 l 0.29,-3.3 c 2.58,1.84 5.08,2.5 7.52,2.5 2.34,0 4.34,-2 4.34,-5.69 v -2.14 c -7.48,-0.09 -13.81,-2.19 -13.81,-6.58 0,-2.14 1.34,-6.17 5.69,-6.17 0.68,0 5.37,0.1 8.26,2.35 l -1.84,1.64 c -1.44,-0.89 -3.34,-0.96 -3.89,-0.96 -2.39,0 -4.63,1.16 -4.63,3.25 0,3.49 8.07,3.83 10.22,3.94 v -3.09 c 0,-0.96 0,-2.19 -1.7,-3.14 l 1.84,-1.64 v -1.8 h 3.74 z" /><path
           style="fill:#000000;stroke-width:0"
           inkscape:connector-curvature="0"
           id="path3672"
           d="m 561.5,440.78 h -3.75 V 406.2 h 3.89 v 2.3 c 1.2,-1.1 3.34,-2.85 6.67,-2.85 4.99,0 9.28,4.99 9.28,11.66 0,6.17 -3.39,11.56 -8.07,11.56 -1.94,0 -5.04,-0.5 -8.02,-2.94 l 0.14,-3.04 c 0.8,1.2 2.59,2.93 5.33,2.93 2.94,0 6.73,-2.14 6.73,-8.51 0,-6.47 -4.18,-8.63 -7.23,-8.63 -1.94,0 -3.58,0.91 -4.83,3.19 v 11.02 l -0.14,3.04 z" /><polygon
           style="fill:#000000;stroke-width:0"
           id="polygon3674"
           points="583.38,440.78 583.38,406.2 587.12,406.2 587.12,440.78 " /><path
           style="fill:#000000;stroke-width:0"
           inkscape:connector-curvature="0"
           id="path3676"
           d="m 611.85,417.11 0,0.16 0,0.18 0,0.19 0,0.19 -0.01,0.21 0,0.22 -0.01,0.23 -0.01,0.23 -0.02,0.24 -0.01,0.25 -0.03,0.26 -0.02,0.26 -0.03,0.27 -0.04,0.27 -0.04,0.28 -0.04,0.29 -0.05,0.28 -0.06,0.29 -0.06,0.3 -0.07,0.29 -0.08,0.3 -0.08,0.29 -0.09,0.3 -0.1,0.3 -0.11,0.3 -0.12,0.3 -0.12,0.29 -0.14,0.3 -0.14,0.29 -0.16,0.29 -0.16,0.29 -0.18,0.28 c -2.05,3.09 -5.09,3.64 -6.87,3.64 -5.53,0 -10.02,-5.28 -10.02,-11.71 0,-6.57 4.78,-11.81 10.75,-11.81 3.14,0 5.99,1.19 7.92,2.6 l -0.3,3.23 c -3.13,-2.59 -6.42,-2.8 -7.56,-2.8 -4,0 -7.19,3.55 -7.32,8.43 l 0.25,2.75 c 0.79,3.78 3.43,6.26 6.28,6.26 2.57,0 5.37,-1.69 6.01,-6.26 h -12.29 l -0.25,-2.75 z" /><path
           style="fill:#000000;stroke-width:0"
           inkscape:connector-curvature="0"
           id="path3678"
           d="m 630.4,427.57 -0.24,0.11 -0.24,0.11 -0.47,0.19 -0.46,0.18 -0.45,0.16 -0.44,0.15 -0.44,0.13 -0.43,0.12 -0.44,0.1 -0.43,0.08 -0.43,0.08 -0.44,0.06 -0.44,0.05 -0.44,0.03 -0.45,0.03 -0.46,0.01 -0.47,0.01 c -1.25,0 -8.28,0 -8.28,-6.53 0,-2.44 1.45,-4.03 2.69,-4.99 1.54,-1.09 2.64,-1.29 5.39,-1.84 1.79,-0.35 4.67,-0.94 4.67,-3.58 0,-3.44 -3.92,-3.44 -4.67,-3.44 -4.05,0 -6.83,1.85 -7.72,2.44 l -0.61,-3.39 c 1.59,-0.8 4.34,-2.19 8.37,-2.19 0.9,0 3.65,0 5.78,1.6 1.55,1.18 2.4,3.18 2.4,5.32 0,2.75 -1.85,4.44 -1.94,4.58 -1.96,1.75 -3.3,2.05 -5.78,2.5 -2.75,0.55 -5.03,1.05 -5.03,3.49 0,3.09 3.57,3.09 4.23,3.09 1.59,0 4.24,-0.2 7.06,-1.89 z" /><path
           style="fill:#000000;stroke-width:0"
           inkscape:connector-curvature="0"
           id="path3680"
           d="m 673.59,426.68 -4.18,9.91 c -0.15,0.41 -0.25,0.59 -0.25,0.64 0,0.31 0.85,1.25 2.94,1.45 0.5,0.05 1,0.1 1,0.96 0,0.59 -0.61,0.59 -0.75,0.59 -2.05,0 -4.19,-0.16 -6.28,-0.16 -1.25,0 -4.33,0.16 -5.58,0.16 -0.29,0 -0.9,0 -0.9,-1 0,-0.55 0.5,-0.55 1.15,-0.55 2.99,0 3.28,-0.5 3.74,-1.59 l 5.87,-13.91 -10.51,-11.31 -0.64,-0.55 c -2.44,-2.64 -4.79,-3.43 -7.33,-3.57 -0.64,-0.05 -1.1,-0.05 -1.1,-1 0,-0.05 0,-0.55 0.66,-0.55 1.48,0 3.12,0.16 4.67,0.16 1.85,0 3.8,-0.16 5.58,-0.16 0.31,0 0.91,0 0.91,1 0,0.5 -0.5,0.55 -0.6,0.55 -0.45,0.04 -2,0.14 -2,1.54 0,0.8 0.75,1.6 1.35,2.24 l 5.07,5.39 4.49,4.87 5.03,-11.9 c 0.2,-0.55 0.25,-0.6 0.25,-0.71 0,-0.39 -0.94,-1.23 -2.89,-1.43 -0.55,-0.05 -0.99,-0.11 -0.99,-0.96 0,-0.59 0.55,-0.59 0.74,-0.59 1.41,0 4.89,0.16 6.28,0.16 1.25,0 4.28,-0.16 5.53,-0.16 0.35,0 0.95,0 0.95,0.95 0,0.6 -0.5,0.6 -0.9,0.6 -3.33,0.04 -3.44,0.2 -4.28,2.18 -1.94,4.64 -5.28,12.41 -6.42,15.39 3.39,3.5 8.6,9.43 10.2,10.82 1.45,1.2 3.34,2.39 6.33,2.54 0.65,0.05 1.09,0.05 1.09,1 0,0.05 0,0.55 -0.64,0.55 -1.5,0 -3.14,-0.16 -4.69,-0.16 -1.84,0 -3.73,0.16 -5.53,0.16 -0.3,0 -0.94,0 -0.94,-1 0,-0.34 0.25,-0.5 0.6,-0.55 0.45,-0.04 2,-0.15 2,-1.54 0,-0.71 -0.55,-1.35 -0.96,-1.8 z" /><path
           style="fill:#000000;stroke-width:0"
           inkscape:connector-curvature="0"
           id="path3682"
           d="m 702.39,420.92 0,0.04 0,0.04 0,0.05 0,0.04 0,0.03 0,0.04 0,0.04 0,0.03 -0.01,0.04 0,0.03 0,0.03 0,0.03 0,0.03 -0.01,0.03 0,0.03 0,0.02 -0.01,0.03 0,0.02 -0.01,0.03 0,0.02 -0.02,0.04 -0.01,0.04 -0.02,0.03 -0.02,0.03 -0.02,0.03 -0.02,0.03 -0.03,0.02 -0.03,0.02 -0.04,0.02 -0.03,0.01 -0.04,0.01 -0.05,0.02 -0.02,0 -0.03,0 -0.02,0.01 -0.03,0 -0.02,0.01 -0.03,0 -0.03,0 -0.03,0 -0.04,0 -0.03,0.01 -0.03,0 -0.04,0 -0.04,0 -0.03,0 -0.04,0 -0.04,0 -0.04,0 -0.05,0 -0.04,0 -0.05,0 c -2.23,-2.2 -5.39,-2.23 -6.82,-2.23 v -1.25 c 0.84,0 3.14,0 5.04,0.97 v -17.77 c 0,-1.16 0,-1.61 -3.48,-1.61 h -1.31 v -1.25 c 0.62,0.03 4.9,0.14 6.2,0.14 1.08,0 5.47,-0.11 6.23,-0.14 v 1.25 h -1.32 c -3.49,0 -3.49,0.45 -3.49,1.61 z" /><path
           style="fill:#000000;stroke-width:0"
           inkscape:connector-curvature="0"
           id="path3684"
           d="m 718.14,411.76 0,0.11 -0.01,0.12 -0.01,0.1 -0.02,0.11 -0.03,0.1 -0.03,0.1 -0.03,0.1 -0.04,0.09 -0.04,0.09 -0.04,0.09 -0.06,0.08 -0.05,0.08 -0.06,0.08 -0.06,0.08 -0.06,0.07 -0.07,0.07 -0.07,0.06 -0.07,0.06 -0.08,0.06 -0.08,0.05 -0.08,0.05 -0.08,0.04 -0.09,0.05 -0.09,0.03 -0.08,0.04 -0.09,0.03 -0.09,0.02 -0.1,0.02 -0.09,0.02 -0.09,0.01 -0.1,0 -0.09,0.01 c -1.22,0 -2.02,-0.97 -2.02,-1.99 0,-1.22 0.97,-2.01 1.98,-2.01 1.22,0 2.02,0.97 2.02,1.98 z" /><path
           style="fill:#000000;stroke-width:0"
           inkscape:connector-curvature="0"
           id="path3686"
           d="m 718.14,400.75 0,0.11 -0.01,0.11 -0.01,0.11 -0.02,0.1 -0.03,0.11 -0.03,0.09 -0.03,0.1 -0.04,0.1 -0.04,0.09 -0.04,0.08 -0.06,0.09 -0.05,0.08 -0.06,0.08 -0.06,0.07 -0.06,0.07 -0.07,0.07 -0.07,0.07 -0.07,0.06 -0.08,0.05 -0.08,0.06 -0.08,0.04 -0.08,0.05 -0.09,0.04 -0.09,0.04 -0.08,0.03 -0.09,0.03 -0.09,0.03 -0.1,0.02 -0.09,0.01 -0.09,0.01 -0.1,0.01 -0.09,0 c -1.22,0 -2.02,-0.97 -2.02,-1.98 0,-1.22 0.97,-2.02 1.98,-2.02 1.22,0 2.02,0.97 2.02,1.99 z" /><path
           style="fill:#000000;stroke-width:0"
           inkscape:connector-curvature="0"
           id="path3688"
           d="m 726.04,400.95 -0.01,-0.04 -0.01,-0.05 -0.02,-0.04 -0.01,-0.05 -0.02,-0.05 -0.01,-0.06 -0.02,-0.05 -0.01,-0.05 -0.03,-0.11 -0.03,-0.11 -0.03,-0.12 -0.02,-0.1 -0.01,-0.06 -0.02,-0.05 -0.01,-0.05 -0.01,-0.05 -0.01,-0.05 -0.01,-0.04 -0.01,-0.05 -0.01,-0.04 0,-0.03 -0.01,-0.04 -0.01,-0.03 0,-0.03 -0.01,-0.02 0,-0.02 0,-0.01 0,-0.01 0,-0.01 0,0 c 0,-0.77 0.62,-1.11 1.19,-1.11 0.62,0 1.17,0.45 1.36,0.76 0.17,0.32 0.45,1.43 0.62,2.16 0.17,0.66 0.55,2.27 0.77,3.14 0.2,0.77 0.42,1.53 0.59,2.33 0.37,1.44 0.45,1.7 1.45,3.14 0.99,1.39 2.63,3.2 5.24,3.2 2.01,0 2.05,-1.78 2.05,-2.44 0,-2.09 -1.49,-5.95 -2.05,-7.42 -0.39,-0.98 -0.53,-1.29 -0.53,-1.89 0,-1.84 1.54,-2.98 3.31,-2.98 3.48,0 5.02,4.79 5.02,5.33 0,0.45 -0.46,0.45 -0.55,0.45 -0.5,0 -0.53,-0.2 -0.67,-0.59 -0.8,-2.79 -2.3,-4.22 -3.69,-4.22 -0.74,0 -0.88,0.48 -0.88,1.22 0,0.79 0.17,1.25 0.8,2.82 0.42,1.08 1.86,4.77 1.86,6.72 0,3.39 -2.69,3.97 -4.53,3.97 -2.89,0 -4.84,-1.76 -5.89,-3.16 -0.25,2.4 -2.3,3.16 -3.74,3.16 -1.5,0 -2.29,-1.08 -2.75,-1.87 -0.76,-1.29 -1.25,-3.29 -1.25,-3.46 0,-0.45 0.49,-0.45 0.6,-0.45 0.48,0 0.51,0.11 0.76,1.05 0.52,2.06 1.19,3.76 2.55,3.76 0.91,0 1.14,-0.76 1.14,-1.7 0,-0.67 -0.31,-1.95 -0.56,-2.89 -0.24,-0.95 -0.58,-2.38 -0.77,-3.14 z" /></g>    </g>
    <g
       id="g3976"
       transform="matrix(0,-0.45041372,0.45041372,0,-13.10952,899.43873)">
      <g
         word-spacing="normal"
         letter-spacing="normal"
         font-size-adjust="none"
         font-stretch="normal"
         font-weight="normal"
         font-variant="normal"
         font-style="normal"
         stroke-miterlimit="10.433"
         xml:space="preserve"
         transform="matrix(0.74915631,0,0,-0.74915631,-131.10235,558.07086)"
         id="g3978"
         style="font-style:normal;font-variant:normal;font-weight:normal;font-stretch:normal;letter-spacing:normal;word-spacing:normal;text-anchor:start;fill:none;stroke:#000000;stroke-linecap:butt;stroke-linejoin:miter;stroke-miterlimit:10.43299961;stroke-opacity:1;stroke-dasharray:none;stroke-dashoffset:0"><path
           id="path3980"
           d="m 464.29,425.43 h 5.48 v 2.89 h -5.63 v 5.93 c 0,3.68 3.33,4.03 4.63,4.03 1,0 2.34,-0.1 4.03,-0.85 v 3.35 c -0.59,0.14 -2.14,0.54 -3.98,0.54 -4.68,0 -8.27,-3.53 -8.27,-8.51 v -4.49 h -3.69 v -2.89 h 3.69 V 406.2 h 3.74 z"
           inkscape:connector-curvature="0"
           style="fill:#000000;stroke-width:0" /><path
           id="path3982"
           d="m 492.43,428.32 h -3.89 v -14.45 c 0,-3.73 -2.78,-5.48 -5.97,-5.48 -3.55,0 -3.89,1.29 -3.89,3.43 v 16.5 h -3.89 v -16.68 c 0,-3.6 1.16,-5.99 5.28,-5.99 2.64,0 6.19,0.8 8.63,2.94 v -2.39 h 3.73 z"
           inkscape:connector-curvature="0"
           style="fill:#000000;stroke-width:0" /><path
           id="path3984"
           d="m 518.11,421.04 0,0.32 -0.01,0.31 -0.01,0.33 -0.03,0.33 -0.02,0.33 -0.04,0.33 -0.05,0.33 -0.05,0.34 -0.07,0.33 -0.08,0.33 -0.09,0.33 -0.11,0.32 -0.12,0.32 -0.14,0.31 -0.15,0.3 -0.17,0.29 -0.18,0.29 -0.21,0.27 -0.22,0.26 -0.25,0.25 -0.26,0.24 -0.29,0.22 -0.31,0.2 -0.34,0.19 -0.17,0.09 -0.19,0.08 -0.19,0.08 -0.19,0.07 -0.2,0.07 -0.21,0.06 -0.22,0.06 -0.22,0.05 -0.23,0.05 -0.24,0.04 -0.24,0.03 -0.25,0.03 -0.26,0.02 -0.26,0.02 -0.28,0.01 -0.28,0 c -4.48,0 -6.92,-3.39 -7.22,-3.8 v 3.55 h -3.59 V 406.2 h 3.89 v 12.2 c 0,3.3 1.25,7.42 5.03,7.42 4.78,0 4.83,-3.53 4.83,-5.12 v -14.5 h 3.89 z"
           inkscape:connector-curvature="0"
           style="fill:#000000;stroke-width:0" /><path
           id="path3986"
           d="m 542.54,427.03 -0.27,0.15 -0.27,0.15 -0.26,0.14 -0.25,0.13 -0.25,0.13 -0.24,0.12 -0.24,0.12 -0.23,0.1 -0.23,0.11 -0.23,0.09 -0.22,0.09 -0.23,0.09 -0.44,0.15 -0.44,0.13 -0.44,0.11 -0.44,0.1 -0.45,0.07 -0.47,0.06 -0.24,0.02 -0.25,0.03 -0.24,0.01 -0.26,0.02 -0.26,0.01 -0.27,0 -0.27,0.01 -0.28,0 c -6.92,0 -10.96,-6.03 -10.96,-11.91 0,-6.19 4.54,-11.61 10.77,-11.61 2.69,0 5.42,0.71 8.11,2.55 l -0.3,3.33 c -2.53,-1.99 -5.23,-2.69 -7.76,-2.69 -4.14,0 -6.94,3.59 -6.94,8.47 0,3.89 1.84,8.67 7.12,8.67 2.6,0 4.3,-0.41 7.04,-2.19 z"
           inkscape:connector-curvature="0"
           style="fill:#000000;stroke-width:0" /><path
           id="path3988"
           d="m 552.91,425.43 h 7.04 v 2.89 h -7.04 v 6.33 h -3.43 v -6.33 h -4.33 v -2.89 h 4.17 v -13.31 c 0,-2.98 0.7,-6.47 4.14,-6.47 3.49,0 6.03,1.25 7.28,1.89 l -0.79,2.94 c -1.3,-1.05 -2.9,-1.64 -4.49,-1.64 -1.84,0 -2.55,1.5 -2.55,4.14 z"
           inkscape:connector-curvature="0"
           style="fill:#000000;stroke-width:0" /><polygon
           id="polygon3990"
           points="570.32,435.64 570.32,440.07 565.88,440.07 565.88,435.64 "
           style="fill:#000000;stroke-width:0" /><polygon
           id="polygon3992"
           points="569.96,406.2 569.96,428.32 566.23,428.32 566.23,406.2 "
           style="fill:#000000;stroke-width:0" /><path
           id="path3994"
           d="m 597.43,417.15 -0.01,0.62 -0.04,0.62 -0.07,0.6 -0.1,0.6 -0.12,0.58 -0.15,0.57 -0.18,0.56 -0.2,0.55 -0.22,0.53 -0.24,0.52 -0.26,0.51 -0.29,0.48 -0.31,0.47 -0.32,0.46 -0.35,0.43 -0.36,0.42 -0.38,0.39 -0.4,0.38 -0.41,0.36 -0.43,0.33 -0.45,0.31 -0.45,0.29 -0.47,0.26 -0.48,0.24 -0.5,0.21 -0.5,0.19 -0.52,0.16 -0.52,0.14 -0.53,0.1 -0.54,0.08 -0.55,0.04 -0.55,0.02 -0.05,-3.05 c 3.49,0 7.08,-2.58 7.08,-8.47 0,-5.87 -3.39,-8.81 -7.08,-8.81 h 0 c -3.44,0 -7.03,2.8 -7.03,8.81 0,6.03 3.8,8.47 7.03,8.47 l 0.05,3.05 c -6.13,0 -10.96,-5.49 -10.96,-12.02 0,-6.56 5.08,-11.5 10.91,-11.5 5.99,0 10.95,5.03 10.95,11.5 z"
           inkscape:connector-curvature="0"
           style="fill:#000000;stroke-width:0" /><path
           id="path3996"
           d="m 620.7,421.04 0,0.32 -0.01,0.31 -0.01,0.33 -0.02,0.33 -0.03,0.33 -0.04,0.33 -0.04,0.33 -0.06,0.34 -0.07,0.33 -0.08,0.33 -0.09,0.33 -0.1,0.32 -0.13,0.32 -0.13,0.31 -0.15,0.3 -0.17,0.29 -0.19,0.29 -0.2,0.27 -0.23,0.26 -0.24,0.25 -0.27,0.24 -0.29,0.22 -0.31,0.2 -0.33,0.19 -0.18,0.09 -0.18,0.08 -0.19,0.08 -0.2,0.07 -0.2,0.07 -0.21,0.06 -0.21,0.06 -0.23,0.05 -0.23,0.05 -0.23,0.04 -0.25,0.03 -0.25,0.03 -0.25,0.02 -0.27,0.02 -0.27,0.01 -0.28,0 c -4.49,0 -6.93,-3.39 -7.22,-3.8 v 3.55 h -3.6 V 406.2 h 3.89 v 12.2 c 0,3.3 1.25,7.42 5.03,7.42 4.79,0 4.83,-3.53 4.83,-5.12 v -14.5 h 3.89 z"
           inkscape:connector-curvature="0"
           style="fill:#000000;stroke-width:0" /><path
           id="path3998"
           d="m 656.6,421.95 0.21,1.28 3.39,13.56 c 0.44,1.74 0.55,1.89 2.69,1.89 h 4.78 c 4.14,0 6.78,-1.34 6.78,-4.78 0,-1.95 -1,-6.23 -2.94,-8.03 -2.5,-2.23 -5.48,-2.64 -7.69,-2.64 h -7.01 l -0.21,-1.28 h 8.47 c 7.08,0 14,5.17 14,10.75 0,3.84 -3.28,7.53 -9.81,7.53 h -16.14 c -0.95,0 -1.5,0 -1.5,-0.95 0,-0.6 0.45,-0.6 1.45,-0.6 0.65,0 1.55,-0.04 2.15,-0.09 0.79,-0.11 1.09,-0.25 1.09,-0.8 0,-0.2 -0.05,-0.36 -0.21,-0.95 l -6.67,-26.75 c -0.5,-1.95 -0.59,-2.34 -4.53,-2.34 -0.84,0 -1.39,0 -1.39,-0.96 0,-0.59 0.59,-0.59 0.74,-0.59 1.4,0 4.93,0.16 6.32,0.16 1.05,0 2.15,-0.07 3.19,-0.07 1.11,0 2.21,-0.09 3.25,-0.09 0.34,0 0.99,0 0.99,1 0,0.55 -0.44,0.55 -1.4,0.55 -1.84,0 -3.23,0 -3.23,0.89 0,0.29 0.1,0.54 0.14,0.84 z"
           inkscape:connector-curvature="0"
           style="fill:#000000;stroke-width:0" /><path
           id="path4000"
           d="m 697,394.25 0,0.02 -0.01,0.03 0,0.01 0,0.02 0,0.01 -0.01,0.02 0,0.01 -0.01,0.02 -0.01,0.02 -0.01,0.02 -0.01,0.02 -0.01,0.03 -0.02,0.02 -0.02,0.03 -0.02,0.03 -0.02,0.03 -0.03,0.03 -0.03,0.04 -0.02,0.02 -0.01,0.02 -0.02,0.02 -0.02,0.02 -0.02,0.02 -0.02,0.03 -0.02,0.02 -0.02,0.02 -0.02,0.03 -0.03,0.02 -0.02,0.03 -0.03,0.03 -0.02,0.03 -0.03,0.03 -0.03,0.03 -0.03,0.03 -0.03,0.03 -0.03,0.03 -0.04,0.04 -0.03,0.03 -0.03,0.04 -0.04,0.03 -0.04,0.04 -0.04,0.04 c -6.22,6.28 -7.81,15.69 -7.81,23.31 0,8.67 1.89,17.35 8.01,23.56 0.65,0.61 0.65,0.71 0.65,0.86 0,0.35 -0.19,0.49 -0.49,0.49 -0.5,0 -4.98,-3.38 -7.92,-9.7 -2.55,-5.49 -3.14,-11.02 -3.14,-15.21 0,-3.89 0.55,-9.9 3.28,-15.54 2.99,-6.13 7.28,-9.36 7.78,-9.36 0.3,0 0.49,0.14 0.49,0.5 z"
           inkscape:connector-curvature="0"
           style="fill:#000000;stroke-width:0" /><path
           id="path4002"
           d="m 723.98,426.68 -4.17,9.91 c -0.15,0.41 -0.25,0.59 -0.25,0.64 0,0.31 0.85,1.25 2.94,1.45 0.5,0.05 1,0.1 1,0.96 0,0.59 -0.61,0.59 -0.75,0.59 -2.05,0 -4.19,-0.16 -6.28,-0.16 -1.25,0 -4.33,0.16 -5.58,0.16 -0.3,0 -0.91,0 -0.91,-1 0,-0.55 0.5,-0.55 1.16,-0.55 2.98,0 3.28,-0.5 3.74,-1.59 l 5.87,-13.91 -10.52,-11.31 -0.64,-0.55 c -2.43,-2.64 -4.78,-3.43 -7.32,-3.57 -0.65,-0.05 -1.1,-0.05 -1.1,-1 0,-0.05 0,-0.55 0.66,-0.55 1.48,0 3.12,0.16 4.67,0.16 1.84,0 3.8,-0.16 5.58,-0.16 0.31,0 0.9,0 0.9,1 0,0.5 -0.5,0.55 -0.59,0.55 -0.45,0.04 -2,0.14 -2,1.54 0,0.8 0.75,1.6 1.34,2.24 l 5.08,5.39 4.49,4.87 5.03,-11.9 c 0.2,-0.55 0.25,-0.6 0.25,-0.71 0,-0.39 -0.94,-1.23 -2.89,-1.43 -0.55,-0.05 -0.99,-0.11 -0.99,-0.96 0,-0.59 0.55,-0.59 0.74,-0.59 1.4,0 4.89,0.16 6.28,0.16 1.25,0 4.28,-0.16 5.53,-0.16 0.34,0 0.95,0 0.95,0.95 0,0.6 -0.5,0.6 -0.9,0.6 -3.33,0.04 -3.44,0.2 -4.28,2.18 -1.94,4.64 -5.29,12.41 -6.43,15.39 3.39,3.5 8.61,9.43 10.21,10.82 1.45,1.2 3.34,2.39 6.32,2.54 0.66,0.05 1.1,0.05 1.1,1 0,0.05 0,0.55 -0.64,0.55 -1.5,0 -3.14,-0.16 -4.69,-0.16 -1.84,0 -3.73,0.16 -5.53,0.16 -0.3,0 -0.94,0 -0.94,-1 0,-0.34 0.25,-0.5 0.6,-0.55 0.45,-0.04 2,-0.15 2,-1.54 0,-0.71 -0.55,-1.35 -0.96,-1.8 z"
           inkscape:connector-curvature="0"
           style="fill:#000000;stroke-width:0" /><path
           id="path4004"
           d="m 752.79,420.92 0,0.04 0,0.04 0,0.05 0,0.04 0,0.03 0,0.04 0,0.04 0,0.03 0,0.04 0,0.03 -0.01,0.03 0,0.03 0,0.03 -0.01,0.03 0,0.03 0,0.02 -0.01,0.03 0,0.02 -0.01,0.03 0,0.02 -0.01,0.04 -0.02,0.04 -0.02,0.03 -0.02,0.03 -0.02,0.03 -0.02,0.03 -0.03,0.02 -0.03,0.02 -0.03,0.02 -0.04,0.01 -0.04,0.01 -0.05,0.02 -0.02,0 -0.02,0 -0.03,0.01 -0.03,0 -0.02,0.01 -0.03,0 -0.03,0 -0.03,0 -0.03,0 -0.04,0.01 -0.03,0 -0.04,0 -0.03,0 -0.04,0 -0.04,0 -0.04,0 -0.04,0 -0.04,0 -0.05,0 -0.04,0 c -2.24,-2.2 -5.4,-2.23 -6.83,-2.23 v -1.25 c 0.84,0 3.14,0 5.05,0.97 v -17.77 c 0,-1.16 0,-1.61 -3.49,-1.61 h -1.31 v -1.25 c 0.62,0.03 4.9,0.14 6.2,0.14 1.08,0 5.47,-0.11 6.23,-0.14 v 1.25 h -1.32 c -3.49,0 -3.49,0.45 -3.49,1.61 z"
           inkscape:connector-curvature="0"
           style="fill:#000000;stroke-width:0" /><path
           id="path4006"
           d="m 768.54,411.76 0,0.11 -0.01,0.12 -0.01,0.1 -0.02,0.11 -0.02,0.1 -0.03,0.1 -0.04,0.1 -0.03,0.09 -0.05,0.09 -0.04,0.09 -0.05,0.08 -0.06,0.08 -0.05,0.08 -0.07,0.08 -0.06,0.07 -0.07,0.07 -0.07,0.06 -0.07,0.06 -0.08,0.06 -0.08,0.05 -0.08,0.05 -0.08,0.04 -0.09,0.05 -0.08,0.03 -0.09,0.04 -0.09,0.03 -0.09,0.02 -0.09,0.02 -0.1,0.02 -0.09,0.01 -0.1,0 -0.09,0.01 c -1.22,0 -2.02,-0.97 -2.02,-1.99 0,-1.22 0.97,-2.01 1.99,-2.01 1.22,0 2.01,0.97 2.01,1.98 z"
           inkscape:connector-curvature="0"
           style="fill:#000000;stroke-width:0" /><path
           id="path4008"
           d="m 768.54,400.75 0,0.11 -0.01,0.11 -0.01,0.11 -0.02,0.1 -0.02,0.11 -0.03,0.09 -0.04,0.1 -0.03,0.1 -0.05,0.09 -0.04,0.08 -0.05,0.09 -0.06,0.08 -0.05,0.08 -0.07,0.07 -0.06,0.07 -0.07,0.07 -0.07,0.07 -0.07,0.06 -0.08,0.05 -0.08,0.06 -0.08,0.04 -0.08,0.05 -0.09,0.04 -0.08,0.04 -0.09,0.03 -0.09,0.03 -0.09,0.03 -0.09,0.02 -0.1,0.01 -0.09,0.01 -0.1,0.01 -0.09,0 c -1.22,0 -2.02,-0.97 -2.02,-1.98 0,-1.22 0.97,-2.02 1.99,-2.02 1.22,0 2.01,0.97 2.01,1.99 z"
           inkscape:connector-curvature="0"
           style="fill:#000000;stroke-width:0" /><path
           id="path4010"
           d="m 801.26,418.76 0.07,0.25 0.07,0.24 0.04,0.12 0.05,0.11 0.05,0.12 0.05,0.11 0.05,0.11 0.07,0.11 0.06,0.1 0.07,0.1 0.08,0.1 0.08,0.09 0.09,0.1 0.1,0.08 0.1,0.09 0.11,0.08 0.12,0.08 0.13,0.07 0.13,0.07 0.15,0.06 0.15,0.06 0.16,0.05 0.18,0.05 0.18,0.05 0.2,0.04 0.2,0.03 0.22,0.03 0.11,0.01 0.12,0.01 0.12,0.01 0.12,0.01 0.13,0 0.13,0.01 c 0.17,0 0.7,0.03 0.7,0.76 0,0.21 -0.17,0.49 -0.53,0.49 -1.14,0 -2.44,-0.14 -3.63,-0.14 -0.83,0 -2.84,0.14 -3.69,0.14 -0.17,0 -0.7,0 -0.7,-0.77 0,-0.45 0.45,-0.48 0.78,-0.48 1.63,-0.03 2.22,-0.56 2.22,-1.44 0,-0.26 -0.03,-0.45 -0.14,-0.83 l -3.8,-15.18 -8.84,18.1 c -0.28,0.6 -0.34,0.6 -1.19,0.6 h -4.76 c -0.67,0 -1.13,0 -1.13,-0.77 0,-0.48 0.42,-0.48 1.16,-0.48 0.73,0 1.5,-0.03 2.22,-0.17 l -4.66,-18.64 c -0.31,-1.33 -0.91,-2.38 -3.62,-2.49 -0.25,0 -0.74,-0.03 -0.74,-0.73 0,-0.38 0.28,-0.52 0.52,-0.52 1.15,0 2.43,0.14 3.62,0.14 0.85,0 2.86,-0.14 3.71,-0.14 0.34,0 0.68,0.17 0.68,0.74 0,0.48 -0.42,0.51 -0.79,0.51 -2.21,0.08 -2.21,0.99 -2.21,1.47 0,0.14 0,0.31 0.14,0.88 l 4.47,17.82 10.17,-20.82 c 0.29,-0.57 0.43,-0.6 0.77,-0.6 0.56,0 0.56,0.11 0.73,0.74 z"
           inkscape:connector-curvature="0"
           style="fill:#000000;stroke-width:0" /><path
           id="path4012"
           d="m 824.39,418.65 0,0.37 -0.01,0.39 0,0.39 -0.02,0.41 -0.04,0.84 -0.06,0.88 -0.08,0.92 -0.11,0.95 -0.13,0.97 -0.16,1.01 -0.2,1.02 -0.23,1.03 -0.27,1.05 -0.3,1.06 -0.35,1.07 -0.39,1.07 -0.22,0.53 -0.22,0.53 -0.24,0.53 -0.25,0.53 c -2.99,6.12 -7.27,9.36 -7.77,9.36 -0.29,0 -0.5,-0.19 -0.5,-0.49 0,-0.15 0,-0.25 0.94,-1.15 4.89,-4.92 7.74,-12.85 7.74,-23.27 0,-8.51 -1.85,-17.28 -8.04,-23.56 -0.64,-0.59 -0.64,-0.7 -0.64,-0.84 0,-0.3 0.21,-0.5 0.5,-0.5 0.5,0 4.97,3.39 7.93,9.71 2.53,5.47 3.12,11 3.12,15.19 z"
           inkscape:connector-curvature="0"
           style="fill:#000000;stroke-width:0" /></g>    </g>
  </g>
</svg>
