<svg xmlns="http://www.w3.org/2000/svg" width="446.3501892089844" height="229.6798858642578" viewBox="-64.15526580810547 -13.550362586975098 446.3501892089844 229.6798858642578"><title>Neo4j Graph Visualization</title><desc>Created using Neo4j (http://www.neo4j.com/)</desc><g class="layer relationships"><g class="relationship" transform="translate(31.89375059415798 101.3030550481809) rotate(359.9951709531258)"><path class="outline" fill="#A5ABB6" stroke="none" d="M 12.066987298107785,21.900635094610966 L 12.933012701892222,21.400635094610966 A 169.852589815268 169.852589815268 0 0 0 134.24554822050575,104.35847079911245 L 134.09374528251095,105.34688157809866 A 170.852589815268 170.852589815268 0 0 1 12.066987298107785,21.900635094610966 Z M 179.6459605070771,106.1970805851153 L 179.5311463848692,105.20369359237701 A 169.852589815268 169.852589815268 0 0 0 303.8548087611817,26.830479085947072 L 301.31451534786765,25.23457514952949 L 308.00196684837505,21.16911177761716 L 307.24186664560045,28.958351001170513 L 304.7015732322864,27.36244706475293 A 170.852589815268 170.852589815268 0 0 1 179.6459605070771,106.1970805851153"/><text text-anchor="middle" pointer-events="none" font-size="8px" fill="#000000" x="156.8507166936937" y="109.79726615475774" font-family="sans-serif">ACTED_IN</text></g><g class="relationship" transform="translate(31.89375059415798 101.3030550481809) rotate(359.9951709531258)"><path class="outline" fill="#A5ABB6" stroke="none" d="M 21.40063509461097,12.933012701892217 L 21.90063509461097,12.06698729810778 A 276.25807057176473 276.25807057176473 0 0 0 132.8283486206718,47.73612115358901 L 132.72988517414325,48.73126182188554 A 277.25807057176473 277.25807057176473 0 0 1 21.40063509461097,12.933012701892217 Z M 181.4240979682713,49.2518752253946 L 181.34693365870348,48.25485683573021 A 276.25807057176473 276.25807057176473 0 0 0 293.01191505355206,14.965569246354137 L 291.5678061694442,12.336016141577431 L 299.3882237787157,12.034240700898629 L 294.93739356569586,18.471640052723078 L 293.493284681588,15.842086947946372 A 277.25807057176473 277.25807057176473 0 0 1 181.4240979682713,49.2518752253946"/><text text-anchor="middle" pointer-events="none" font-size="8px" fill="#000000" x="157.07088496134423" y="52.56273430254072" font-family="sans-serif">REVIEWED</text></g><g class="relationship" transform="translate(31.89375059415798 101.3030550481809) rotate(359.9951709531258)"><path class="outline" fill="#A5ABB6" stroke="none" d="M 25 0.5 L 131.25995815926075 0.5 L 131.25995815926075 -0.5 L 25 -0.5 Z M 183.04120815926075 0.5 L 289.3011663185215 0.5 L 289.3011663185215 3.5 L 296.3011663185215 0 L 289.3011663185215 -3.5 L 289.3011663185215 -0.5 L 183.04120815926075 -0.5 Z"/><text text-anchor="middle" pointer-events="none" font-size="8px" fill="#000000" x="157.15058315926075" y="3" font-family="sans-serif">PRODUCED</text></g><g class="relationship" transform="translate(31.89375059415798 101.3030550481809) rotate(359.9951709531258)"><path class="outline" fill="#A5ABB6" stroke="none" d="M 21.40063509461097,-12.933012701892217 L 21.90063509461097,-12.06698729810778 A 276.25807057176473 276.25807057176473 0 0 1 139.24143901792257,-48.295290270177986 L 139.16618970006718,-49.29245502094 A 277.25807057176473 277.25807057176473 0 0 0 21.40063509461097,-12.933012701892217 Z M 174.97726610938193,-49.67532857619386 L 174.9233538979247,-48.67678289699046 A 276.25807057176473 276.25807057176473 0 0 1 293.01191505355206,-14.965569246354137 L 291.5678061694442,-12.336016141577431 L 299.3882237787157,-12.034240700898629 L 294.93739356569586,-18.471640052723078 L 293.493284681588,-15.842086947946372 A 277.25807057176473 277.25807057176473 0 0 0 174.97726610938193,-49.67532857619386"/><text text-anchor="middle" pointer-events="none" font-size="8px" fill="#000000" x="157.07088496134423" y="-46.56273430254072" font-family="sans-serif">WROTE</text></g><g class="relationship" transform="translate(31.89375059415798 101.3030550481809) rotate(449.9951709531258)"><path class="outline" fill="#A5ABB6" stroke="none" d="M 6.953439040707552 24.018736134675446 L 17.306200844808384 62.65576918623819 A 17.916697508022974 17.916697508022974 0 1 1 -17.306200844808384 62.65576918623819 L -8.765172356425198 30.780216918698923 L -4.901469051268926 31.815493099109005 L -6.4704761275630185 24.148145657226706 L -11.662949835292403 30.00375978339136 L -7.79924653013613 31.039035963801442 L -16.340275018519314 62.91458823134071 A 16.916697508022974 16.916697508022974 0 1 0 16.340275018519314 62.91458823134071 L 5.987513214418485 24.277555179777966 Z"/><text text-anchor="middle" pointer-events="none" font-size="8px" fill="#000000" x="0" y="94.20964923467838" font-family="sans-serif">FOLLOWS</text></g><g class="relationship" transform="translate(31.89375059415798 101.3030550481809) rotate(359.9951709531258)"><path class="outline" fill="#A5ABB6" stroke="none" d="M 12.066987298107785,-21.900635094610966 L 12.933012701892222,-21.400635094610966 A 169.852589815268 169.852589815268 0 0 1 133.59130574268963,-104.25668473559823 L 133.43565097954144,-105.24449625340377 A 170.852589815268 170.852589815268 0 0 0 12.066987298107785,-21.900635094610966 Z M 180.3074170331957,-106.11932371809404 L 180.18873140674643,-105.1263918362037 A 169.852589815268 169.852589815268 0 0 1 303.8548087611817,-26.830479085947072 L 301.31451534786765,-25.23457514952949 L 308.00196684837505,-21.16911177761716 L 307.24186664560045,-28.958351001170513 L 304.7015732322864,-27.36244706475293 A 170.852589815268 170.852589815268 0 0 0 180.3074170331957,-106.11932371809404"/><text text-anchor="middle" pointer-events="none" font-size="8px" fill="#000000" x="156.85071669369373" y="-103.79726615475774" font-family="sans-serif">DIRECTED</text></g></g><g class="layer nodes"><g class="node" transform="translate(353.1949157714844,101.27597489665473)"><circle class="outline" cx="0" cy="0" r="25" fill="#D9C8AE" stroke="#c0a378" stroke-width="2px"/><text text-anchor="middle" pointer-events="none" font-family="sans-serif" dy="1.5625" font-size="25" fill="#2A2C34"/><text text-anchor="middle" pointer-events="none" x="0" y="5" font-size="10px" fill="#2A2C34" font-family="sans-serif"> Movie</text></g><g class="node" transform="translate(31.89375059415798,101.3030550481809)"><circle class="outline" cx="0" cy="0" r="25" fill="#F16667" stroke="#eb2728" stroke-width="2px"/><text text-anchor="middle" pointer-events="none" font-family="sans-serif" dy="1.5625" font-size="25" fill="#FFFFFF"/><text text-anchor="middle" pointer-events="none" x="0" y="5" font-size="10px" fill="#FFFFFF" font-family="sans-serif"> Person</text></g></g></svg>