<svg width="300" height="300" viewBox="0 0 300 300" fill="none" xmlns="http://www.w3.org/2000/svg">
<g clip-path="url(#clip0_360_2)">
<rect width="300" height="300" fill="white"/>
<ellipse cx="199.299" cy="79.4557" rx="27.2722" ry="27.2725" transform="rotate(13.5202 199.299 79.4557)" fill="#FF762D" stroke="black" stroke-width="6"/>
<line x1="229.435" y1="83.6165" x2="263.376" y2="91.7777" stroke="black" stroke-width="6" stroke-linecap="round"/>
<line x1="203.458" y1="49.3207" x2="211.62" y2="15.3794" stroke="black" stroke-width="6" stroke-linecap="round"/>
<line x1="3" y1="-3" x2="37.9086" y2="-3" transform="matrix(0.852823 -0.522199 0.522196 0.852825 222.256 65.6392)" stroke="black" stroke-width="6" stroke-linecap="round"/>
<line x1="3" y1="-3" x2="37.9086" y2="-3" transform="matrix(-0.522196 -0.852825 -0.852823 0.522199 182.762 56.1436)" stroke="black" stroke-width="6" stroke-linecap="round"/>
<line x1="136.626" y1="61.3006" x2="170.567" y2="69.4618" stroke="black" stroke-width="6" stroke-linecap="round"/>
<ellipse cx="266.228" cy="92.7442" rx="6.81805" ry="6.81813" transform="rotate(13.5202 266.228 92.7442)" fill="#CCCCCC" stroke="black" stroke-width="6"/>
<ellipse cx="133.643" cy="60.8643" rx="6.81805" ry="6.81813" transform="rotate(13.5202 133.643 60.8643)" fill="#CCCCCC" stroke="black" stroke-width="6"/>
<ellipse cx="166.018" cy="19.5606" rx="6.81805" ry="6.81813" transform="rotate(13.5202 166.018 19.5606)" fill="#CCCCCC" stroke="black" stroke-width="6"/>
<ellipse cx="213.252" cy="12.6861" rx="6.81805" ry="6.81813" transform="rotate(13.5202 213.252 12.6861)" fill="#CCCCCC" stroke="black" stroke-width="6"/>
<ellipse cx="256.172" cy="41.2388" rx="6.81805" ry="6.81813" transform="rotate(13.5202 256.172 41.2388)" fill="#CCCCCC" stroke="black" stroke-width="6"/>
<path d="M205.508 73.8921L206.158 74.5415C207.122 75.5044 207.077 76.8035 206.046 77.8335L205.284 78.5942H199.298L199.365 91.6489C199.41 98.8143 199.478 104.704 199.5 104.704C199.538 104.718 202.483 104.139 206.024 103.427C218.49 100.897 224.656 100.225 235.507 100.225C247.726 100.225 253.87 101.188 265.192 104.882C267.636 105.688 270.035 106.607 270.483 106.898L271.335 107.458L271.447 142.792C271.515 162.227 271.671 181.193 271.806 184.956C271.918 188.717 272.187 196.666 272.389 202.645C272.747 213.527 273.263 223.336 273.622 226.269C273.734 227.142 273.847 228.754 273.847 229.874C273.847 231.687 273.802 231.956 273.354 232.359C272.614 233.031 270.954 233.523 268.241 233.904C262.815 234.643 257.524 234.711 223.176 234.509C204.611 234.42 173.738 234.33 154.568 234.33C135.399 234.33 101.454 234.397 79.123 234.487C56.8165 234.554 37.1327 234.554 35.4033 234.442C31.6369 234.24 27.9149 233.658 26.6143 233.098C25.1121 232.449 24.888 231.889 25.0449 229.336C25.1346 228.15 25.2912 226.202 25.4033 225.038C25.8517 220.716 26.4342 207.169 26.7705 193.913C27.3534 170.222 27.4434 162.855 27.4434 136.12V107.547L28.5195 106.988C29.9544 106.204 39.3035 103.159 43.1377 102.218C49.8414 100.584 56.523 99.9562 65.4463 100.158C76.2979 100.404 82.2848 101.12 93.4727 103.561C96.0734 104.121 98.4499 104.637 98.8086 104.726L99.4141 104.86V92.5669C99.4141 85.8064 99.3465 79.8964 99.2793 79.4458L99.1445 78.6392L96.2529 78.5493C93.4281 78.4821 93.3825 78.4828 92.71 77.8335C92.3288 77.4752 91.9705 76.8479 91.8809 76.4448C91.7239 75.6387 92.2395 74.474 92.8896 74.1157C93.196 73.9591 111.403 73.8921 149.412 73.8921H205.508Z" fill="#CCCCCC"/>
<path d="M35.3982 234.975C31.6344 234.773 27.9155 234.191 26.6161 233.631C25.0479 232.936 24.8911 232.488 25.0479 229.195C25.1375 227.627 25.2943 225.386 25.4063 224.221C25.832 220.032 26.4369 206.523 26.7729 193.081C27.3554 169.446 27.445 162.008 27.445 135.258V106.672L28.5204 106.112C29.9542 105.328 39.2963 102.281 43.1273 101.34C49.9826 99.6598 56.4123 99.0997 66.2025 99.2789C74.9397 99.4581 81.5263 100.063 87.8216 101.228C90.2859 101.698 98.351 103.401 98.9783 103.603C99.3368 103.715 99.3592 103.065 99.3592 92.2219C99.3592 85.9042 99.292 80.3482 99.2248 79.9002L99.0904 79.0937L96.2004 79.004L93.3103 78.9368L92.5934 78.2199C91.9885 77.6151 91.8765 77.3014 91.7869 76.1812C91.6749 74.7474 92.0782 73.6497 92.8399 73.224C93.1311 73.0672 111.524 73 149.99 73H206.715L207.365 73.6497C207.97 74.2546 208.015 74.4338 208.015 75.9124C208.015 77.4582 207.97 77.5702 207.253 78.2871L206.491 79.0489H203.512H200.509L200.577 91.1914C200.621 97.8899 200.711 103.401 200.756 103.446C200.801 103.491 203.736 102.975 207.275 102.281C219.418 99.8838 224.638 99.3461 236.018 99.3461C248.945 99.3461 254.86 100.242 266.352 104.006C268.794 104.812 271.191 105.731 271.64 106.022L272.491 106.582L272.603 141.935C272.67 161.38 272.827 180.356 272.961 184.12C273.073 187.883 273.342 195.837 273.544 201.818C273.902 212.706 274.418 222.519 274.776 225.454C274.888 226.327 275 228.232 275 229.733C275 232.242 274.955 232.466 274.507 232.891C273.768 233.563 272.11 234.056 269.399 234.437C263.955 235.177 258.713 235.244 223.697 235.042C182.273 234.818 135.227 234.818 79.7564 235.02C57.0844 235.087 37.1232 235.087 35.3982 234.975ZM99.3144 229.262L99.8073 229.15V182.798V136.446L99.3144 136.311C91.0252 134.004 85.4692 133.04 76.0599 132.256C64.9927 131.338 58.5406 131.45 50.4083 132.727C43.4857 133.78 40.9093 134.273 37.3472 135.169C35.1741 135.729 33.3819 136.177 33.3371 136.177C33.2923 136.177 33.2699 142.607 33.2699 150.47C33.2699 169.826 32.9562 184.657 31.9257 212.639C31.8137 215.82 31.5448 220.57 31.3432 223.213C31.1416 225.857 31.0295 228.164 31.0968 228.321C31.2536 228.747 34.39 229.172 38.4226 229.352C42.1415 229.509 98.5303 229.419 99.3144 229.262ZM262.275 229.352C265.411 229.128 268.862 228.635 269.13 228.388C269.175 228.321 269.063 226.372 268.862 224.065C268.279 217.411 268.279 217.321 268.055 209.435C267.921 205.313 267.674 197.338 267.473 191.737C267.249 185.755 267.047 172.224 266.957 158.983C266.89 146.594 266.756 136.379 266.688 136.311C266.442 136.043 262.589 135.079 258.758 134.273C245.719 131.607 235.212 131.002 223.585 132.256C215.744 133.085 206.85 134.609 202.279 135.863L200.173 136.468V180.513C200.173 204.731 200.241 225.633 200.33 226.955L200.465 229.374L226.699 229.441C241.126 229.464 254.255 229.509 255.89 229.553C257.503 229.576 260.371 229.486 262.275 229.352ZM117.775 205.47L117.842 181.767L118.379 179.863C118.94 177.824 121.359 172.336 122.345 170.812C124.854 167.004 130.813 160.507 133.86 158.311C137.4 155.735 148.288 149.843 149.475 149.843C150.483 149.843 153.552 151.232 158.481 153.898C164.306 157.057 166.3 158.423 169.907 161.739C176.269 167.586 180.414 174.061 181.87 180.423C182.318 182.372 182.341 183.134 182.408 205.806L182.497 229.15H188.524H194.573V188.959C194.573 166.869 194.505 148.454 194.438 148.073L194.281 147.379H149.968H105.632V188.264V229.15H111.681H117.707L117.775 205.47ZM128.775 217.456C128.797 211.003 128.797 202.221 128.752 197.898C128.663 189.138 128.954 182.686 129.491 180.647C130.701 176.189 134.913 170.543 139.775 166.892C140.895 166.063 143.381 164.45 145.308 163.307C147.996 161.739 148.982 161.268 149.609 161.268C150.685 161.268 153.463 162.657 157.742 165.346C165.135 169.961 170.041 176.368 171.049 182.663C171.161 183.448 171.273 192.543 171.273 204.395C171.273 215.619 171.341 225.767 171.43 226.977L171.565 229.15H174.119H176.673L176.605 206.59L176.538 184.008L175.956 181.879C174.007 174.845 168.697 167.855 161.685 163.106C158.504 160.932 155.524 159.185 152.253 157.527L149.946 156.362L148.333 157.169C143.919 159.387 139.461 162.097 136.436 164.383C131.396 168.169 126.601 174.598 124.742 179.975C123.398 183.896 123.443 183.022 123.398 203.498C123.375 213.849 123.42 223.863 123.487 225.745L123.622 229.15H126.153H128.707L128.775 217.456ZM194.349 140.456C194.349 139.873 194.281 138.753 194.214 137.992L194.057 136.625H149.856H105.632V138.059C105.632 138.843 105.699 139.941 105.766 140.523L105.923 141.554H150.125H194.349V140.456ZM194.125 127.216V123.407H190.652H187.18V127.104V130.778L189.263 130.867C190.383 130.89 191.951 130.957 192.736 130.979L194.125 131.024V127.216ZM112.801 127.104V123.407H109.217H105.632V127.104V130.8H109.217H112.801V127.104ZM124.227 127.104V123.407H121.874H119.522V127.104V130.8H121.874H124.227V127.104ZM135.652 127.104V123.407H133.188H130.724V127.104V130.8H133.188H135.652V127.104ZM146.854 127.104V123.407H144.502H142.149V127.104V130.8H144.502H146.854V127.104ZM158.28 127.104V123.407H155.815H153.351V127.104V130.8H155.815H158.28V127.104ZM169.257 127.104V123.407H166.905H164.552V127.104V130.8H166.905H169.257V127.104ZM180.683 127.104V123.407H178.33H175.978V127.104V130.8H178.33H180.683V127.104ZM99.8073 128.381V126.387L96.0659 125.356C89.0985 123.452 84.0354 122.645 74.2901 121.951C65.4856 121.324 62.5284 121.301 56.9052 121.816C47.4287 122.69 41.7831 123.698 34.9053 125.692L33.2699 126.163V128.134C33.2699 129.613 33.3371 130.083 33.5387 130.016C36.3839 129.12 45.0315 127.574 50.8563 126.902C59.6384 125.916 61.5426 125.804 66.8746 125.939C77.8522 126.252 90.1291 127.753 97.1189 129.658C98.4183 130.016 99.5384 130.307 99.6504 130.33C99.74 130.33 99.8073 129.456 99.8073 128.381ZM203.78 129.501C213.638 127.238 225.243 125.983 235.906 126.006C245.114 126.028 253.112 126.947 262.23 128.986L266.935 130.038V128.201C266.935 127.171 266.845 126.297 266.733 126.208C266.442 126.051 260.707 124.415 258.87 124.012C250.424 122.063 238.953 121.077 230.373 121.57C218.902 122.242 212.137 123.205 204.116 125.311C202.055 125.871 200.308 126.32 200.263 126.32C200.218 126.32 200.173 127.238 200.173 128.358C200.173 129.949 200.241 130.375 200.465 130.285C200.621 130.218 202.123 129.859 203.78 129.501ZM99.8073 116.619C99.8073 114.715 99.7401 112.407 99.6728 111.511L99.516 109.831L97.8134 109.338C96.4468 108.957 91.9885 107.949 91.6077 107.949C91.5405 107.949 91.5405 110.234 91.5629 113.012L91.6301 118.075L95.3266 119.016C97.3653 119.554 99.2024 120.002 99.4264 120.024C99.7624 120.047 99.8073 119.755 99.8073 116.619ZM204.833 119.016L208.463 118.165V113.057C208.463 110.234 208.395 107.949 208.306 107.949C208.216 107.949 206.581 108.307 204.676 108.733C202.75 109.181 200.958 109.584 200.689 109.652L200.173 109.741V114.916V120.091L200.689 119.979C200.958 119.912 202.817 119.487 204.833 119.016ZM35.8238 119.263C36.6975 119.061 37.4144 118.882 37.4368 118.859C37.4593 118.837 37.4144 116.686 37.3472 114.087L37.1904 109.36L35.2413 110.144L33.2699 110.929V115.409V119.867L33.7851 119.733C34.054 119.643 34.9725 119.442 35.8238 119.263ZM266.711 115.364V110.906L264.874 110.234C263.037 109.584 263.014 109.562 262.835 110.032C262.745 110.279 262.701 112.34 262.723 114.625L262.79 118.77L264.583 119.285C265.568 119.554 266.442 119.8 266.554 119.8C266.644 119.823 266.711 117.806 266.711 115.364ZM194.125 113.774V109.741H149.878H105.632V113.774V117.806H149.878H194.125V113.774ZM46.5997 117.022C47.8319 116.843 48.9073 116.686 49.0193 116.686C49.1089 116.686 49.1761 114.289 49.1761 111.332V106L47.1822 106.403C46.0621 106.627 44.8075 106.963 44.3818 107.142L43.5753 107.478V112.407C43.5753 116.977 43.5977 117.358 43.9786 117.358C44.1802 117.358 45.3676 117.201 46.5997 117.022ZM256.629 112.385V107.389L254.277 106.874C252.978 106.605 251.768 106.314 251.589 106.246C251.297 106.134 251.253 106.784 251.253 111.377V116.664L251.992 116.798C253.09 116.977 255.554 117.291 256.137 117.336L256.629 117.358V112.385ZM85.6485 111.937L85.5812 106.717L83.2289 106.448C81.9295 106.314 80.4957 106.134 80.0477 106.067L79.1963 105.933V111.197C79.1963 114.087 79.2635 116.462 79.3756 116.485C79.4652 116.485 80.5405 116.641 81.7727 116.798C83.0049 116.955 84.3939 117.089 84.8643 117.112L85.6933 117.134L85.6485 111.937ZM217.536 116.798C219.149 116.619 220.516 116.462 220.628 116.462C220.717 116.462 220.784 114.087 220.784 111.197C220.784 106.067 220.762 105.933 220.336 105.933C219.799 105.933 215.564 106.56 214.803 106.739L214.287 106.874V112.004C214.287 114.827 214.355 117.134 214.467 117.134C214.556 117.134 215.945 116.977 217.536 116.798ZM59.7728 115.79H61.0498V110.391V104.969L58.0926 105.126C56.4571 105.216 55.0457 105.35 54.9561 105.395C54.8665 105.462 54.7769 107.882 54.7769 110.794V116.081L56.6364 115.947C57.6445 115.857 59.0559 115.79 59.7728 115.79ZM73.3715 110.637V105.261H71.4897C70.4815 105.261 69.0029 105.193 68.2412 105.126L66.8746 104.969V110.368V115.768L68.174 115.857C68.8685 115.902 70.3247 115.947 71.4224 115.969L73.3715 116.014V110.637ZM230.552 115.79H233.106V110.413V105.037H230.709C229.365 105.037 227.909 105.104 227.461 105.171L226.609 105.328V110.705V116.081L227.304 115.924C227.685 115.857 229.163 115.79 230.552 115.79ZM245.361 110.772L245.316 105.529L244.532 105.395C244.106 105.35 242.672 105.216 241.35 105.126L238.931 104.969V110.368V115.768L241.238 115.857C242.493 115.88 243.949 115.947 244.464 115.969L245.405 116.014L245.361 110.772ZM111.681 95.8512C111.681 86.7107 111.681 86.7331 113.316 85.9714C114.011 85.6578 114.773 85.5458 116.274 85.5458C118.85 85.5458 119.768 85.8146 120.62 86.8004L121.314 87.5845V95.7392V103.916H124.787H128.237L128.304 95.9184C128.371 86.7331 128.371 86.7555 130.208 85.949C131.082 85.5682 131.597 85.501 133.726 85.5682C136.436 85.6578 137.086 85.8818 137.825 87.0468C138.206 87.6069 138.229 88.3462 138.161 95.784L138.094 103.916H141.701H145.286V95.6944V87.4948L145.846 86.7555C146.63 85.725 147.66 85.4786 150.506 85.5906C153.172 85.6802 153.821 85.9714 154.516 87.3604C154.874 88.0325 154.919 88.9511 154.919 96.0305V103.916H158.392H161.864V95.8288C161.864 88.0549 161.886 87.6965 162.312 86.9796C163.029 85.837 164.261 85.4786 167.084 85.5906C169.66 85.6802 170.288 85.9266 171.049 87.1812C171.475 87.8533 171.497 88.3686 171.497 95.9184V103.916H174.97H178.442V96.0305C178.442 87.338 178.465 87.1364 179.854 86.1283C180.75 85.4786 184.738 85.3217 186.216 85.8818C188.098 86.5987 188.076 86.5091 188.076 95.8064V103.916H191.212H194.349V92.8492C194.349 86.7779 194.281 81.1772 194.214 80.4154L194.057 79.0489H149.856H105.632V91.4826V103.916H108.657H111.681V95.8512Z" fill="black"/>
<path d="M43.687 159.588L43.127 159.05V152.531V145.989L43.7766 145.34C44.3591 144.757 44.5832 144.69 45.8153 144.69C47.2491 144.69 48.3469 145.093 48.5933 145.698C48.6605 145.9 48.7277 149.036 48.7277 152.643V159.23L48.1453 159.678C47.6524 160.059 47.2267 160.148 45.8825 160.148C44.4263 160.148 44.1575 160.081 43.687 159.588Z" fill="black"/>
<path d="M62.2367 159.611L61.6094 159.073V152.442C61.6094 145.878 61.6094 145.81 62.1246 145.317C62.5279 144.892 62.9312 144.802 64.2978 144.735C65.9108 144.645 65.978 144.668 66.6501 145.317L67.3222 145.99V152.307C67.3222 160.148 67.3222 160.126 64.477 160.148C63.088 160.148 62.7743 160.081 62.2367 159.611Z" fill="black"/>
<path d="M80.9641 159.499L80.3145 158.849V152.442V146.057L80.8521 145.43C81.3674 144.847 81.5018 144.802 83.2269 144.802C84.9519 144.802 85.0863 144.847 85.6016 145.43L86.1393 146.057V152.442V158.849L85.4896 159.499C84.8847 160.104 84.7055 160.148 83.2269 160.148C81.7483 160.148 81.569 160.104 80.9641 159.499Z" fill="black"/>
<path d="M214.4 159.588L213.84 159.05V152.441V145.855L214.534 145.272C215.117 144.78 215.43 144.69 216.64 144.69C217.85 144.69 218.164 144.78 218.746 145.272L219.441 145.855V152.441V159.05L218.881 159.588C218.41 160.081 218.141 160.148 216.64 160.148C215.139 160.148 214.87 160.081 214.4 159.588Z" fill="black"/>
<path d="M233.218 159.588L232.658 159.05V152.441V145.855L233.353 145.272C233.913 144.78 234.271 144.69 235.369 144.69C236.78 144.69 237.878 145.093 238.125 145.698C238.192 145.9 238.259 149.036 238.259 152.643V159.23L237.677 159.678C237.184 160.059 236.758 160.148 235.414 160.148C233.958 160.148 233.689 160.081 233.218 159.588Z" fill="black"/>
<path d="M252.128 159.857C251.321 159.23 251.254 158.714 251.254 152.307V145.989L251.904 145.34C252.486 144.757 252.71 144.69 253.942 144.69C255.376 144.69 256.474 145.093 256.72 145.698C256.787 145.9 256.855 148.991 256.855 152.553V159.05L256.295 159.588C255.824 160.081 255.555 160.148 254.122 160.148C253.181 160.148 252.329 160.014 252.128 159.857Z" fill="black"/>
<path d="M98.6279 259.636H94.6436V265.715C94.6436 266.584 94.4385 267.243 94.0283 267.692C93.6182 268.142 93.1006 268.366 92.4756 268.366C91.8213 268.366 91.2939 268.146 90.8936 267.707C90.4932 267.258 90.293 266.604 90.293 265.744V249.191C90.293 248.234 90.5127 247.551 90.9521 247.141C91.3916 246.73 92.0898 246.525 93.0469 246.525H98.6279C100.278 246.525 101.548 246.652 102.437 246.906C103.315 247.15 104.072 247.556 104.707 248.122C105.352 248.688 105.84 249.382 106.172 250.202C106.504 251.022 106.67 251.945 106.67 252.971C106.67 255.158 105.996 256.818 104.648 257.951C103.301 259.074 101.294 259.636 98.6279 259.636ZM97.5732 249.792H94.6436V256.354H97.5732C98.5986 256.354 99.4531 256.247 100.137 256.032C100.83 255.817 101.357 255.466 101.719 254.978C102.08 254.489 102.261 253.85 102.261 253.059C102.261 252.111 101.982 251.34 101.426 250.744C100.801 250.109 99.5166 249.792 97.5732 249.792ZM110.332 259.123V248.796C110.332 247.917 110.527 247.258 110.918 246.818C111.318 246.379 111.841 246.159 112.485 246.159C113.159 246.159 113.691 246.379 114.082 246.818C114.482 247.258 114.683 247.917 114.683 248.796V259.357C114.683 260.559 114.814 261.564 115.078 262.375C115.352 263.176 115.83 263.801 116.514 264.25C117.197 264.689 118.154 264.909 119.385 264.909C121.084 264.909 122.285 264.46 122.988 263.562C123.691 262.653 124.043 261.281 124.043 259.445V248.796C124.043 247.907 124.238 247.248 124.629 246.818C125.02 246.379 125.542 246.159 126.196 246.159C126.851 246.159 127.378 246.379 127.778 246.818C128.188 247.248 128.394 247.907 128.394 248.796V259.123C128.394 260.803 128.228 262.204 127.896 263.327C127.573 264.45 126.958 265.437 126.05 266.286C125.269 267.009 124.36 267.536 123.325 267.868C122.29 268.2 121.079 268.366 119.692 268.366C118.042 268.366 116.621 268.19 115.43 267.839C114.238 267.478 113.267 266.926 112.515 266.184C111.763 265.432 111.211 264.475 110.859 263.312C110.508 262.141 110.332 260.744 110.332 259.123ZM138.765 248.767L147.129 261.423V248.649C147.129 247.819 147.305 247.199 147.656 246.789C148.018 246.369 148.501 246.159 149.106 246.159C149.731 246.159 150.225 246.369 150.586 246.789C150.947 247.199 151.128 247.819 151.128 248.649V265.539C151.128 267.424 150.347 268.366 148.784 268.366C148.394 268.366 148.042 268.308 147.729 268.19C147.417 268.083 147.124 267.907 146.851 267.663C146.577 267.419 146.323 267.136 146.089 266.813C145.854 266.481 145.62 266.145 145.386 265.803L137.227 253.293V265.876C137.227 266.696 137.036 267.316 136.655 267.736C136.274 268.156 135.786 268.366 135.19 268.366C134.575 268.366 134.082 268.156 133.711 267.736C133.34 267.307 133.154 266.687 133.154 265.876V249.309C133.154 248.605 133.232 248.054 133.389 247.653C133.574 247.214 133.882 246.857 134.312 246.584C134.741 246.301 135.205 246.159 135.703 246.159C136.094 246.159 136.426 246.223 136.699 246.35C136.982 246.477 137.227 246.647 137.432 246.862C137.646 247.077 137.861 247.355 138.076 247.697C138.301 248.039 138.53 248.396 138.765 248.767ZM170.039 249.88H160.239V255.153H169.263C169.927 255.153 170.42 255.305 170.742 255.607C171.074 255.9 171.24 256.291 171.24 256.779C171.24 257.268 171.079 257.668 170.757 257.98C170.435 258.283 169.937 258.435 169.263 258.435H160.239V264.543H170.376C171.06 264.543 171.572 264.704 171.914 265.026C172.266 265.339 172.441 265.759 172.441 266.286C172.441 266.794 172.266 267.209 171.914 267.531C171.572 267.844 171.06 268 170.376 268H158.555C157.607 268 156.924 267.79 156.504 267.37C156.094 266.95 155.889 266.271 155.889 265.334V249.191C155.889 248.566 155.981 248.059 156.167 247.668C156.353 247.268 156.641 246.979 157.031 246.804C157.432 246.618 157.939 246.525 158.555 246.525H170.039C170.732 246.525 171.245 246.682 171.577 246.994C171.919 247.297 172.09 247.697 172.09 248.195C172.09 248.703 171.919 249.113 171.577 249.426C171.245 249.729 170.732 249.88 170.039 249.88ZM197.139 265.568L196.113 262.873H187.383L186.357 265.627C185.957 266.701 185.615 267.429 185.332 267.81C185.049 268.181 184.585 268.366 183.94 268.366C183.394 268.366 182.91 268.166 182.49 267.766C182.07 267.365 181.86 266.911 181.86 266.403C181.86 266.11 181.909 265.808 182.007 265.495C182.104 265.183 182.266 264.748 182.49 264.191L187.983 250.246C188.14 249.846 188.325 249.367 188.54 248.811C188.765 248.244 188.999 247.775 189.243 247.404C189.497 247.033 189.824 246.735 190.225 246.511C190.635 246.276 191.138 246.159 191.733 246.159C192.339 246.159 192.842 246.276 193.242 246.511C193.652 246.735 193.979 247.028 194.224 247.39C194.478 247.751 194.688 248.142 194.854 248.562C195.029 248.972 195.249 249.523 195.513 250.217L201.123 264.074C201.562 265.129 201.782 265.896 201.782 266.374C201.782 266.872 201.572 267.331 201.152 267.751C200.742 268.161 200.244 268.366 199.658 268.366C199.316 268.366 199.023 268.303 198.779 268.176C198.535 268.059 198.33 267.897 198.164 267.692C197.998 267.478 197.817 267.155 197.622 266.726C197.437 266.286 197.275 265.9 197.139 265.568ZM188.525 259.606H194.941L191.704 250.744L188.525 259.606ZM205.166 265.715V248.796C205.166 247.917 205.366 247.258 205.767 246.818C206.167 246.379 206.685 246.159 207.319 246.159C207.974 246.159 208.501 246.379 208.901 246.818C209.312 247.248 209.517 247.907 209.517 248.796V265.715C209.517 266.604 209.312 267.268 208.901 267.707C208.501 268.146 207.974 268.366 207.319 268.366C206.694 268.366 206.177 268.146 205.767 267.707C205.366 267.258 205.166 266.594 205.166 265.715Z" fill="black"/>
<path d="M100.947 284.479C100.947 284.934 100.833 285.429 100.605 285.963C100.384 286.49 100.033 287.011 99.5508 287.525C99.069 288.033 98.4538 288.447 97.7051 288.766C96.9564 289.085 96.084 289.244 95.0879 289.244C94.3327 289.244 93.6458 289.173 93.0273 289.029C92.4089 288.886 91.8457 288.665 91.3379 288.365C90.8366 288.059 90.3743 287.659 89.9512 287.164C89.5736 286.715 89.2513 286.214 88.9844 285.66C88.7174 285.1 88.5156 284.505 88.3789 283.873C88.2487 283.242 88.1836 282.571 88.1836 281.861C88.1836 280.709 88.3496 279.677 88.6816 278.766C89.0202 277.854 89.502 277.076 90.127 276.432C90.752 275.781 91.4844 275.286 92.3242 274.947C93.1641 274.609 94.0592 274.439 95.0098 274.439C96.1686 274.439 97.2005 274.671 98.1055 275.133C99.0104 275.595 99.7038 276.168 100.186 276.852C100.667 277.529 100.908 278.17 100.908 278.775C100.908 279.107 100.791 279.4 100.557 279.654C100.322 279.908 100.039 280.035 99.707 280.035C99.3359 280.035 99.056 279.947 98.8672 279.771C98.6849 279.596 98.4798 279.293 98.252 278.863C97.8743 278.154 97.4284 277.623 96.9141 277.271C96.4062 276.92 95.778 276.744 95.0293 276.744C93.8379 276.744 92.8874 277.197 92.1777 278.102C91.4746 279.007 91.123 280.292 91.123 281.959C91.123 283.072 91.2793 284 91.5918 284.742C91.9043 285.478 92.347 286.028 92.9199 286.393C93.4928 286.757 94.1634 286.939 94.9316 286.939C95.765 286.939 96.4681 286.734 97.041 286.324C97.6204 285.908 98.0566 285.299 98.3496 284.498C98.4733 284.12 98.6263 283.814 98.8086 283.58C98.9909 283.339 99.2839 283.219 99.6875 283.219C100.033 283.219 100.329 283.339 100.576 283.58C100.824 283.821 100.947 284.12 100.947 284.479ZM109.854 274.439C111.338 274.439 112.611 274.742 113.672 275.348C114.74 275.947 115.547 276.803 116.094 277.916C116.641 279.023 116.914 280.325 116.914 281.822C116.914 282.929 116.764 283.935 116.465 284.84C116.165 285.745 115.716 286.529 115.117 287.193C114.518 287.857 113.783 288.365 112.91 288.717C112.038 289.068 111.038 289.244 109.912 289.244C108.792 289.244 107.79 289.065 106.904 288.707C106.019 288.342 105.28 287.831 104.688 287.174C104.095 286.516 103.646 285.725 103.34 284.801C103.04 283.876 102.891 282.877 102.891 281.803C102.891 280.702 103.047 279.693 103.359 278.775C103.678 277.857 104.137 277.076 104.736 276.432C105.335 275.787 106.064 275.296 106.924 274.957C107.783 274.612 108.76 274.439 109.854 274.439ZM113.975 281.803C113.975 280.755 113.805 279.846 113.467 279.078C113.128 278.31 112.643 277.73 112.012 277.34C111.387 276.943 110.667 276.744 109.854 276.744C109.274 276.744 108.737 276.855 108.242 277.076C107.754 277.291 107.331 277.607 106.973 278.023C106.621 278.44 106.341 278.974 106.133 279.625C105.931 280.27 105.83 280.995 105.83 281.803C105.83 282.617 105.931 283.352 106.133 284.01C106.341 284.667 106.631 285.214 107.002 285.65C107.38 286.08 107.809 286.402 108.291 286.617C108.779 286.832 109.313 286.939 109.893 286.939C110.635 286.939 111.315 286.754 111.934 286.383C112.559 286.012 113.053 285.439 113.418 284.664C113.789 283.889 113.975 282.936 113.975 281.803ZM124.229 286.842L121.934 277.721V287.604C121.934 288.15 121.81 288.561 121.562 288.834C121.322 289.107 120.999 289.244 120.596 289.244C120.205 289.244 119.886 289.111 119.639 288.844C119.391 288.57 119.268 288.157 119.268 287.604V276.275C119.268 275.65 119.43 275.23 119.756 275.016C120.081 274.794 120.521 274.684 121.074 274.684H121.973C122.513 274.684 122.904 274.732 123.145 274.83C123.392 274.928 123.574 275.104 123.691 275.357C123.809 275.611 123.942 276.025 124.092 276.598L126.172 284.439L128.252 276.598C128.402 276.025 128.535 275.611 128.652 275.357C128.77 275.104 128.949 274.928 129.189 274.83C129.437 274.732 129.831 274.684 130.371 274.684H131.27C131.823 274.684 132.262 274.794 132.588 275.016C132.913 275.23 133.076 275.65 133.076 276.275V287.604C133.076 288.15 132.952 288.561 132.705 288.834C132.464 289.107 132.139 289.244 131.729 289.244C131.344 289.244 131.029 289.107 130.781 288.834C130.534 288.561 130.41 288.15 130.41 287.604V277.721L128.115 286.842C127.965 287.434 127.842 287.87 127.744 288.15C127.653 288.424 127.48 288.674 127.227 288.902C126.973 289.13 126.621 289.244 126.172 289.244C125.833 289.244 125.547 289.169 125.312 289.02C125.078 288.876 124.896 288.691 124.766 288.463C124.635 288.235 124.531 287.984 124.453 287.711C124.382 287.431 124.307 287.141 124.229 286.842ZM140.889 286.842L138.594 277.721V287.604C138.594 288.15 138.47 288.561 138.223 288.834C137.982 289.107 137.66 289.244 137.256 289.244C136.865 289.244 136.546 289.111 136.299 288.844C136.051 288.57 135.928 288.157 135.928 287.604V276.275C135.928 275.65 136.09 275.23 136.416 275.016C136.742 274.794 137.181 274.684 137.734 274.684H138.633C139.173 274.684 139.564 274.732 139.805 274.83C140.052 274.928 140.234 275.104 140.352 275.357C140.469 275.611 140.602 276.025 140.752 276.598L142.832 284.439L144.912 276.598C145.062 276.025 145.195 275.611 145.312 275.357C145.43 275.104 145.609 274.928 145.85 274.83C146.097 274.732 146.491 274.684 147.031 274.684H147.93C148.483 274.684 148.923 274.794 149.248 275.016C149.574 275.23 149.736 275.65 149.736 276.275V287.604C149.736 288.15 149.613 288.561 149.365 288.834C149.124 289.107 148.799 289.244 148.389 289.244C148.005 289.244 147.689 289.107 147.441 288.834C147.194 288.561 147.07 288.15 147.07 287.604V277.721L144.775 286.842C144.626 287.434 144.502 287.87 144.404 288.15C144.313 288.424 144.141 288.674 143.887 288.902C143.633 289.13 143.281 289.244 142.832 289.244C142.493 289.244 142.207 289.169 141.973 289.02C141.738 288.876 141.556 288.691 141.426 288.463C141.296 288.235 141.191 287.984 141.113 287.711C141.042 287.431 140.967 287.141 140.889 286.842ZM152.734 283.082V276.197C152.734 275.611 152.865 275.172 153.125 274.879C153.392 274.586 153.74 274.439 154.17 274.439C154.619 274.439 154.974 274.586 155.234 274.879C155.501 275.172 155.635 275.611 155.635 276.197V283.238C155.635 284.039 155.723 284.71 155.898 285.25C156.081 285.784 156.4 286.201 156.855 286.5C157.311 286.793 157.949 286.939 158.77 286.939C159.902 286.939 160.703 286.64 161.172 286.041C161.641 285.436 161.875 284.521 161.875 283.297V276.197C161.875 275.605 162.005 275.165 162.266 274.879C162.526 274.586 162.874 274.439 163.311 274.439C163.747 274.439 164.098 274.586 164.365 274.879C164.639 275.165 164.775 275.605 164.775 276.197V283.082C164.775 284.202 164.665 285.136 164.443 285.885C164.229 286.633 163.818 287.291 163.213 287.857C162.692 288.339 162.087 288.691 161.396 288.912C160.706 289.133 159.899 289.244 158.975 289.244C157.874 289.244 156.927 289.127 156.133 288.893C155.339 288.652 154.691 288.284 154.189 287.789C153.688 287.288 153.32 286.65 153.086 285.875C152.852 285.094 152.734 284.163 152.734 283.082ZM171.689 276.178L177.266 284.615V276.1C177.266 275.546 177.383 275.133 177.617 274.859C177.858 274.579 178.18 274.439 178.584 274.439C179.001 274.439 179.329 274.579 179.57 274.859C179.811 275.133 179.932 275.546 179.932 276.1V287.359C179.932 288.616 179.411 289.244 178.369 289.244C178.109 289.244 177.874 289.205 177.666 289.127C177.458 289.055 177.262 288.938 177.08 288.775C176.898 288.613 176.729 288.424 176.572 288.209C176.416 287.988 176.26 287.763 176.104 287.535L170.664 279.195V287.584C170.664 288.131 170.537 288.544 170.283 288.824C170.029 289.104 169.704 289.244 169.307 289.244C168.896 289.244 168.568 289.104 168.32 288.824C168.073 288.538 167.949 288.124 167.949 287.584V276.539C167.949 276.07 168.001 275.702 168.105 275.436C168.229 275.143 168.434 274.905 168.721 274.723C169.007 274.534 169.316 274.439 169.648 274.439C169.909 274.439 170.13 274.482 170.312 274.566C170.501 274.651 170.664 274.765 170.801 274.908C170.944 275.051 171.087 275.237 171.23 275.465C171.38 275.693 171.533 275.93 171.689 276.178ZM183.223 287.477V276.197C183.223 275.611 183.356 275.172 183.623 274.879C183.89 274.586 184.235 274.439 184.658 274.439C185.094 274.439 185.446 274.586 185.713 274.879C185.986 275.165 186.123 275.605 186.123 276.197V287.477C186.123 288.069 185.986 288.512 185.713 288.805C185.446 289.098 185.094 289.244 184.658 289.244C184.242 289.244 183.896 289.098 183.623 288.805C183.356 288.505 183.223 288.062 183.223 287.477ZM198.672 277.076H195.508V287.477C195.508 288.076 195.374 288.521 195.107 288.814C194.84 289.101 194.495 289.244 194.072 289.244C193.643 289.244 193.291 289.098 193.018 288.805C192.751 288.512 192.617 288.069 192.617 287.477V277.076H189.453C188.958 277.076 188.59 276.969 188.35 276.754C188.109 276.533 187.988 276.243 187.988 275.885C187.988 275.514 188.112 275.221 188.359 275.006C188.613 274.791 188.978 274.684 189.453 274.684H198.672C199.173 274.684 199.544 274.794 199.785 275.016C200.033 275.237 200.156 275.527 200.156 275.885C200.156 276.243 200.033 276.533 199.785 276.754C199.538 276.969 199.167 277.076 198.672 277.076ZM205.068 287.477V282.936L201.572 277.516C201.266 277.027 201.048 276.646 200.918 276.373C200.794 276.1 200.732 275.862 200.732 275.66C200.732 275.328 200.859 275.042 201.113 274.801C201.374 274.56 201.693 274.439 202.07 274.439C202.467 274.439 202.767 274.553 202.969 274.781C203.177 275.003 203.486 275.449 203.896 276.119L206.572 280.465L209.277 276.119C209.44 275.852 209.577 275.628 209.688 275.445C209.798 275.263 209.919 275.094 210.049 274.938C210.186 274.775 210.335 274.651 210.498 274.566C210.661 274.482 210.859 274.439 211.094 274.439C211.458 274.439 211.761 274.56 212.002 274.801C212.249 275.035 212.373 275.309 212.373 275.621C212.373 275.875 212.311 276.129 212.188 276.383C212.064 276.637 211.852 276.988 211.553 277.438L207.969 282.936V287.477C207.969 288.069 207.832 288.512 207.559 288.805C207.285 289.098 206.937 289.244 206.514 289.244C206.084 289.244 205.736 289.101 205.469 288.814C205.202 288.521 205.068 288.076 205.068 287.477Z" fill="black"/>
</g>
<defs>
<clipPath id="clip0_360_2">
<rect width="300" height="300" fill="white"/>
</clipPath>
</defs>
</svg>
