<?xml version="1.0" encoding="UTF-8" standalone="no"?>
<!-- Created with Inkscape (http://www.inkscape.org/) -->

<svg
   xmlns:ns0="http://www.iki.fi/pav/software/textext/"
   xmlns:dc="http://purl.org/dc/elements/1.1/"
   xmlns:cc="http://creativecommons.org/ns#"
   xmlns:rdf="http://www.w3.org/1999/02/22-rdf-syntax-ns#"
   xmlns:svg="http://www.w3.org/2000/svg"
   xmlns="http://www.w3.org/2000/svg"
   xmlns:xlink="http://www.w3.org/1999/xlink"
   xmlns:sodipodi="http://sodipodi.sourceforge.net/DTD/sodipodi-0.dtd"
   xmlns:inkscape="http://www.inkscape.org/namespaces/inkscape"
   sodipodi:docname="New document 19"
   inkscape:version="0.47 r22583"
   version="1.1"
   id="svg2"
   height="250"
   width="250">
  <sodipodi:namedview
     id="base"
     pagecolor="#ffffff"
     bordercolor="#666666"
     borderopacity="1.0"
     inkscape:pageopacity="0.0"
     inkscape:pageshadow="2"
     inkscape:zoom="1.9"
     inkscape:cx="94.437621"
     inkscape:cy="92.78679"
     inkscape:document-units="pt"
     inkscape:current-layer="svg2"
     showgrid="true"
     units="pt"
     gridtolerance="10"
     objecttolerance="10"
     guidetolerance="10"
     inkscape:window-width="1280"
     inkscape:window-height="726"
     inkscape:window-x="0"
     inkscape:window-y="25"
     inkscape:window-maximized="1"
     inkscape:snap-grids="false"
     inkscape:snap-to-guides="true">
    <inkscape:grid
       units="pt"
       spacingy="5pt"
       spacingx="5pt"
       snapvisiblegridlinesonly="true"
       enabled="true"
       visible="true"
       empspacing="5"
       id="grid2816"
       type="xygrid" />
  </sodipodi:namedview>
  <defs
     id="defs4">
    <marker
       inkscape:stockid="Arrow2Mend"
       orient="auto"
       refY="0.0"
       refX="0.0"
       id="Arrow2Mend"
       style="overflow:visible;">
      <path
         id="path8311"
         style="font-size:12.0;fill-rule:evenodd;stroke-width:0.62500000;stroke-linejoin:round;"
         d="M 8.7185878,4.0337352 L -2.2072895,0.016013256 L 8.7185884,-4.0017078 C 6.9730900,-1.6296469 6.9831476,1.6157441 8.7185878,4.0337352 z "
         transform="scale(0.6) rotate(180) translate(0,0)" />
    </marker>
    <marker
       inkscape:stockid="Arrow2Mstart"
       orient="auto"
       refY="0.0"
       refX="0.0"
       id="Arrow2Mstart"
       style="overflow:visible">
      <path
         id="path8308"
         style="font-size:12.0;fill-rule:evenodd;stroke-width:0.62500000;stroke-linejoin:round"
         d="M 8.7185878,4.0337352 L -2.2072895,0.016013256 L 8.7185884,-4.0017078 C 6.9730900,-1.6296469 6.9831476,1.6157441 8.7185878,4.0337352 z "
         transform="scale(0.6) translate(0,0)" />
    </marker>
    <inkscape:perspective
       id="perspective10"
       inkscape:persp3d-origin="372.04724 : 350.78739 : 1"
       inkscape:vp_z="744.09448 : 526.18109 : 1"
       inkscape:vp_y="0 : 1000 : 0"
       inkscape:vp_x="0 : 526.18109 : 1"
       sodipodi:type="inkscape:persp3d" />
    <inkscape:perspective
       sodipodi:type="inkscape:persp3d"
       inkscape:vp_x="0 : 0.5 : 1"
       inkscape:vp_y="0 : 1000 : 0"
       inkscape:vp_z="1 : 0.5 : 1"
       inkscape:persp3d-origin="0.5 : 0.33333333 : 1"
       id="perspective7277" />
    <inkscape:perspective
       id="perspective7463"
       inkscape:persp3d-origin="0.5 : 0.33333333 : 1"
       inkscape:vp_z="1 : 0.5 : 1"
       inkscape:vp_y="0 : 1000 : 0"
       inkscape:vp_x="0 : 0.5 : 1"
       sodipodi:type="inkscape:persp3d" />
    <inkscape:perspective
       id="perspective7805"
       inkscape:persp3d-origin="0.5 : 0.33333333 : 1"
       inkscape:vp_z="1 : 0.5 : 1"
       inkscape:vp_y="0 : 1000 : 0"
       inkscape:vp_x="0 : 0.5 : 1"
       sodipodi:type="inkscape:persp3d" />
    <inkscape:perspective
       sodipodi:type="inkscape:persp3d"
       inkscape:vp_x="0 : 0.5 : 1"
       inkscape:vp_y="0 : 1000 : 0"
       inkscape:vp_z="1 : 0.5 : 1"
       inkscape:persp3d-origin="0.5 : 0.33333333 : 1"
       id="perspective8020" />
  </defs>
  <metadata
     id="metadata7">
    <rdf:RDF>
      <cc:Work
         rdf:about="">
        <dc:format>image/svg+xml</dc:format>
        <dc:type
           rdf:resource="http://purl.org/dc/dcmitype/StillImage" />
        <dc:title></dc:title>
      </cc:Work>
    </rdf:RDF>
  </metadata>
  <g
     transform="translate(0,-802.36219)"
     id="layer1"
     inkscape:groupmode="layer"
     inkscape:label="Layer 1">
    <path
       sodipodi:open="true"
       sodipodi:end="10.852111"
       sodipodi:start="4.5880612"
       transform="matrix(0.4330127,-0.25,0.25,0.4330127,11.719614,853.09923)"
       d="m 65.237476,62.524121 c 1.712568,-0.214024 3.274379,1.000787 3.488403,2.713355 0.214024,1.712568 -1.000787,3.274379 -2.713355,3.488403 -1.712568,0.214024 -3.274379,-1.000787 -3.488403,-2.713355 -0.211133,-1.689441 0.969,-3.236999 2.654093,-3.48042"
       sodipodi:ry="3.125"
       sodipodi:rx="3.125"
       sodipodi:cy="65.625"
       sodipodi:cx="65.625"
       id="path7241"
       style="color:#000000;fill:#000000;fill-opacity:1;stroke:#000000;stroke-width:0;stroke-linecap:round;stroke-linejoin:round;stroke-miterlimit:4;stroke-opacity:1;stroke-dasharray:none;stroke-dashoffset:0;marker:none;visibility:visible;display:inline;overflow:visible;enable-background:accumulate"
       sodipodi:type="arc" />
    <rect
       transform="matrix(0.8660254,-0.5,0.5,0.8660254,0,0)"
       ry="0.042936247"
       y="868.2608"
       x="-408.58765"
       height="62.5"
       width="125"
       id="rect6729"
       style="color:#000000;fill:none;stroke:#000000;stroke-width:1;stroke-linecap:round;stroke-linejoin:round;stroke-miterlimit:4;stroke-opacity:1;stroke-dasharray:none;stroke-dashoffset:0;marker:none;visibility:visible;display:inline;overflow:visible;enable-background:accumulate" />
    <rect
       transform="matrix(0.8660254,-0.5,0.5,0.8660254,0,0)"
       ry="0.042936247"
       y="874.5108"
       x="-396.08765"
       height="6.25"
       width="25"
       id="rect7243"
       style="color:#000000;fill:#cacaca;fill-opacity:1;stroke:#000000;stroke-width:0.5;stroke-linecap:round;stroke-linejoin:round;stroke-miterlimit:4;stroke-opacity:1;stroke-dasharray:none;stroke-dashoffset:0;marker:none;visibility:visible;display:inline;overflow:visible;enable-background:accumulate" />
    <rect
       transform="matrix(0.8660254,-0.5,0.5,0.8660254,0,0)"
       ry="0.042936247"
       y="918.2608"
       x="-396.08765"
       height="6.25"
       width="25"
       id="rect7245"
       style="color:#000000;fill:#cacaca;fill-opacity:1;stroke:#000000;stroke-width:0.5;stroke-linecap:round;stroke-linejoin:round;stroke-miterlimit:4;stroke-opacity:1;stroke-dasharray:none;stroke-dashoffset:0;marker:none;visibility:visible;display:inline;overflow:visible;enable-background:accumulate" />
    <rect
       ry="0.042936247"
       transform="matrix(0.5,-0.8660254,0.8660254,0.5,0,0)"
       y="602.63611"
       x="-718.56262"
       height="6.25"
       width="25"
       id="rect7247"
       style="color:#000000;fill:#cacaca;fill-opacity:1;stroke:#000000;stroke-width:0.5;stroke-linecap:round;stroke-linejoin:round;stroke-miterlimit:4;stroke-opacity:1;stroke-dasharray:none;stroke-dashoffset:0;marker:none;visibility:visible;display:inline;overflow:visible;enable-background:accumulate" />
    <rect
       ry="0.042936247"
       transform="matrix(0.5,-0.8660254,0.8660254,0.5,0,0)"
       y="640.52472"
       x="-740.43762"
       height="6.25"
       width="25"
       id="rect7249"
       style="color:#000000;fill:#cacaca;fill-opacity:1;stroke:#000000;stroke-width:0.5;stroke-linecap:round;stroke-linejoin:round;stroke-miterlimit:4;stroke-opacity:1;stroke-dasharray:none;stroke-dashoffset:0;marker:none;visibility:visible;display:inline;overflow:visible;enable-background:accumulate" />
    <path
       sodipodi:nodetypes="cc"
       id="path7258"
       d="M 136.30877,1003.269 48.808767,851.71454"
       style="fill:none;stroke:#000000;stroke-width:0.5;stroke-linecap:butt;stroke-linejoin:miter;stroke-miterlimit:4;stroke-opacity:1;stroke-dasharray:1.99999999, 1.99999999;stroke-dashoffset:0" />
    <path
       id="path7260"
       d="M 90.495474,986.41803 210.19154,917.70115"
       style="fill:none;stroke:#000000;stroke-width:0.5;stroke-linecap:butt;stroke-linejoin:miter;stroke-miterlimit:4;stroke-opacity:1;stroke-dasharray:1.99999999, 1.99999999;stroke-dashoffset:0" />
    <path
       id="path7267"
       d="M 189.26919,937.36754 44.973328,859.01873"
       style="fill:none;stroke:#000000;stroke-width:0.5;stroke-linecap:butt;stroke-linejoin:miter;stroke-miterlimit:4;stroke-opacity:1;stroke-dasharray:1.99999999, 1.99999999;stroke-dashoffset:0" />
    <path
       sodipodi:open="true"
       sodipodi:end="10.852111"
       sodipodi:start="4.5880612"
       transform="matrix(0.4330127,-0.25,0.25,0.4330127,72.74487,958.92967)"
       d="m 65.237476,62.524121 c 1.712568,-0.214024 3.274379,1.000787 3.488403,2.713355 0.214024,1.712568 -1.000787,3.274379 -2.713355,3.488403 -1.712568,0.214024 -3.274379,-1.000787 -3.488403,-2.713355 -0.211133,-1.689441 0.969,-3.236999 2.654093,-3.48042"
       sodipodi:ry="3.125"
       sodipodi:rx="3.125"
       sodipodi:cy="65.625"
       sodipodi:cx="65.625"
       id="path7241-9"
       style="color:#000000;fill:#000000;fill-opacity:1;stroke:#000000;stroke-width:0;stroke-linecap:round;stroke-linejoin:round;stroke-miterlimit:4;stroke-opacity:1;stroke-dasharray:none;stroke-dashoffset:0;marker:none;visibility:visible;display:inline;overflow:visible;enable-background:accumulate"
       sodipodi:type="arc" />
    <path
       id="path7291"
       d="m 179.83859,938.12269 19.43844,-33.14203"
       style="fill:none;stroke:#000000;stroke-width:0.5;stroke-linecap:butt;stroke-linejoin:miter;stroke-miterlimit:4;stroke-opacity:1;stroke-dasharray:1.99999999, 1.99999999;stroke-dashoffset:0" />
    <path
       sodipodi:end="5.7719089"
       sodipodi:start="5.2433617"
       transform="translate(1.3157895,802.62535)"
       d="m 189.33932,117.126 c 2.42137,1.42189 4.4214,3.4617 5.79532,5.91061 l -13.81884,7.75286 z"
       sodipodi:ry="15.84511"
       sodipodi:rx="15.84511"
       sodipodi:cy="130.78947"
       sodipodi:cx="181.3158"
       id="path7989"
       style="color:#000000;fill:none;stroke:#000000;stroke-width:0.5;stroke-linecap:round;stroke-linejoin:round;stroke-miterlimit:4;stroke-opacity:1;stroke-dasharray:none;stroke-dashoffset:0;marker:none;visibility:visible;display:inline;overflow:visible;enable-background:accumulate"
       sodipodi:type="arc" />
  </g>
  <g
     id="g7364"
     ns0:preamble=""
     ns0:text="$(x,y)$"
     transform="translate(-104.27437,40.999734)">
    <defs
       id="defs7366">
      <g
         id="g7368">
        <symbol
           id="textext-7e3222af-0"
           overflow="visible"
           style="overflow:visible">
          <path
             id="path7371"
             d=""
             style="stroke:none" />
        </symbol>
        <symbol
           id="textext-7e3222af-1"
           overflow="visible"
           style="overflow:visible">
          <path
             id="path7374"
             d="m 3.296875,2.390625 c 0,-0.03125 0,-0.046875 -0.171875,-0.21875 C 1.890625,0.921875 1.5625,-0.96875 1.5625,-2.5 c 0,-1.734375 0.375,-3.46875 1.609375,-4.703125 0.125,-0.125 0.125,-0.140625 0.125,-0.171875 0,-0.078125 -0.03125,-0.109375 -0.09375,-0.109375 -0.109375,0 -1,0.6875 -1.59375,1.953125 -0.5,1.09375 -0.625,2.203125 -0.625,3.03125 0,0.78125 0.109375,1.984375 0.65625,3.125 C 2.25,1.84375 3.09375,2.5 3.203125,2.5 c 0.0625,0 0.09375,-0.03125 0.09375,-0.109375 z m 0,0"
             style="stroke:none" />
        </symbol>
        <symbol
           id="textext-7e3222af-2"
           overflow="visible"
           style="overflow:visible">
          <path
             id="path7377"
             d="m 2.875,-2.5 c 0,-0.765625 -0.109375,-1.96875 -0.65625,-3.109375 -0.59375,-1.21875 -1.453125,-1.875 -1.546875,-1.875 -0.0625,0 -0.109375,0.046875 -0.109375,0.109375 0,0.03125 0,0.046875 0.1875,0.234375 0.984375,0.984375 1.546875,2.5625 1.546875,4.640625 0,1.71875 -0.359375,3.46875 -1.59375,4.71875 C 0.5625,2.34375 0.5625,2.359375 0.5625,2.390625 0.5625,2.453125 0.609375,2.5 0.671875,2.5 0.765625,2.5 1.671875,1.8125 2.25,0.546875 2.765625,-0.546875 2.875,-1.65625 2.875,-2.5 z m 0,0"
             style="stroke:none" />
        </symbol>
        <symbol
           id="textext-7e3222af-3"
           overflow="visible"
           style="overflow:visible">
          <path
             id="path7380"
             d=""
             style="stroke:none" />
        </symbol>
        <symbol
           id="textext-7e3222af-4"
           overflow="visible"
           style="overflow:visible">
          <path
             id="path7383"
             d="M 3.328125,-3.015625 C 3.390625,-3.265625 3.625,-4.1875 4.3125,-4.1875 c 0.046875,0 0.296875,0 0.5,0.125 C 4.53125,-4 4.34375,-3.765625 4.34375,-3.515625 c 0,0.15625 0.109375,0.34375 0.375,0.34375 0.21875,0 0.53125,-0.171875 0.53125,-0.578125 0,-0.515625 -0.578125,-0.65625 -0.921875,-0.65625 -0.578125,0 -0.921875,0.53125 -1.046875,0.75 -0.25,-0.65625 -0.78125,-0.75 -1.078125,-0.75 -1.03125,0 -1.609375,1.28125 -1.609375,1.53125 0,0.109375 0.109375,0.109375 0.125,0.109375 0.078125,0 0.109375,-0.03125 0.125,-0.109375 0.34375,-1.0625 1,-1.3125 1.34375,-1.3125 0.1875,0 0.53125,0.09375 0.53125,0.671875 0,0.3125 -0.171875,0.96875 -0.53125,2.375 -0.15625,0.609375 -0.515625,1.03125 -0.953125,1.03125 -0.0625,0 -0.28125,0 -0.5,-0.125 0.25,-0.0625 0.46875,-0.265625 0.46875,-0.546875 0,-0.265625 -0.21875,-0.34375 -0.359375,-0.34375 -0.3125,0 -0.546875,0.25 -0.546875,0.578125 0,0.453125 0.484375,0.65625 0.921875,0.65625 0.671875,0 1.03125,-0.703125 1.046875,-0.75 0.125,0.359375 0.484375,0.75 1.078125,0.75 1.03125,0 1.59375,-1.28125 1.59375,-1.53125 0,-0.109375 -0.078125,-0.109375 -0.109375,-0.109375 -0.09375,0 -0.109375,0.046875 -0.140625,0.109375 -0.328125,1.078125 -1,1.3125 -1.3125,1.3125 -0.390625,0 -0.546875,-0.3125 -0.546875,-0.65625 0,-0.21875 0.046875,-0.4375 0.15625,-0.875 l 0.34375,-1.375 z m 0,0"
             style="stroke:none" />
        </symbol>
        <symbol
           id="textext-7e3222af-5"
           overflow="visible"
           style="overflow:visible">
          <path
             id="path7386"
             d="m 2.03125,-0.015625 c 0,-0.65625 -0.25,-1.046875 -0.640625,-1.046875 -0.328125,0 -0.53125,0.25 -0.53125,0.53125 C 0.859375,-0.265625 1.0625,0 1.390625,0 1.5,0 1.640625,-0.046875 1.734375,-0.125 1.765625,-0.15625 1.78125,-0.15625 1.78125,-0.15625 c 0.015625,0 0.015625,0 0.015625,0.140625 0,0.75 -0.34375,1.34375 -0.671875,1.671875 -0.109375,0.109375 -0.109375,0.125 -0.109375,0.15625 0,0.078125 0.046875,0.109375 0.09375,0.109375 0.109375,0 0.921875,-0.765625 0.921875,-1.9375 z m 0,0"
             style="stroke:none" />
        </symbol>
        <symbol
           id="textext-7e3222af-6"
           overflow="visible"
           style="overflow:visible">
          <path
             id="path7389"
             d="m 4.84375,-3.796875 c 0.046875,-0.140625 0.046875,-0.15625 0.046875,-0.234375 0,-0.171875 -0.140625,-0.265625 -0.296875,-0.265625 -0.09375,0 -0.25,0.0625 -0.34375,0.203125 -0.015625,0.0625 -0.109375,0.359375 -0.140625,0.546875 -0.078125,0.25 -0.140625,0.53125 -0.203125,0.796875 l -0.453125,1.796875 c -0.03125,0.140625 -0.46875,0.84375 -1.125,0.84375 -0.5,0 -0.609375,-0.4375 -0.609375,-0.8125 C 1.71875,-1.375 1.890625,-2 2.21875,-2.875 2.375,-3.28125 2.421875,-3.390625 2.421875,-3.59375 c 0,-0.4375 -0.3125,-0.8125 -0.8125,-0.8125 -0.953125,0 -1.3125,1.453125 -1.3125,1.53125 0,0.109375 0.09375,0.109375 0.109375,0.109375 0.109375,0 0.109375,-0.03125 0.15625,-0.1875 0.28125,-0.9375 0.671875,-1.234375 1.015625,-1.234375 0.078125,0 0.25,0 0.25,0.3125 0,0.25 -0.109375,0.515625 -0.171875,0.703125 -0.40625,1.0625 -0.578125,1.625 -0.578125,2.09375 0,0.890625 0.625,1.1875 1.21875,1.1875 0.390625,0 0.71875,-0.171875 1,-0.453125 -0.125,0.515625 -0.25,1.015625 -0.640625,1.546875 -0.265625,0.328125 -0.640625,0.625 -1.09375,0.625 -0.140625,0 -0.59375,-0.03125 -0.765625,-0.421875 0.15625,0 0.296875,0 0.421875,-0.125 C 1.328125,1.203125 1.421875,1.0625 1.421875,0.875 1.421875,0.5625 1.15625,0.53125 1.0625,0.53125 0.828125,0.53125 0.5,0.6875 0.5,1.171875 c 0,0.5 0.4375,0.875 1.0625,0.875 1.015625,0 2.046875,-0.90625 2.328125,-2.03125 l 0.953125,-3.8125 z m 0,0"
             style="stroke:none" />
        </symbol>
      </g>
    </defs>
    <g
       id="textext-7e3222af-7">
      <g
         id="g7392"
         style="fill:#000000;fill-opacity:1">
        <use
           id="use7394"
           y="134.765"
           x="223.43201"
           xlink:href="#textext-7e3222af-1"
           width="250"
           height="250" />
      </g>
      <g
         id="g7396"
         style="fill:#000000;fill-opacity:1">
        <use
           id="use7398"
           y="134.765"
           x="227.306"
           xlink:href="#textext-7e3222af-4"
           width="250"
           height="250" />
        <use
           id="use7400"
           y="134.765"
           x="232.99962"
           xlink:href="#textext-7e3222af-5"
           width="250"
           height="250" />
      </g>
      <g
         id="g7402"
         style="fill:#000000;fill-opacity:1">
        <use
           id="use7404"
           y="134.765"
           x="237.43098"
           xlink:href="#textext-7e3222af-6"
           width="250"
           height="250" />
      </g>
      <g
         id="g7406"
         style="fill:#000000;fill-opacity:1">
        <use
           id="use7408"
           y="134.765"
           x="242.67"
           xlink:href="#textext-7e3222af-2"
           width="250"
           height="250" />
      </g>
    </g>
  </g>
  <g
     id="g7724"
     transform="translate(-30.060505,-16.124401)"
     ns0:preamble=""
     ns0:text="$\\varphi$">
    <defs
       id="defs7726">
      <g
         id="g7728">
        <symbol
           id="textext-aaef4de3-0"
           overflow="visible"
           style="overflow:visible">
          <path
             id="path7731"
             d=""
             style="stroke:none" />
        </symbol>
        <symbol
           id="textext-aaef4de3-1"
           overflow="visible"
           style="overflow:visible">
          <path
             id="path7734"
             d="M 1.6875,1.6875 C 1.65625,1.828125 1.640625,1.84375 1.640625,1.890625 c 0,0.21875 0.1875,0.28125 0.296875,0.28125 0.046875,0 0.265625,-0.03125 0.359375,-0.265625 C 2.328125,1.828125 2.375,1.5 2.65625,0.09375 c 0.078125,0 0.15625,0.015625 0.328125,0.015625 1.65625,0 3.1875,-1.5625 3.1875,-3.140625 0,-0.78125 -0.390625,-1.375 -1.140625,-1.375 -1.4375,0 -2.046875,1.9375 -2.640625,3.875 C 1.3125,-0.734375 0.75,-1.28125 0.75,-2 c 0,-0.28125 0.234375,-1.375 0.828125,-2.0625 0.09375,-0.09375 0.09375,-0.109375 0.09375,-0.140625 0,-0.03125 -0.03125,-0.09375 -0.125,-0.09375 -0.28125,0 -1.046875,1.453125 -1.046875,2.40625 0,0.9375 0.65625,1.65625 1.71875,1.90625 L 1.6875,1.6875 z m 1.390625,-2.15625 c -0.09375,0 -0.109375,0 -0.1875,-0.015625 -0.125,0 -0.125,0 -0.125,-0.03125 0,-0.015625 0.171875,-0.9375 0.1875,-1.078125 0.3125,-1.28125 1.09375,-2.234375 1.984375,-2.234375 0.6875,0 0.953125,0.53125 0.953125,1.015625 0,1.125 -1.28125,2.34375 -2.8125,2.34375 z m 0,0"
             style="stroke:none" />
        </symbol>
      </g>
    </defs>
    <g
       id="textext-aaef4de3-2">
      <g
         id="g7737"
         style="fill:#000000;fill-opacity:1">
        <use
           id="use7739"
           y="134.765"
           x="223.43201"
           xlink:href="#textext-aaef4de3-1"
           width="250"
           height="250" />
      </g>
    </g>
  </g>
  <g
     ns0:text="$L$"
     ns0:preamble=""
     transform="translate(-48.873207,57.931135)"
     id="g7905">
    <defs
       id="defs7907">
      <g
         id="g7909">
        <symbol
           overflow="visible"
           id="textext-5328596a-0"
           style="overflow:visible">
          <path
             style="stroke:none"
             d=""
             id="path7912" />
        </symbol>
        <symbol
           overflow="visible"
           id="textext-5328596a-1"
           style="overflow:visible">
          <path
             style="stroke:none"
             d="M 3.734375,-6.03125 C 3.8125,-6.390625 3.84375,-6.5 4.78125,-6.5 c 0.296875,0 0.375,0 0.375,-0.1875 0,-0.125 -0.109375,-0.125 -0.15625,-0.125 -0.328125,0 -1.140625,0.03125 -1.46875,0.03125 -0.296875,0 -1.03125,-0.03125 -1.328125,-0.03125 -0.0625,0 -0.1875,0 -0.1875,0.203125 0,0.109375 0.09375,0.109375 0.28125,0.109375 0.015625,0 0.203125,0 0.375,0.015625 0.171875,0.03125 0.265625,0.03125 0.265625,0.171875 0,0.03125 0,0.0625 -0.03125,0.1875 L 1.5625,-0.78125 c -0.09375,0.390625 -0.109375,0.46875 -0.90625,0.46875 -0.171875,0 -0.265625,0 -0.265625,0.203125 C 0.390625,0 0.484375,0 0.65625,0 l 4.625,0 C 5.515625,0 5.515625,0 5.578125,-0.171875 L 6.375,-2.328125 c 0.03125,-0.109375 0.03125,-0.125 0.03125,-0.140625 0,-0.03125 -0.03125,-0.109375 -0.109375,-0.109375 -0.09375,0 -0.109375,0.0625 -0.171875,0.21875 -0.34375,0.90625 -0.78125,2.046875 -2.5,2.046875 l -0.9375,0 c -0.140625,0 -0.171875,0 -0.21875,0 -0.109375,-0.015625 -0.140625,-0.03125 -0.140625,-0.109375 0,-0.03125 0,-0.046875 0.046875,-0.21875 L 3.734375,-6.03125 z m 0,0"
             id="path7915" />
        </symbol>
      </g>
    </defs>
    <g
       id="textext-5328596a-2">
      <g
         style="fill:#000000;fill-opacity:1"
         id="g7918">
        <use
           xlink:href="#textext-5328596a-1"
           x="223.43201"
           y="134.765"
           id="use7920"
           width="250"
           height="250" />
      </g>
    </g>
  </g>
  <path
     transform="translate(-7.4432293,12.281328)"
     sodipodi:end="5.762741"
     sodipodi:start="4.7104533"
     d="m 125.01671,140.95673 a 15.25862,15.25862 0 0 1 13.26789,7.671 l -13.23835,7.58759 z"
     sodipodi:ry="15.25862"
     sodipodi:rx="15.25862"
     sodipodi:cy="156.21532"
     sodipodi:cx="125.04625"
     id="path7999"
     style="color:#000000;fill:none;stroke:#000000;stroke-width:0.5;stroke-linecap:round;stroke-linejoin:round;stroke-miterlimit:4;stroke-opacity:1;stroke-dasharray:none;stroke-dashoffset:0;marker:none;visibility:visible;display:inline;overflow:visible;enable-background:accumulate"
     sodipodi:type="arc" />
  <g
     id="g8183"
     transform="translate(-98.02527,20.220884)"
     ns0:preamble=""
     ns0:text="$\\theta$">
    <defs
       id="defs8185">
      <g
         id="g8187">
        <symbol
           id="textext-bfdbd9ef-0"
           overflow="visible"
           style="overflow:visible">
          <path
             id="path8190"
             d=""
             style="stroke:none" />
        </symbol>
        <symbol
           id="textext-bfdbd9ef-1"
           overflow="visible"
           style="overflow:visible">
          <path
             id="path8193"
             d="m 4.53125,-4.984375 c 0,-0.65625 -0.171875,-2.046875 -1.1875,-2.046875 -1.390625,0 -2.921875,2.8125 -2.921875,5.09375 0,0.9375 0.28125,2.046875 1.1875,2.046875 1.40625,0 2.921875,-2.859375 2.921875,-5.09375 z M 1.46875,-3.625 C 1.640625,-4.25 1.84375,-5.046875 2.25,-5.765625 2.515625,-6.25 2.875,-6.8125 3.328125,-6.8125 c 0.484375,0 0.546875,0.640625 0.546875,1.203125 0,0.5 -0.078125,1 -0.3125,1.984375 l -2.09375,0 z m 2,0.328125 C 3.359375,-2.84375 3.15625,-2 2.765625,-1.28125 c -0.34375,0.6875 -0.71875,1.171875 -1.15625,1.171875 -0.328125,0 -0.53125,-0.296875 -0.53125,-1.21875 0,-0.421875 0.0625,-1 0.3125,-1.96875 l 2.078125,0 z m 0,0"
             style="stroke:none" />
        </symbol>
      </g>
    </defs>
    <g
       id="textext-bfdbd9ef-2">
      <g
         id="g8196"
         style="fill:#000000;fill-opacity:1">
        <use
           id="use8198"
           y="134.765"
           x="223.43201"
           xlink:href="#textext-bfdbd9ef-1"
           width="250"
           height="250" />
      </g>
    </g>
  </g>
  <path
     style="fill:none;stroke:#000000;stroke-width:0.5;stroke-linecap:butt;stroke-linejoin:miter;stroke-miterlimit:4;stroke-opacity:1;stroke-dasharray:2, 2;stroke-dashoffset:0;marker-start:url(#Arrow2Mstart);marker-end:url(#Arrow2Mend)"
     d="m 140.2035,206.25 65.51406,-37.96053"
     id="path8279"
     sodipodi:nodetypes="cc" />
</svg>
