<?xml version="1.0" encoding="UTF-8" standalone="no"?>
<!-- Created with Inkscape (http://www.inkscape.org/) -->

<svg
   xmlns:ns0="http://www.iki.fi/pav/software/textext/"
   xmlns:dc="http://purl.org/dc/elements/1.1/"
   xmlns:cc="http://creativecommons.org/ns#"
   xmlns:rdf="http://www.w3.org/1999/02/22-rdf-syntax-ns#"
   xmlns:svg="http://www.w3.org/2000/svg"
   xmlns="http://www.w3.org/2000/svg"
   xmlns:xlink="http://www.w3.org/1999/xlink"
   xmlns:sodipodi="http://sodipodi.sourceforge.net/DTD/sodipodi-0.dtd"
   xmlns:inkscape="http://www.inkscape.org/namespaces/inkscape"
   width="354.33069"
   height="354.33069"
   id="svg2"
   version="1.1"
   inkscape:version="0.48.4 r9939"
   sodipodi:docname="optim-InvKin.svg">
  <sodipodi:namedview
     id="base"
     pagecolor="#ffffff"
     bordercolor="#666666"
     borderopacity="1.0"
     inkscape:pageopacity="0.0"
     inkscape:pageshadow="2"
     inkscape:zoom="0.6702778"
     inkscape:cx="-285.48065"
     inkscape:cy="53.265183"
     inkscape:document-units="mm"
     inkscape:current-layer="layer5"
     showgrid="true"
     units="cm"
     gridtolerance="10"
     objecttolerance="10"
     guidetolerance="10"
     inkscape:window-width="1366"
     inkscape:window-height="744"
     inkscape:window-x="0"
     inkscape:window-y="24"
     inkscape:window-maximized="1">
    <inkscape:grid
       type="xygrid"
       id="grid2816"
       empspacing="5"
       visible="true"
       enabled="true"
       snapvisiblegridlinesonly="true"
       spacingx="5mm"
       spacingy="5mm"
       units="mm" />
  </sodipodi:namedview>
  <defs
     id="defs4">
    <linearGradient
       inkscape:collect="always"
       id="linearGradient5123">
      <stop
         style="stop-color:#0a7300;stop-opacity:1;"
         offset="0"
         id="stop5125" />
      <stop
         style="stop-color:#0a7300;stop-opacity:0;"
         offset="1"
         id="stop5127" />
    </linearGradient>
    <linearGradient
       inkscape:collect="always"
       id="linearGradient5051">
      <stop
         style="stop-color:#00117c;stop-opacity:1;"
         offset="0"
         id="stop5053" />
      <stop
         style="stop-color:#00117c;stop-opacity:0;"
         offset="1"
         id="stop5055" />
    </linearGradient>
    <inkscape:perspective
       sodipodi:type="inkscape:persp3d"
       inkscape:vp_x="0 : 526.18109 : 1"
       inkscape:vp_y="0 : 1000 : 0"
       inkscape:vp_z="744.09448 : 526.18109 : 1"
       inkscape:persp3d-origin="372.04724 : 350.78739 : 1"
       id="perspective10" />
    <inkscape:perspective
       id="perspective5067"
       inkscape:persp3d-origin="0.5 : 0.33333333 : 1"
       inkscape:vp_z="1 : 0.5 : 1"
       inkscape:vp_y="0 : 1000 : 0"
       inkscape:vp_x="0 : 0.5 : 1"
       sodipodi:type="inkscape:persp3d" />
    <linearGradient
       inkscape:collect="always"
       xlink:href="#linearGradient5051-9"
       id="linearGradient5057-9"
       x1="-88.58268"
       y1="44.291313"
       x2="35.433067"
       y2="44.291313"
       gradientUnits="userSpaceOnUse" />
    <linearGradient
       inkscape:collect="always"
       id="linearGradient5051-9">
      <stop
         style="stop-color:#00117c;stop-opacity:1;"
         offset="0"
         id="stop5053-3" />
      <stop
         style="stop-color:#00117c;stop-opacity:0;"
         offset="1"
         id="stop5055-9" />
    </linearGradient>
    <radialGradient
       inkscape:collect="always"
       xlink:href="#linearGradient5123"
       id="radialGradient5157"
       gradientUnits="userSpaceOnUse"
       cx="88.58268"
       cy="177.16533"
       fx="88.58268"
       fy="177.16533"
       r="106.29921" />
    <linearGradient
       inkscape:collect="always"
       xlink:href="#linearGradient5051"
       id="linearGradient5165"
       gradientUnits="userSpaceOnUse"
       gradientTransform="matrix(1,0,0,1.3333334,0,29.527571)"
       x1="-88.58268"
       y1="44.291313"
       x2="35.433067"
       y2="44.291313" />
    <linearGradient
       inkscape:collect="always"
       xlink:href="#linearGradient5051-9"
       id="linearGradient5167"
       gradientUnits="userSpaceOnUse"
       gradientTransform="matrix(1,0,0,1.3333334,177.16535,29.527564)"
       x1="-88.58268"
       y1="44.291313"
       x2="35.433067"
       y2="44.291313" />
    <inkscape:perspective
       id="perspective32060"
       inkscape:persp3d-origin="0.5 : 0.33333333 : 1"
       inkscape:vp_z="1 : 0.5 : 1"
       inkscape:vp_y="0 : 1000 : 0"
       inkscape:vp_x="0 : 0.5 : 1"
       sodipodi:type="inkscape:persp3d" />
  </defs>
  <metadata
     id="metadata7">
    <rdf:RDF>
      <cc:Work
         rdf:about="">
        <dc:format>image/svg+xml</dc:format>
        <dc:type
           rdf:resource="http://purl.org/dc/dcmitype/StillImage" />
        <dc:title></dc:title>
      </cc:Work>
    </rdf:RDF>
  </metadata>
  <g
     inkscape:groupmode="layer"
     id="layer2"
     inkscape:label="shades"
     style="display:inline">
    <path
       sodipodi:type="arc"
       style="fill:url(#radialGradient5157);fill-opacity:1;stroke:#00d006;stroke-width:0;stroke-linecap:round;stroke-linejoin:round;stroke-miterlimit:4;stroke-opacity:1;stroke-dasharray:none;stroke-dashoffset:0"
       id="path5097"
       sodipodi:cx="88.58268"
       sodipodi:cy="177.16533"
       sodipodi:rx="106.29921"
       sodipodi:ry="106.29921"
       d="m 194.88189,177.16533 a 106.29921,106.29921 0 1 1 -212.59842,0 106.29921,106.29921 0 1 1 212.59842,0 z"
       transform="matrix(0.66666666,0,0,0.66666673,11.811025,94.488174)" />
    <g
       style="display:inline"
       id="g5159"
       transform="matrix(0.76604444,-0.64278761,0.64278761,0.76604444,-508.10509,-285.84288)">
      <g
         transform="matrix(0.57142859,0,0,1,316.36671,733.46456)"
         id="g5132"
         style="display:inline">
        <rect
           style="fill:url(#linearGradient5165);fill-opacity:1;stroke:#00089f;stroke-width:0;stroke-linecap:round;stroke-linejoin:round;stroke-miterlimit:4;stroke-opacity:1;stroke-dasharray:none;stroke-dashoffset:0"
           id="rect5049"
           width="124.01575"
           height="354.33072"
           x="-88.58268"
           y="-88.582695"
           ry="2.8835507e-06" />
        <rect
           style="fill:url(#linearGradient5167);fill-opacity:1;stroke:#00089f;stroke-width:0;stroke-linecap:round;stroke-linejoin:round;stroke-miterlimit:4;stroke-opacity:1;stroke-dasharray:none;stroke-dashoffset:0"
           id="rect5049-8"
           width="124.01575"
           height="354.33072"
           x="88.58268"
           y="-88.582695"
           ry="2.8835507e-06"
           transform="scale(-1,1)" />
      </g>
      <path
         sodipodi:nodetypes="cc"
         id="path3587"
         d="m 265.74803,627.16533 0,389.76377"
         style="fill:none;stroke:#000000;stroke-width:2;stroke-linecap:butt;stroke-linejoin:miter;stroke-miterlimit:4;stroke-opacity:1;stroke-dasharray:none" />
    </g>
    <path
       sodipodi:type="arc"
       style="display:inline;fill:#000000;fill-opacity:1;stroke:#000000;stroke-width:0;stroke-linecap:round;stroke-linejoin:round;stroke-miterlimit:4;stroke-opacity:1;stroke-dasharray:none;stroke-dashoffset:0"
       id="path2813"
       sodipodi:cx="97.440948"
       sodipodi:cy="186.02361"
       sodipodi:rx="8.8582678"
       sodipodi:ry="8.8582678"
       d="m 106.29922,186.02361 a 8.8582678,8.8582678 0 1 1 -17.716539,0 8.8582678,8.8582678 0 1 1 17.716539,0 z"
       transform="matrix(0.33157897,0,0,0.33157897,38.556773,150.9169)" />
  </g>
  <g
     inkscape:label="text"
     inkscape:groupmode="layer"
     id="layer1"
     transform="translate(0,-698.0315)"
     style="display:none">
    <g
       id="g3418"
       transform="matrix(3,0,0,3,-463.49151,436.26782)"
       ns0:preamble=""
       ns0:text="$J\\delta q - \\delta y=0$">
      <defs
         id="defs3420">
        <g
           id="g3422">
          <symbol
             style="overflow:visible"
             id="textext-62aac349-0"
             overflow="visible">
            <path
               inkscape:connector-curvature="0"
               id="path3425"
               d=""
               style="stroke:none" />
          </symbol>
          <symbol
             style="overflow:visible"
             id="textext-62aac349-1"
             overflow="visible">
            <path
               inkscape:connector-curvature="0"
               id="path3428"
               d="M 5.390625,-6.078125 C 5.46875,-6.40625 5.5,-6.5 6.046875,-6.5 c 0.15625,0 0.265625,0 0.265625,-0.1875 0,-0.09375 -0.0625,-0.125 -0.140625,-0.125 -0.25,0 -0.859375,0.03125 -1.109375,0.03125 -0.328125,0 -1.140625,-0.03125 -1.46875,-0.03125 -0.078125,0 -0.203125,0 -0.203125,0.203125 C 3.390625,-6.5 3.46875,-6.5 3.734375,-6.5 c 0.21875,0 0.328125,0 0.578125,0.015625 0.234375,0.03125 0.296875,0.0625 0.296875,0.203125 0,0.0625 -0.015625,0.125 -0.03125,0.203125 L 3.421875,-1.5 C 3.1875,-0.53125 2.515625,0 2,0 1.734375,0 1.203125,-0.09375 1.046875,-0.625 c 0.03125,0.015625 0.09375,0.015625 0.125,0.015625 0.390625,0 0.640625,-0.34375 0.640625,-0.640625 0,-0.3125 -0.265625,-0.421875 -0.4375,-0.421875 -0.171875,0 -0.671875,0.125 -0.671875,0.796875 0,0.625 0.53125,1.09375 1.328125,1.09375 0.90625,0 1.953125,-0.65625 2.203125,-1.640625 l 1.15625,-4.65625 z m 0,0"
               style="stroke:none" />
          </symbol>
          <symbol
             style="overflow:visible"
             id="textext-62aac349-2"
             overflow="visible">
            <path
               inkscape:connector-curvature="0"
               id="path3431"
               d="M 2.625,-4.359375 C 1.390625,-4.0625 0.421875,-2.765625 0.421875,-1.5625 0.421875,-0.59375 1.0625,0.125 2,0.125 c 1.15625,0 1.984375,-1.578125 1.984375,-2.953125 0,-0.90625 -0.390625,-1.40625 -0.734375,-1.84375 C 2.890625,-5.125 2.296875,-5.875 2.296875,-6.3125 c 0,-0.21875 0.203125,-0.453125 0.546875,-0.453125 0.3125,0 0.5,0.125 0.71875,0.265625 0.203125,0.125 0.390625,0.25 0.546875,0.25 C 4.359375,-6.25 4.5,-6.484375 4.5,-6.65625 4.5,-6.875 4.34375,-6.890625 3.984375,-6.984375 3.46875,-7.09375 3.328125,-7.09375 3.171875,-7.09375 c -0.78125,0 -1.140625,0.4375 -1.140625,1.03125 0,0.546875 0.296875,1.09375 0.59375,1.703125 z m 0.125,0.21875 c 0.25,0.46875 0.546875,1 0.546875,1.71875 0,0.65625 -0.375,2.328125 -1.296875,2.328125 -0.546875,0 -0.96875,-0.421875 -0.96875,-1.1875 0,-0.625 0.375,-2.5 1.71875,-2.859375 z m 0,0"
               style="stroke:none" />
          </symbol>
          <symbol
             style="overflow:visible"
             id="textext-62aac349-3"
             overflow="visible">
            <path
               inkscape:connector-curvature="0"
               id="path3434"
               d="m 4.5,-4.296875 c 0,-0.046875 -0.03125,-0.09375 -0.09375,-0.09375 -0.109375,0 -0.515625,0.390625 -0.671875,0.6875 C 3.515625,-4.25 3.125,-4.40625 2.796875,-4.40625 c -1.171875,0 -2.390625,1.46875 -2.390625,2.921875 0,0.96875 0.578125,1.59375 1.3125,1.59375 0.421875,0 0.8125,-0.234375 1.171875,-0.59375 -0.09375,0.34375 -0.421875,1.6875 -0.453125,1.78125 -0.078125,0.28125 -0.15625,0.3125 -0.71875,0.328125 -0.125,0 -0.21875,0 -0.21875,0.203125 0,0 0,0.109375 0.125,0.109375 0.3125,0 0.671875,-0.03125 1,-0.03125 0.328125,0 0.6875,0.03125 1.03125,0.03125 0.046875,0 0.171875,0 0.171875,-0.203125 C 3.828125,1.625 3.734375,1.625 3.5625,1.625 3.09375,1.625 3.09375,1.5625 3.09375,1.46875 3.09375,1.390625 3.109375,1.328125 3.125,1.25 L 4.5,-4.296875 z m -2.75,4.1875 c -0.609375,0 -0.640625,-0.765625 -0.640625,-0.9375 0,-0.484375 0.28125,-1.5625 0.453125,-1.984375 0.3125,-0.734375 0.828125,-1.15625 1.234375,-1.15625 0.65625,0 0.796875,0.8125 0.796875,0.875 0,0.0625 -0.546875,2.25 -0.578125,2.28125 C 2.859375,-0.75 2.296875,-0.109375 1.75,-0.109375 z m 0,0"
               style="stroke:none" />
          </symbol>
          <symbol
             style="overflow:visible"
             id="textext-62aac349-4"
             overflow="visible">
            <path
               inkscape:connector-curvature="0"
               id="path3437"
               d="m 4.84375,-3.796875 c 0.046875,-0.140625 0.046875,-0.15625 0.046875,-0.234375 0,-0.171875 -0.140625,-0.265625 -0.296875,-0.265625 -0.09375,0 -0.25,0.0625 -0.34375,0.203125 -0.015625,0.0625 -0.109375,0.359375 -0.140625,0.546875 -0.078125,0.25 -0.140625,0.53125 -0.203125,0.796875 l -0.453125,1.796875 c -0.03125,0.140625 -0.46875,0.84375 -1.125,0.84375 -0.5,0 -0.609375,-0.4375 -0.609375,-0.8125 C 1.71875,-1.375 1.890625,-2 2.21875,-2.875 2.375,-3.28125 2.421875,-3.390625 2.421875,-3.59375 c 0,-0.4375 -0.3125,-0.8125 -0.8125,-0.8125 -0.953125,0 -1.3125,1.453125 -1.3125,1.53125 0,0.109375 0.09375,0.109375 0.109375,0.109375 0.109375,0 0.109375,-0.03125 0.15625,-0.1875 0.28125,-0.9375 0.671875,-1.234375 1.015625,-1.234375 0.078125,0 0.25,0 0.25,0.3125 0,0.25 -0.109375,0.515625 -0.171875,0.703125 -0.40625,1.0625 -0.578125,1.625 -0.578125,2.09375 0,0.890625 0.625,1.1875 1.21875,1.1875 0.390625,0 0.71875,-0.171875 1,-0.453125 -0.125,0.515625 -0.25,1.015625 -0.640625,1.546875 -0.265625,0.328125 -0.640625,0.625 -1.09375,0.625 -0.140625,0 -0.59375,-0.03125 -0.765625,-0.421875 0.15625,0 0.296875,0 0.421875,-0.125 C 1.328125,1.203125 1.421875,1.0625 1.421875,0.875 1.421875,0.5625 1.15625,0.53125 1.0625,0.53125 0.828125,0.53125 0.5,0.6875 0.5,1.171875 c 0,0.5 0.4375,0.875 1.0625,0.875 1.015625,0 2.046875,-0.90625 2.328125,-2.03125 l 0.953125,-3.8125 z m 0,0"
               style="stroke:none" />
          </symbol>
          <symbol
             style="overflow:visible"
             id="textext-62aac349-5"
             overflow="visible">
            <path
               inkscape:connector-curvature="0"
               id="path3440"
               d=""
               style="stroke:none" />
          </symbol>
          <symbol
             style="overflow:visible"
             id="textext-62aac349-6"
             overflow="visible">
            <path
               inkscape:connector-curvature="0"
               id="path3443"
               d="m 6.5625,-2.296875 c 0.171875,0 0.359375,0 0.359375,-0.203125 0,-0.1875 -0.1875,-0.1875 -0.359375,-0.1875 l -5.390625,0 c -0.171875,0 -0.34375,0 -0.34375,0.1875 0,0.203125 0.171875,0.203125 0.34375,0.203125 l 5.390625,0 z m 0,0"
               style="stroke:none" />
          </symbol>
          <symbol
             style="overflow:visible"
             id="textext-62aac349-7"
             overflow="visible">
            <path
               inkscape:connector-curvature="0"
               id="path3446"
               d=""
               style="stroke:none" />
          </symbol>
          <symbol
             style="overflow:visible"
             id="textext-62aac349-8"
             overflow="visible">
            <path
               inkscape:connector-curvature="0"
               id="path3449"
               d="m 6.84375,-3.265625 c 0.15625,0 0.34375,0 0.34375,-0.1875 C 7.1875,-3.65625 7,-3.65625 6.859375,-3.65625 l -5.96875,0 c -0.140625,0 -0.328125,0 -0.328125,0.203125 0,0.1875 0.1875,0.1875 0.328125,0.1875 l 5.953125,0 z m 0.015625,1.9375 c 0.140625,0 0.328125,0 0.328125,-0.203125 0,-0.1875 -0.1875,-0.1875 -0.34375,-0.1875 l -5.953125,0 c -0.140625,0 -0.328125,0 -0.328125,0.1875 0,0.203125 0.1875,0.203125 0.328125,0.203125 l 5.96875,0 z m 0,0"
               style="stroke:none" />
          </symbol>
          <symbol
             style="overflow:visible"
             id="textext-62aac349-9"
             overflow="visible">
            <path
               inkscape:connector-curvature="0"
               id="path3452"
               d="m 4.578125,-3.1875 c 0,-0.796875 -0.046875,-1.59375 -0.390625,-2.328125 -0.453125,-0.96875 -1.28125,-1.125 -1.6875,-1.125 -0.609375,0 -1.328125,0.265625 -1.75,1.1875 -0.3125,0.6875 -0.359375,1.46875 -0.359375,2.265625 0,0.75 0.03125,1.640625 0.453125,2.40625 0.421875,0.796875 1.15625,1 1.640625,1 0.53125,0 1.296875,-0.203125 1.734375,-1.15625 0.3125,-0.6875 0.359375,-1.46875 0.359375,-2.25 z M 2.484375,0 C 2.09375,0 1.5,-0.25 1.328125,-1.203125 1.21875,-1.796875 1.21875,-2.71875 1.21875,-3.3125 c 0,-0.640625 0,-1.296875 0.078125,-1.828125 0.1875,-1.1875 0.9375,-1.28125 1.1875,-1.28125 0.328125,0 0.984375,0.1875 1.171875,1.171875 0.109375,0.5625 0.109375,1.3125 0.109375,1.9375 0,0.75 0,1.421875 -0.109375,2.0625 C 3.5,-0.296875 2.9375,0 2.484375,0 z m 0,0"
               style="stroke:none" />
          </symbol>
        </g>
      </defs>
      <g
         id="textext-62aac349-10">
        <g
           id="g3455"
           style="fill:#000000;fill-opacity:1">
          <use
             height="354.33069"
             width="354.33069"
             id="use3457"
             y="134.765"
             x="223.43201"
             xlink:href="#textext-62aac349-1" />
        </g>
        <g
           id="g3459"
           style="fill:#000000;fill-opacity:1">
          <use
             height="354.33069"
             width="354.33069"
             id="use3461"
             y="134.765"
             x="229.91267"
             xlink:href="#textext-62aac349-2" />
        </g>
        <g
           id="g3463"
           style="fill:#000000;fill-opacity:1">
          <use
             height="354.33069"
             width="354.33069"
             id="use3465"
             y="134.765"
             x="234.71863"
             xlink:href="#textext-62aac349-3" />
        </g>
        <g
           id="g3467"
           style="fill:#000000;fill-opacity:1">
          <use
             height="354.33069"
             width="354.33069"
             id="use3469"
             y="134.765"
             x="241.73801"
             xlink:href="#textext-62aac349-6" />
        </g>
        <g
           id="g3471"
           style="fill:#000000;fill-opacity:1">
          <use
             height="354.33069"
             width="354.33069"
             id="use3473"
             y="134.765"
             x="251.701"
             xlink:href="#textext-62aac349-2" />
        </g>
        <g
           id="g3475"
           style="fill:#000000;fill-opacity:1">
          <use
             height="354.33069"
             width="354.33069"
             id="use3477"
             y="134.765"
             x="256.50696"
             xlink:href="#textext-62aac349-4" />
        </g>
        <g
           id="g3479"
           style="fill:#000000;fill-opacity:1">
          <use
             height="354.33069"
             width="354.33069"
             id="use3481"
             y="134.765"
             x="264.51501"
             xlink:href="#textext-62aac349-8" />
        </g>
        <g
           id="g3483"
           style="fill:#000000;fill-opacity:1">
          <use
             height="354.33069"
             width="354.33069"
             id="use3485"
             y="134.765"
             x="275.03351"
             xlink:href="#textext-62aac349-9" />
        </g>
      </g>
    </g>
    <g
       ns0:text="$\\delta q=0$"
       ns0:preamble=""
       transform="matrix(3,0,0,3,-638.34658,529.913)"
       id="g3829">
      <defs
         id="defs3831">
        <g
           id="g3833">
          <symbol
             style="overflow:visible"
             overflow="visible"
             id="textext-552e7208-0">
            <path
               inkscape:connector-curvature="0"
               style="stroke:none"
               d=""
               id="path3836" />
          </symbol>
          <symbol
             style="overflow:visible"
             overflow="visible"
             id="textext-552e7208-1">
            <path
               inkscape:connector-curvature="0"
               style="stroke:none"
               d="M 2.625,-4.359375 C 1.390625,-4.0625 0.421875,-2.765625 0.421875,-1.5625 0.421875,-0.59375 1.0625,0.125 2,0.125 c 1.15625,0 1.984375,-1.578125 1.984375,-2.953125 0,-0.90625 -0.390625,-1.40625 -0.734375,-1.84375 C 2.890625,-5.125 2.296875,-5.875 2.296875,-6.3125 c 0,-0.21875 0.203125,-0.453125 0.546875,-0.453125 0.3125,0 0.5,0.125 0.71875,0.265625 0.203125,0.125 0.390625,0.25 0.546875,0.25 C 4.359375,-6.25 4.5,-6.484375 4.5,-6.65625 4.5,-6.875 4.34375,-6.890625 3.984375,-6.984375 3.46875,-7.09375 3.328125,-7.09375 3.171875,-7.09375 c -0.78125,0 -1.140625,0.4375 -1.140625,1.03125 0,0.546875 0.296875,1.09375 0.59375,1.703125 z m 0.125,0.21875 c 0.25,0.46875 0.546875,1 0.546875,1.71875 0,0.65625 -0.375,2.328125 -1.296875,2.328125 -0.546875,0 -0.96875,-0.421875 -0.96875,-1.1875 0,-0.625 0.375,-2.5 1.71875,-2.859375 z m 0,0"
               id="path3839" />
          </symbol>
          <symbol
             style="overflow:visible"
             overflow="visible"
             id="textext-552e7208-2">
            <path
               inkscape:connector-curvature="0"
               style="stroke:none"
               d="m 4.5,-4.296875 c 0,-0.046875 -0.03125,-0.09375 -0.09375,-0.09375 -0.109375,0 -0.515625,0.390625 -0.671875,0.6875 C 3.515625,-4.25 3.125,-4.40625 2.796875,-4.40625 c -1.171875,0 -2.390625,1.46875 -2.390625,2.921875 0,0.96875 0.578125,1.59375 1.3125,1.59375 0.421875,0 0.8125,-0.234375 1.171875,-0.59375 -0.09375,0.34375 -0.421875,1.6875 -0.453125,1.78125 -0.078125,0.28125 -0.15625,0.3125 -0.71875,0.328125 -0.125,0 -0.21875,0 -0.21875,0.203125 0,0 0,0.109375 0.125,0.109375 0.3125,0 0.671875,-0.03125 1,-0.03125 0.328125,0 0.6875,0.03125 1.03125,0.03125 0.046875,0 0.171875,0 0.171875,-0.203125 C 3.828125,1.625 3.734375,1.625 3.5625,1.625 3.09375,1.625 3.09375,1.5625 3.09375,1.46875 3.09375,1.390625 3.109375,1.328125 3.125,1.25 L 4.5,-4.296875 z m -2.75,4.1875 c -0.609375,0 -0.640625,-0.765625 -0.640625,-0.9375 0,-0.484375 0.28125,-1.5625 0.453125,-1.984375 0.3125,-0.734375 0.828125,-1.15625 1.234375,-1.15625 0.65625,0 0.796875,0.8125 0.796875,0.875 0,0.0625 -0.546875,2.25 -0.578125,2.28125 C 2.859375,-0.75 2.296875,-0.109375 1.75,-0.109375 z m 0,0"
               id="path3842" />
          </symbol>
          <symbol
             style="overflow:visible"
             overflow="visible"
             id="textext-552e7208-3">
            <path
               inkscape:connector-curvature="0"
               style="stroke:none"
               d=""
               id="path3845" />
          </symbol>
          <symbol
             style="overflow:visible"
             overflow="visible"
             id="textext-552e7208-4">
            <path
               inkscape:connector-curvature="0"
               style="stroke:none"
               d="m 6.84375,-3.265625 c 0.15625,0 0.34375,0 0.34375,-0.1875 C 7.1875,-3.65625 7,-3.65625 6.859375,-3.65625 l -5.96875,0 c -0.140625,0 -0.328125,0 -0.328125,0.203125 0,0.1875 0.1875,0.1875 0.328125,0.1875 l 5.953125,0 z m 0.015625,1.9375 c 0.140625,0 0.328125,0 0.328125,-0.203125 0,-0.1875 -0.1875,-0.1875 -0.34375,-0.1875 l -5.953125,0 c -0.140625,0 -0.328125,0 -0.328125,0.1875 0,0.203125 0.1875,0.203125 0.328125,0.203125 l 5.96875,0 z m 0,0"
               id="path3848" />
          </symbol>
          <symbol
             style="overflow:visible"
             overflow="visible"
             id="textext-552e7208-5">
            <path
               inkscape:connector-curvature="0"
               style="stroke:none"
               d="m 4.578125,-3.1875 c 0,-0.796875 -0.046875,-1.59375 -0.390625,-2.328125 -0.453125,-0.96875 -1.28125,-1.125 -1.6875,-1.125 -0.609375,0 -1.328125,0.265625 -1.75,1.1875 -0.3125,0.6875 -0.359375,1.46875 -0.359375,2.265625 0,0.75 0.03125,1.640625 0.453125,2.40625 0.421875,0.796875 1.15625,1 1.640625,1 0.53125,0 1.296875,-0.203125 1.734375,-1.15625 0.3125,-0.6875 0.359375,-1.46875 0.359375,-2.25 z M 2.484375,0 C 2.09375,0 1.5,-0.25 1.328125,-1.203125 1.21875,-1.796875 1.21875,-2.71875 1.21875,-3.3125 c 0,-0.640625 0,-1.296875 0.078125,-1.828125 0.1875,-1.1875 0.9375,-1.28125 1.1875,-1.28125 0.328125,0 0.984375,0.1875 1.171875,1.171875 0.109375,0.5625 0.109375,1.3125 0.109375,1.9375 0,0.75 0,1.421875 -0.109375,2.0625 C 3.5,-0.296875 2.9375,0 2.484375,0 z m 0,0"
               id="path3851" />
          </symbol>
        </g>
      </defs>
      <g
         id="textext-552e7208-6">
        <g
           style="fill:#000000;fill-opacity:1"
           id="g3854">
          <use
             height="354.33069"
             width="354.33069"
             xlink:href="#textext-552e7208-1"
             x="223.43201"
             y="134.765"
             id="use3856" />
        </g>
        <g
           style="fill:#000000;fill-opacity:1"
           id="g3858">
          <use
             height="354.33069"
             width="354.33069"
             xlink:href="#textext-552e7208-2"
             x="228.23796"
             y="134.765"
             id="use3860" />
        </g>
        <g
           style="fill:#000000;fill-opacity:1"
           id="g3862">
          <use
             height="354.33069"
             width="354.33069"
             xlink:href="#textext-552e7208-4"
             x="235.80901"
             y="134.765"
             id="use3864" />
        </g>
        <g
           style="fill:#000000;fill-opacity:1"
           id="g3866">
          <use
             height="354.33069"
             width="354.33069"
             xlink:href="#textext-552e7208-5"
             x="246.32751"
             y="134.765"
             id="use3868" />
        </g>
      </g>
    </g>
  </g>
  <g
     inkscape:groupmode="layer"
     id="layer5"
     inkscape:label="text2"
     style="display:inline">
    <g
       ns0:text="$q= q_0$"
       ns0:preamble="/home/mtoussai/.config/inkscape/extensions/textext_preamble.tex"
       transform="matrix(3,0,0,3,-636.9984,-166.056)"
       style="display:inline"
       id="g3667">
      <defs
         id="defs3669">
        <g
           id="g3671">
          <symbol
             overflow="visible"
             id="textext-413b9505-0"
             style="overflow:visible">
            <path
               style="stroke:none"
               d=""
               id="path3674"
               inkscape:connector-curvature="0" />
          </symbol>
          <symbol
             overflow="visible"
             id="textext-413b9505-1"
             style="overflow:visible">
            <path
               style="stroke:none"
               d="m 4.5,-4.296875 c 0,-0.046875 -0.03125,-0.09375 -0.09375,-0.09375 -0.109375,0 -0.515625,0.390625 -0.671875,0.6875 C 3.515625,-4.25 3.125,-4.40625 2.796875,-4.40625 c -1.171875,0 -2.390625,1.46875 -2.390625,2.921875 0,0.96875 0.578125,1.59375 1.3125,1.59375 0.421875,0 0.8125,-0.234375 1.171875,-0.59375 -0.09375,0.34375 -0.421875,1.6875 -0.453125,1.78125 -0.078125,0.28125 -0.15625,0.3125 -0.71875,0.328125 -0.125,0 -0.21875,0 -0.21875,0.203125 0,0 0,0.109375 0.125,0.109375 0.3125,0 0.671875,-0.03125 1,-0.03125 0.328125,0 0.6875,0.03125 1.03125,0.03125 0.046875,0 0.171875,0 0.171875,-0.203125 C 3.828125,1.625 3.734375,1.625 3.5625,1.625 3.09375,1.625 3.09375,1.5625 3.09375,1.46875 3.09375,1.390625 3.109375,1.328125 3.125,1.25 z m -2.75,4.1875 c -0.609375,0 -0.640625,-0.765625 -0.640625,-0.9375 0,-0.484375 0.28125,-1.5625 0.453125,-1.984375 0.3125,-0.734375 0.828125,-1.15625 1.234375,-1.15625 0.65625,0 0.796875,0.8125 0.796875,0.875 0,0.0625 -0.546875,2.25 -0.578125,2.28125 C 2.859375,-0.75 2.296875,-0.109375 1.75,-0.109375 z"
               id="path3677"
               inkscape:connector-curvature="0" />
          </symbol>
          <symbol
             overflow="visible"
             id="textext-413b9505-2"
             style="overflow:visible">
            <path
               style="stroke:none"
               d=""
               id="path3680"
               inkscape:connector-curvature="0" />
          </symbol>
          <symbol
             overflow="visible"
             id="textext-413b9505-3"
             style="overflow:visible">
            <path
               style="stroke:none"
               d="m 6.84375,-3.265625 c 0.15625,0 0.34375,0 0.34375,-0.1875 C 7.1875,-3.65625 7,-3.65625 6.859375,-3.65625 l -5.96875,0 c -0.140625,0 -0.328125,0 -0.328125,0.203125 0,0.1875 0.1875,0.1875 0.328125,0.1875 z m 0.015625,1.9375 c 0.140625,0 0.328125,0 0.328125,-0.203125 0,-0.1875 -0.1875,-0.1875 -0.34375,-0.1875 l -5.953125,0 c -0.140625,0 -0.328125,0 -0.328125,0.1875 0,0.203125 0.1875,0.203125 0.328125,0.203125 z"
               id="path3683"
               inkscape:connector-curvature="0" />
          </symbol>
          <symbol
             overflow="visible"
             id="textext-413b9505-4"
             style="overflow:visible">
            <path
               style="stroke:none"
               d=""
               id="path3686"
               inkscape:connector-curvature="0" />
          </symbol>
          <symbol
             overflow="visible"
             id="textext-413b9505-5"
             style="overflow:visible">
            <path
               style="stroke:none"
               d="M 3.59375,-2.21875 C 3.59375,-2.984375 3.5,-3.546875 3.1875,-4.03125 2.96875,-4.34375 2.53125,-4.625 1.984375,-4.625 c -1.625,0 -1.625,1.90625 -1.625,2.40625 0,0.5 0,2.359375 1.625,2.359375 1.609375,0 1.609375,-1.859375 1.609375,-2.359375 z M 1.984375,-0.0625 c -0.328125,0 -0.75,-0.1875 -0.890625,-0.75 C 1,-1.21875 1,-1.796875 1,-2.3125 1,-2.828125 1,-3.359375 1.09375,-3.734375 1.25,-4.28125 1.6875,-4.4375 1.984375,-4.4375 c 0.375,0 0.734375,0.234375 0.859375,0.640625 0.109375,0.375 0.125,0.875 0.125,1.484375 0,0.515625 0,1.03125 -0.09375,1.46875 -0.140625,0.640625 -0.609375,0.78125 -0.890625,0.78125 z"
               id="path3689"
               inkscape:connector-curvature="0" />
          </symbol>
        </g>
      </defs>
      <g
         id="textext-413b9505-6">
        <g
           style="fill:#000000;fill-opacity:1"
           id="g3692">
          <use
             xlink:href="#textext-413b9505-1"
             x="223.43201"
             y="134.765"
             id="use3694"
             width="354.33069"
             height="354.33069" />
        </g>
        <g
           style="fill:#000000;fill-opacity:1"
           id="g3696">
          <use
             xlink:href="#textext-413b9505-3"
             x="231.004"
             y="134.765"
             id="use3698"
             width="354.33069"
             height="354.33069" />
        </g>
        <g
           style="fill:#000000;fill-opacity:1"
           id="g3700">
          <use
             xlink:href="#textext-413b9505-1"
             x="241.52"
             y="134.765"
             id="use3702"
             width="354.33069"
             height="354.33069" />
        </g>
        <g
           style="fill:#000000;fill-opacity:1"
           id="g3704">
          <use
             xlink:href="#textext-413b9505-5"
             x="245.968"
             y="136.259"
             id="use3706"
             width="354.33069"
             height="354.33069" />
        </g>
      </g>
    </g>
    <g
       id="g3998"
       style="display:inline"
       transform="matrix(3,0,0,3,-463.49151,-261.76368)"
       ns0:preamble="/home/mtoussai/.config/inkscape/extensions/textext_preamble.tex"
       ns0:text="$\\phi(q) = y^*$">
      <defs
         id="defs4000">
        <g
           id="g4002">
          <symbol
             id="textext-317f0578-0"
             overflow="visible">
            <path
               id="path4005"
               d=""
               style="stroke:none;" />
          </symbol>
          <symbol
             id="textext-317f0578-1"
             overflow="visible">
            <path
               id="path4008"
               d="M 4.359375 -6.671875 C 4.359375 -6.703125 4.390625 -6.8125 4.390625 -6.8125 C 4.390625 -6.828125 4.390625 -6.921875 4.265625 -6.921875 C 4.171875 -6.921875 4.15625 -6.890625 4.109375 -6.71875 L 3.53125 -4.421875 C 1.953125 -4.359375 0.484375 -3.046875 0.484375 -1.6875 C 0.484375 -0.734375 1.1875 0.046875 2.40625 0.125 C 2.328125 0.421875 2.25 0.75 2.171875 1.0625 C 2.046875 1.53125 1.953125 1.90625 1.953125 1.9375 C 1.953125 2.03125 2.03125 2.046875 2.078125 2.046875 C 2.125 2.046875 2.140625 2.03125 2.171875 2 C 2.1875 1.984375 2.25 1.75 2.28125 1.609375 L 2.65625 0.125 C 4.265625 0.0625 5.71875 -1.28125 5.71875 -2.609375 C 5.71875 -3.40625 5.1875 -4.3125 3.796875 -4.421875 Z M 2.453125 -0.09375 C 1.859375 -0.125 1.140625 -0.484375 1.140625 -1.46875 C 1.140625 -2.671875 2 -4.0625 3.484375 -4.203125 Z M 3.734375 -4.203125 C 4.5 -4.15625 5.0625 -3.703125 5.0625 -2.828125 C 5.0625 -1.640625 4.203125 -0.21875 2.71875 -0.09375 Z "
               style="stroke:none;" />
          </symbol>
          <symbol
             id="textext-317f0578-2"
             overflow="visible">
            <path
               id="path4011"
               d="M 4.5 -4.296875 C 4.5 -4.34375 4.46875 -4.390625 4.40625 -4.390625 C 4.296875 -4.390625 3.890625 -4 3.734375 -3.703125 C 3.515625 -4.25 3.125 -4.40625 2.796875 -4.40625 C 1.625 -4.40625 0.40625 -2.9375 0.40625 -1.484375 C 0.40625 -0.515625 0.984375 0.109375 1.71875 0.109375 C 2.140625 0.109375 2.53125 -0.125 2.890625 -0.484375 C 2.796875 -0.140625 2.46875 1.203125 2.4375 1.296875 C 2.359375 1.578125 2.28125 1.609375 1.71875 1.625 C 1.59375 1.625 1.5 1.625 1.5 1.828125 C 1.5 1.828125 1.5 1.9375 1.625 1.9375 C 1.9375 1.9375 2.296875 1.90625 2.625 1.90625 C 2.953125 1.90625 3.3125 1.9375 3.65625 1.9375 C 3.703125 1.9375 3.828125 1.9375 3.828125 1.734375 C 3.828125 1.625 3.734375 1.625 3.5625 1.625 C 3.09375 1.625 3.09375 1.5625 3.09375 1.46875 C 3.09375 1.390625 3.109375 1.328125 3.125 1.25 Z M 1.75 -0.109375 C 1.140625 -0.109375 1.109375 -0.875 1.109375 -1.046875 C 1.109375 -1.53125 1.390625 -2.609375 1.5625 -3.03125 C 1.875 -3.765625 2.390625 -4.1875 2.796875 -4.1875 C 3.453125 -4.1875 3.59375 -3.375 3.59375 -3.3125 C 3.59375 -3.25 3.046875 -1.0625 3.015625 -1.03125 C 2.859375 -0.75 2.296875 -0.109375 1.75 -0.109375 Z "
               style="stroke:none;" />
          </symbol>
          <symbol
             id="textext-317f0578-3"
             overflow="visible">
            <path
               id="path4014"
               d="M 4.84375 -3.796875 C 4.890625 -3.9375 4.890625 -3.953125 4.890625 -4.03125 C 4.890625 -4.203125 4.75 -4.296875 4.59375 -4.296875 C 4.5 -4.296875 4.34375 -4.234375 4.25 -4.09375 C 4.234375 -4.03125 4.140625 -3.734375 4.109375 -3.546875 C 4.03125 -3.296875 3.96875 -3.015625 3.90625 -2.75 L 3.453125 -0.953125 C 3.421875 -0.8125 2.984375 -0.109375 2.328125 -0.109375 C 1.828125 -0.109375 1.71875 -0.546875 1.71875 -0.921875 C 1.71875 -1.375 1.890625 -2 2.21875 -2.875 C 2.375 -3.28125 2.421875 -3.390625 2.421875 -3.59375 C 2.421875 -4.03125 2.109375 -4.40625 1.609375 -4.40625 C 0.65625 -4.40625 0.296875 -2.953125 0.296875 -2.875 C 0.296875 -2.765625 0.390625 -2.765625 0.40625 -2.765625 C 0.515625 -2.765625 0.515625 -2.796875 0.5625 -2.953125 C 0.84375 -3.890625 1.234375 -4.1875 1.578125 -4.1875 C 1.65625 -4.1875 1.828125 -4.1875 1.828125 -3.875 C 1.828125 -3.625 1.71875 -3.359375 1.65625 -3.171875 C 1.25 -2.109375 1.078125 -1.546875 1.078125 -1.078125 C 1.078125 -0.1875 1.703125 0.109375 2.296875 0.109375 C 2.6875 0.109375 3.015625 -0.0625 3.296875 -0.34375 C 3.171875 0.171875 3.046875 0.671875 2.65625 1.203125 C 2.390625 1.53125 2.015625 1.828125 1.5625 1.828125 C 1.421875 1.828125 0.96875 1.796875 0.796875 1.40625 C 0.953125 1.40625 1.09375 1.40625 1.21875 1.28125 C 1.328125 1.203125 1.421875 1.0625 1.421875 0.875 C 1.421875 0.5625 1.15625 0.53125 1.0625 0.53125 C 0.828125 0.53125 0.5 0.6875 0.5 1.171875 C 0.5 1.671875 0.9375 2.046875 1.5625 2.046875 C 2.578125 2.046875 3.609375 1.140625 3.890625 0.015625 Z "
               style="stroke:none;" />
          </symbol>
          <symbol
             id="textext-317f0578-4"
             overflow="visible">
            <path
               id="path4017"
               d=""
               style="stroke:none;" />
          </symbol>
          <symbol
             id="textext-317f0578-5"
             overflow="visible">
            <path
               id="path4020"
               d="M 3.296875 2.390625 C 3.296875 2.359375 3.296875 2.34375 3.125 2.171875 C 1.890625 0.921875 1.5625 -0.96875 1.5625 -2.5 C 1.5625 -4.234375 1.9375 -5.96875 3.171875 -7.203125 C 3.296875 -7.328125 3.296875 -7.34375 3.296875 -7.375 C 3.296875 -7.453125 3.265625 -7.484375 3.203125 -7.484375 C 3.09375 -7.484375 2.203125 -6.796875 1.609375 -5.53125 C 1.109375 -4.4375 0.984375 -3.328125 0.984375 -2.5 C 0.984375 -1.71875 1.09375 -0.515625 1.640625 0.625 C 2.25 1.84375 3.09375 2.5 3.203125 2.5 C 3.265625 2.5 3.296875 2.46875 3.296875 2.390625 Z "
               style="stroke:none;" />
          </symbol>
          <symbol
             id="textext-317f0578-6"
             overflow="visible">
            <path
               id="path4023"
               d="M 2.875 -2.5 C 2.875 -3.265625 2.765625 -4.46875 2.21875 -5.609375 C 1.625 -6.828125 0.765625 -7.484375 0.671875 -7.484375 C 0.609375 -7.484375 0.5625 -7.4375 0.5625 -7.375 C 0.5625 -7.34375 0.5625 -7.328125 0.75 -7.140625 C 1.734375 -6.15625 2.296875 -4.578125 2.296875 -2.5 C 2.296875 -0.78125 1.9375 0.96875 0.703125 2.21875 C 0.5625 2.34375 0.5625 2.359375 0.5625 2.390625 C 0.5625 2.453125 0.609375 2.5 0.671875 2.5 C 0.765625 2.5 1.671875 1.8125 2.25 0.546875 C 2.765625 -0.546875 2.875 -1.65625 2.875 -2.5 Z "
               style="stroke:none;" />
          </symbol>
          <symbol
             id="textext-317f0578-7"
             overflow="visible">
            <path
               id="path4026"
               d="M 6.84375 -3.265625 C 7 -3.265625 7.1875 -3.265625 7.1875 -3.453125 C 7.1875 -3.65625 7 -3.65625 6.859375 -3.65625 L 0.890625 -3.65625 C 0.75 -3.65625 0.5625 -3.65625 0.5625 -3.453125 C 0.5625 -3.265625 0.75 -3.265625 0.890625 -3.265625 Z M 6.859375 -1.328125 C 7 -1.328125 7.1875 -1.328125 7.1875 -1.53125 C 7.1875 -1.71875 7 -1.71875 6.84375 -1.71875 L 0.890625 -1.71875 C 0.75 -1.71875 0.5625 -1.71875 0.5625 -1.53125 C 0.5625 -1.328125 0.75 -1.328125 0.890625 -1.328125 Z "
               style="stroke:none;" />
          </symbol>
          <symbol
             id="textext-317f0578-8"
             overflow="visible">
            <path
               id="path4029"
               d=""
               style="stroke:none;" />
          </symbol>
          <symbol
             id="textext-317f0578-9"
             overflow="visible">
            <path
               id="path4032"
               d="M 2.25 -1.734375 C 2.828125 -1.984375 3.078125 -2.078125 3.25 -2.171875 C 3.390625 -2.21875 3.453125 -2.25 3.453125 -2.390625 C 3.453125 -2.5 3.359375 -2.609375 3.234375 -2.609375 C 3.1875 -2.609375 3.171875 -2.609375 3.09375 -2.546875 L 2.140625 -1.90625 L 2.25 -2.9375 C 2.265625 -3.0625 2.25 -3.234375 2.03125 -3.234375 C 1.953125 -3.234375 1.8125 -3.1875 1.8125 -3.03125 C 1.8125 -2.96875 1.84375 -2.765625 1.859375 -2.6875 C 1.875 -2.578125 1.921875 -2.0625 1.9375 -1.90625 L 0.984375 -2.546875 C 0.921875 -2.578125 0.90625 -2.609375 0.84375 -2.609375 C 0.703125 -2.609375 0.625 -2.5 0.625 -2.390625 C 0.625 -2.25 0.703125 -2.203125 0.765625 -2.1875 L 1.8125 -1.734375 C 1.25 -1.484375 0.984375 -1.390625 0.8125 -1.3125 C 0.6875 -1.25 0.625 -1.21875 0.625 -1.09375 C 0.625 -0.96875 0.703125 -0.875 0.84375 -0.875 C 0.890625 -0.875 0.90625 -0.875 0.984375 -0.9375 L 1.9375 -1.5625 L 1.8125 -0.453125 C 1.8125 -0.296875 1.953125 -0.234375 2.03125 -0.234375 C 2.125 -0.234375 2.25 -0.296875 2.25 -0.453125 C 2.25 -0.515625 2.21875 -0.71875 2.21875 -0.78125 C 2.203125 -0.90625 2.15625 -1.40625 2.140625 -1.5625 L 2.96875 -1.015625 C 3.15625 -0.875 3.171875 -0.875 3.234375 -0.875 C 3.359375 -0.875 3.453125 -0.96875 3.453125 -1.09375 C 3.453125 -1.234375 3.359375 -1.265625 3.296875 -1.296875 Z "
               style="stroke:none;" />
          </symbol>
        </g>
      </defs>
      <g
         id="textext-317f0578-10">
        <g
           id="g4035"
           style="fill:rgb(0%,0%,0%);fill-opacity:1;">
          <use
             id="use4037"
             y="134.765"
             x="223.432"
             xlink:href="#textext-317f0578-1" />
        </g>
        <g
           id="g4039"
           style="fill:rgb(0%,0%,0%);fill-opacity:1;">
          <use
             id="use4041"
             y="134.765"
             x="229.368"
             xlink:href="#textext-317f0578-5" />
        </g>
        <g
           id="g4043"
           style="fill:rgb(0%,0%,0%);fill-opacity:1;">
          <use
             id="use4045"
             y="134.765"
             x="233.243"
             xlink:href="#textext-317f0578-2" />
        </g>
        <g
           id="g4047"
           style="fill:rgb(0%,0%,0%);fill-opacity:1;">
          <use
             id="use4049"
             y="134.765"
             x="238.047"
             xlink:href="#textext-317f0578-6" />
        </g>
        <g
           id="g4051"
           style="fill:rgb(0%,0%,0%);fill-opacity:1;">
          <use
             id="use4053"
             y="134.765"
             x="244.691058"
             xlink:href="#textext-317f0578-7" />
        </g>
        <g
           id="g4055"
           style="fill:rgb(0%,0%,0%);fill-opacity:1;">
          <use
             id="use4057"
             y="134.765"
             x="255.205"
             xlink:href="#textext-317f0578-3" />
        </g>
        <g
           id="g4059"
           style="fill:rgb(0%,0%,0%);fill-opacity:1;">
          <use
             id="use4061"
             y="131.149"
             x="260.447"
             xlink:href="#textext-317f0578-9" />
        </g>
      </g>
    </g>
  </g>
</svg>
